SplineFontDB: 3.2
FontName: Bescii-Mono
FullName: Bescii Mono
FamilyName: Bescii Mono
Weight: Regular
Copyright: Copyright \\(c\\) 2024 by Damian Vila.
Version: 002.000
ItalicAngle: 0
UnderlinePosition: -100
UnderlineWidth: 50
Ascent: 896
Descent: 128
InvalidEm: 0
sfntRevision: 0x00020000
LayerCount: 2
Layer: 0 0 "Atr+AOEA-s" 1
Layer: 1 0 "Fore" 0
XUID: [1021 999 1154514124 9410550]
StyleMap: 0x0040
FSType: 8
OS2Version: 4
OS2_WeightWidthSlopeOnly: 0
OS2_UseTypoMetrics: 1
CreationTime: 1717891600
ModificationTime: 1717884507
PfmFamily: 81
TTFWeight: 400
TTFWidth: 5
LineGap: 0
VLineGap: 0
Panose: 0 0 0 9 0 0 0 0 0 0
OS2TypoAscent: 896
OS2TypoAOffset: 0
OS2TypoDescent: -128
OS2TypoDOffset: 0
OS2TypoLinegap: 0
OS2WinAscent: 1101
OS2WinAOffset: 0
OS2WinDescent: 128
OS2WinDOffset: 0
HheadAscent: 896
HheadAOffset: 0
HheadDescent: -128
HheadDOffset: 0
OS2SubXSize: 665
OS2SubYSize: 614
OS2SubXOff: 0
OS2SubYOff: 76
OS2SupXSize: 665
OS2SupYSize: 614
OS2SupXOff: 0
OS2SupYOff: 358
OS2StrikeYSize: 50
OS2StrikeYPos: 384
OS2CapHeight: 896
OS2XHeight: 640
OS2Vendor: 'UKWN'
OS2CodePages: 6002002d.00000000
OS2UnicodeRanges: 00000083.02061800.01000000.00000000
Lookup: 4 0 0 "'frac' Fracciones b+APoA-squeda 0" { "'frac' Fracciones b+APoA-squeda 0 subtabla"  } ['frac' ('DFLT' <'dflt' > 'cyrl' <'dflt' > 'grek' <'dflt' > 'hebr' <'dflt' > 'latn' <'dflt' > ) ]
Lookup: 4 0 1 "'liga' Ligaduras est+AOEA-ndar b+APoA-squeda 1" { "'liga' Ligaduras est+AOEA-ndar b+APoA-squeda 1 subtabla"  } ['liga' ('DFLT' <'dflt' > 'cyrl' <'dflt' > 'grek' <'dflt' > 'hebr' <'dflt' > 'latn' <'dflt' > ) ]
MarkAttachClasses: 1
DEI: 91125
LangName: 1033 "Copyright +AKkA 2024 by Damian Vila." "" "Regular" "2.000;UKWN;Bescii-Mono" "" "Version 2.000;hotconv 1.0.109;makeotfexe 2.5.65596" "" "" "Vila Fonts" "Damian Vila" "" "vilaindustries.com" "damianvila.com" "CC0 1.0 Universal" "" "" "Bescii" "Mono"
Encoding: UnicodeFull
UnicodeInterp: none
NameList: AGL For New Fonts
DisplaySize: -48
AntiAlias: 1
FitToEm: 0

StartChar: .notdef
Encoding: 1114112 -1 0
Width: 1024
GlyphClass: 1
Flags: W
LayerCount: 2
Fore
SplineSet
896 896 m 1
 896 768 l 1
 1024 768 l 1
 1024 0 l 1
 896 0 l 1
 896 -128 l 1
 640 -128 l 1
 640 0 l 1
 384 0 l 1
 384 -128 l 1
 128 -128 l 1
 128 0 l 1
 0 0 l 1
 0 768 l 1
 128 768 l 1
 128 896 l 1
 896 896 l 1
896 384 m 1
 896 640 l 1
 768 640 l 1
 768 768 l 1
 256 768 l 1
 256 640 l 1
 128 640 l 1
 128 512 l 1
 384 512 l 1
 384 640 l 1
 640 640 l 1
 640 384 l 1
 512 384 l 1
 512 256 l 1
 384 256 l 1
 384 128 l 1
 640 128 l 1
 640 256 l 1
 768 256 l 1
 768 384 l 1
 896 384 l 1
EndSplineSet
Validated: 1
EndChar

StartChar: A
Encoding: 65 65 1
Width: 1024
GlyphClass: 1
Flags: W
LayerCount: 2
Fore
SplineSet
768 768 m 1
 768 640 l 1
 896 640 l 1
 896 0 l 1
 640 0 l 1
 640 256 l 1
 384 256 l 1
 384 0 l 1
 128 0 l 1
 128 640 l 1
 256 640 l 1
 256 768 l 1
 384 768 l 1
 384 896 l 1
 640 896 l 1
 640 768 l 1
 768 768 l 1
384 384 m 1
 640 384 l 1
 640 640 l 1
 384 640 l 1
 384 384 l 1
EndSplineSet
Validated: 1
EndChar

StartChar: Aacute
Encoding: 193 193 2
Width: 1024
GlyphClass: 1
Flags: W
LayerCount: 2
Fore
SplineSet
640 896 m 1
 768 896 l 1
 768 768 l 1
 640 768 l 1
 640 896 l 1
768 512 m 1
 768 384 l 1
 896 384 l 1
 896 0 l 1
 640 0 l 1
 640 128 l 1
 384 128 l 1
 384 0 l 1
 128 0 l 1
 128 384 l 1
 256 384 l 1
 256 512 l 1
 384 512 l 1
 384 640 l 1
 512 640 l 1
 512 768 l 1
 640 768 l 1
 640 512 l 1
 768 512 l 1
384 256 m 1
 640 256 l 1
 640 384 l 1
 384 384 l 1
 384 256 l 1
EndSplineSet
Validated: 5
EndChar

StartChar: Acircumflex
Encoding: 194 194 3
Width: 1024
GlyphClass: 1
Flags: W
LayerCount: 2
Fore
SplineSet
512 896 m 1
 640 896 l 1
 640 768 l 1
 512 768 l 1
 512 896 l 1
768 512 m 1
 768 384 l 1
 896 384 l 1
 896 0 l 1
 640 0 l 1
 640 128 l 1
 384 128 l 1
 384 0 l 1
 128 0 l 1
 128 384 l 1
 256 384 l 1
 256 512 l 1
 384 512 l 1
 384 768 l 1
 512 768 l 1
 512 640 l 1
 640 640 l 1
 640 512 l 1
 768 512 l 1
768 768 m 1
 768 640 l 1
 640 640 l 1
 640 768 l 1
 768 768 l 1
384 256 m 1
 640 256 l 1
 640 384 l 1
 384 384 l 1
 384 256 l 1
EndSplineSet
Validated: 5
EndChar

StartChar: Adieresis
Encoding: 196 196 4
Width: 1024
GlyphClass: 1
Flags: W
LayerCount: 2
Fore
SplineSet
256 896 m 1
 384 896 l 1
 384 768 l 1
 256 768 l 1
 256 896 l 1
640 896 m 1
 768 896 l 1
 768 768 l 1
 640 768 l 1
 640 896 l 1
768 512 m 1
 768 384 l 1
 896 384 l 1
 896 0 l 1
 640 0 l 1
 640 128 l 1
 384 128 l 1
 384 0 l 1
 128 0 l 1
 128 384 l 1
 256 384 l 1
 256 512 l 1
 384 512 l 1
 384 640 l 1
 640 640 l 1
 640 512 l 1
 768 512 l 1
384 256 m 1
 640 256 l 1
 640 384 l 1
 384 384 l 1
 384 256 l 1
EndSplineSet
Validated: 1
EndChar

StartChar: Agrave
Encoding: 192 192 5
Width: 1024
GlyphClass: 1
Flags: W
LayerCount: 2
Fore
SplineSet
256 768 m 1
 256 896 l 1
 384 896 l 1
 384 768 l 1
 256 768 l 1
768 512 m 1
 768 384 l 1
 896 384 l 1
 896 0 l 1
 640 0 l 1
 640 128 l 1
 384 128 l 1
 384 0 l 1
 128 0 l 1
 128 384 l 1
 256 384 l 1
 256 512 l 1
 384 512 l 1
 384 768 l 1
 512 768 l 1
 512 640 l 1
 640 640 l 1
 640 512 l 1
 768 512 l 1
384 256 m 1
 640 256 l 1
 640 384 l 1
 384 384 l 1
 384 256 l 1
EndSplineSet
Validated: 5
EndChar

StartChar: Aring
Encoding: 197 197 6
Width: 1024
GlyphClass: 1
Flags: W
LayerCount: 2
Fore
SplineSet
768 512 m 1
 768 384 l 1
 896 384 l 1
 896 0 l 1
 640 0 l 1
 640 128 l 1
 384 128 l 1
 384 0 l 1
 128 0 l 1
 128 384 l 1
 256 384 l 1
 256 512 l 1
 384 512 l 1
 384 640 l 1
 512 640 l 1
 512 896 l 1
 768 896 l 1
 768 640 l 1
 640 640 l 1
 640 512 l 1
 768 512 l 1
384 256 m 1
 640 256 l 1
 640 384 l 1
 384 384 l 1
 384 256 l 1
EndSplineSet
Validated: 1
EndChar

StartChar: Atilde
Encoding: 195 195 7
Width: 1024
GlyphClass: 1
Flags: W
LayerCount: 2
Fore
SplineSet
256 768 m 1
 256 896 l 1
 768 896 l 1
 768 768 l 1
 256 768 l 1
768 512 m 1
 768 384 l 1
 896 384 l 1
 896 0 l 1
 640 0 l 1
 640 128 l 1
 384 128 l 1
 384 0 l 1
 128 0 l 1
 128 384 l 1
 256 384 l 1
 256 512 l 1
 384 512 l 1
 384 640 l 1
 640 640 l 1
 640 512 l 1
 768 512 l 1
384 256 m 1
 640 256 l 1
 640 384 l 1
 384 384 l 1
 384 256 l 1
EndSplineSet
Validated: 1
EndChar

StartChar: AE
Encoding: 198 198 8
Width: 1024
GlyphClass: 1
Flags: W
LayerCount: 2
Fore
SplineSet
640 768 m 1
 640 512 l 1
 768 512 l 1
 768 384 l 1
 640 384 l 1
 640 128 l 1
 896 128 l 1
 896 0 l 1
 384 0 l 1
 384 384 l 1
 256 384 l 1
 256 0 l 1
 0 0 l 1
 0 768 l 1
 128 768 l 1
 128 896 l 1
 896 896 l 1
 896 768 l 1
 640 768 l 1
256 512 m 1
 384 512 l 1
 384 768 l 1
 256 768 l 1
 256 512 l 1
EndSplineSet
Validated: 1
EndChar

StartChar: B
Encoding: 66 66 9
Width: 1024
GlyphClass: 1
Flags: W
LayerCount: 2
Fore
SplineSet
768 896 m 1
 768 768 l 1
 896 768 l 1
 896 512 l 1
 768 512 l 1
 768 384 l 1
 896 384 l 1
 896 128 l 1
 768 128 l 1
 768 0 l 1
 128 0 l 1
 128 896 l 1
 768 896 l 1
384 512 m 1
 640 512 l 1
 640 768 l 1
 384 768 l 1
 384 512 l 1
640 128 m 1
 640 384 l 1
 384 384 l 1
 384 128 l 1
 640 128 l 1
EndSplineSet
Validated: 1
EndChar

StartChar: C
Encoding: 67 67 10
Width: 1024
GlyphClass: 1
Flags: W
LayerCount: 2
Fore
SplineSet
896 640 m 1
 640 640 l 1
 640 768 l 1
 384 768 l 1
 384 128 l 1
 640 128 l 1
 640 256 l 1
 896 256 l 1
 896 128 l 1
 768 128 l 1
 768 0 l 1
 256 0 l 1
 256 128 l 1
 128 128 l 1
 128 768 l 1
 256 768 l 1
 256 896 l 1
 768 896 l 1
 768 768 l 1
 896 768 l 1
 896 640 l 1
EndSplineSet
Validated: 1
EndChar

StartChar: Ccedilla
Encoding: 199 199 11
Width: 1024
GlyphClass: 1
Flags: W
LayerCount: 2
Fore
SplineSet
896 640 m 1
 640 640 l 1
 640 768 l 1
 384 768 l 1
 384 128 l 1
 640 128 l 1
 640 256 l 1
 896 256 l 1
 896 128 l 1
 768 128 l 1
 768 0 l 1
 640 0 l 1
 640 -128 l 1
 512 -128 l 1
 512 0 l 1
 256 0 l 1
 256 128 l 1
 128 128 l 1
 128 768 l 1
 256 768 l 1
 256 896 l 1
 768 896 l 1
 768 768 l 1
 896 768 l 1
 896 640 l 1
EndSplineSet
Validated: 1
EndChar

StartChar: D
Encoding: 68 68 12
Width: 1024
GlyphClass: 1
Flags: W
LayerCount: 2
Fore
SplineSet
768 896 m 1
 768 768 l 1
 896 768 l 1
 896 128 l 1
 768 128 l 1
 768 0 l 1
 128 0 l 1
 128 896 l 1
 768 896 l 1
384 128 m 1
 640 128 l 1
 640 768 l 1
 384 768 l 1
 384 128 l 1
EndSplineSet
Validated: 1
EndChar

StartChar: Eth
Encoding: 208 208 13
Width: 1024
GlyphClass: 1
Flags: W
LayerCount: 2
Fore
SplineSet
768 896 m 1
 768 768 l 1
 896 768 l 1
 896 128 l 1
 768 128 l 1
 768 0 l 1
 128 0 l 1
 128 384 l 1
 0 384 l 1
 0 512 l 1
 128 512 l 1
 128 896 l 1
 768 896 l 1
384 128 m 1
 640 128 l 1
 640 768 l 1
 384 768 l 1
 384 512 l 1
 512 512 l 1
 512 384 l 1
 384 384 l 1
 384 128 l 1
EndSplineSet
Validated: 1
EndChar

StartChar: E
Encoding: 69 69 14
Width: 1024
GlyphClass: 1
Flags: W
LayerCount: 2
Fore
SplineSet
384 768 m 1
 384 512 l 1
 640 512 l 1
 640 384 l 1
 384 384 l 1
 384 128 l 1
 896 128 l 1
 896 0 l 1
 128 0 l 1
 128 896 l 1
 896 896 l 1
 896 768 l 1
 384 768 l 1
EndSplineSet
Validated: 1
EndChar

StartChar: Eacute
Encoding: 201 201 15
Width: 1024
GlyphClass: 1
Flags: W
LayerCount: 2
Fore
SplineSet
512 896 m 1
 640 896 l 1
 640 768 l 1
 512 768 l 1
 512 896 l 1
384 512 m 1
 384 384 l 1
 640 384 l 1
 640 256 l 1
 384 256 l 1
 384 128 l 1
 896 128 l 1
 896 0 l 1
 128 0 l 1
 128 640 l 1
 384 640 l 1
 384 768 l 1
 512 768 l 1
 512 640 l 1
 896 640 l 1
 896 512 l 1
 384 512 l 1
EndSplineSet
Validated: 5
EndChar

StartChar: Ecircumflex
Encoding: 202 202 16
Width: 1024
GlyphClass: 1
Flags: W
LayerCount: 2
Fore
SplineSet
512 896 m 1
 640 896 l 1
 640 768 l 1
 512 768 l 1
 512 896 l 1
384 512 m 1
 384 384 l 1
 640 384 l 1
 640 256 l 1
 384 256 l 1
 384 128 l 1
 896 128 l 1
 896 0 l 1
 128 0 l 1
 128 640 l 1
 384 640 l 1
 384 768 l 1
 512 768 l 1
 512 640 l 1
 640 640 l 1
 640 768 l 1
 768 768 l 1
 768 640 l 1
 896 640 l 1
 896 512 l 1
 384 512 l 1
EndSplineSet
Validated: 5
EndChar

StartChar: Edieresis
Encoding: 203 203 17
Width: 1024
GlyphClass: 1
Flags: W
LayerCount: 2
Fore
SplineSet
256 896 m 1
 384 896 l 1
 384 768 l 1
 256 768 l 1
 256 896 l 1
640 896 m 1
 768 896 l 1
 768 768 l 1
 640 768 l 1
 640 896 l 1
384 512 m 1
 384 384 l 1
 640 384 l 1
 640 256 l 1
 384 256 l 1
 384 128 l 1
 896 128 l 1
 896 0 l 1
 128 0 l 1
 128 640 l 1
 896 640 l 1
 896 512 l 1
 384 512 l 1
EndSplineSet
Validated: 1
EndChar

StartChar: Egrave
Encoding: 200 200 18
Width: 1024
GlyphClass: 1
Flags: W
LayerCount: 2
Fore
SplineSet
384 768 m 1
 384 896 l 1
 512 896 l 1
 512 768 l 1
 384 768 l 1
384 512 m 1
 384 384 l 1
 640 384 l 1
 640 256 l 1
 384 256 l 1
 384 128 l 1
 896 128 l 1
 896 0 l 1
 128 0 l 1
 128 640 l 1
 512 640 l 1
 512 768 l 1
 640 768 l 1
 640 640 l 1
 896 640 l 1
 896 512 l 1
 384 512 l 1
EndSplineSet
Validated: 5
EndChar

StartChar: F
Encoding: 70 70 19
Width: 1024
GlyphClass: 1
Flags: W
LayerCount: 2
Fore
SplineSet
896 896 m 1
 896 768 l 1
 384 768 l 1
 384 512 l 1
 640 512 l 1
 640 384 l 1
 384 384 l 1
 384 0 l 1
 128 0 l 1
 128 896 l 1
 896 896 l 1
EndSplineSet
Validated: 1
EndChar

StartChar: G
Encoding: 71 71 20
Width: 1024
GlyphClass: 1
Flags: W
LayerCount: 2
Fore
SplineSet
896 640 m 1
 640 640 l 1
 640 768 l 1
 384 768 l 1
 384 128 l 1
 640 128 l 1
 640 384 l 1
 512 384 l 1
 512 512 l 1
 896 512 l 1
 896 128 l 1
 768 128 l 1
 768 0 l 1
 256 0 l 1
 256 128 l 1
 128 128 l 1
 128 768 l 1
 256 768 l 1
 256 896 l 1
 768 896 l 1
 768 768 l 1
 896 768 l 1
 896 640 l 1
EndSplineSet
Validated: 1
EndChar

StartChar: H
Encoding: 72 72 21
Width: 1024
GlyphClass: 1
Flags: W
LayerCount: 2
Fore
SplineSet
640 896 m 1
 896 896 l 1
 896 0 l 1
 640 0 l 1
 640 384 l 1
 384 384 l 1
 384 0 l 1
 128 0 l 1
 128 896 l 1
 384 896 l 1
 384 512 l 1
 640 512 l 1
 640 896 l 1
EndSplineSet
Validated: 1
EndChar

StartChar: I
Encoding: 73 73 22
Width: 1024
GlyphClass: 1
Flags: W
LayerCount: 2
Fore
SplineSet
640 128 m 1
 768 128 l 1
 768 0 l 1
 256 0 l 1
 256 128 l 1
 384 128 l 1
 384 768 l 1
 256 768 l 1
 256 896 l 1
 768 896 l 1
 768 768 l 1
 640 768 l 1
 640 128 l 1
EndSplineSet
Validated: 1
EndChar

StartChar: Iacute
Encoding: 205 205 23
Width: 1024
GlyphClass: 1
Flags: W
LayerCount: 2
Fore
SplineSet
512 896 m 1
 640 896 l 1
 640 768 l 1
 512 768 l 1
 512 896 l 1
640 512 m 1
 640 128 l 1
 768 128 l 1
 768 0 l 1
 256 0 l 1
 256 128 l 1
 384 128 l 1
 384 512 l 1
 256 512 l 1
 256 640 l 1
 384 640 l 1
 384 768 l 1
 512 768 l 1
 512 640 l 1
 768 640 l 1
 768 512 l 1
 640 512 l 1
EndSplineSet
Validated: 5
EndChar

StartChar: Icircumflex
Encoding: 206 206 24
Width: 1024
GlyphClass: 1
Flags: W
LayerCount: 2
Fore
SplineSet
512 896 m 1
 640 896 l 1
 640 768 l 1
 512 768 l 1
 512 896 l 1
640 640 m 1
 640 768 l 1
 768 768 l 1
 768 512 l 1
 640 512 l 1
 640 128 l 1
 768 128 l 1
 768 0 l 1
 256 0 l 1
 256 128 l 1
 384 128 l 1
 384 512 l 1
 256 512 l 1
 256 640 l 1
 384 640 l 1
 384 768 l 1
 512 768 l 1
 512 640 l 1
 640 640 l 1
EndSplineSet
Validated: 5
EndChar

StartChar: Idieresis
Encoding: 207 207 25
Width: 1024
GlyphClass: 1
Flags: W
LayerCount: 2
Fore
SplineSet
256 896 m 1
 384 896 l 1
 384 768 l 1
 256 768 l 1
 256 896 l 1
640 768 m 1
 640 896 l 1
 768 896 l 1
 768 768 l 1
 640 768 l 1
768 640 m 1
 768 512 l 1
 640 512 l 1
 640 128 l 1
 768 128 l 1
 768 0 l 1
 256 0 l 1
 256 128 l 1
 384 128 l 1
 384 512 l 1
 256 512 l 1
 256 640 l 1
 768 640 l 1
EndSplineSet
Validated: 1
EndChar

StartChar: Igrave
Encoding: 204 204 26
Width: 1024
GlyphClass: 1
Flags: W
LayerCount: 2
Fore
SplineSet
384 768 m 1
 384 896 l 1
 512 896 l 1
 512 768 l 1
 384 768 l 1
640 512 m 1
 640 128 l 1
 768 128 l 1
 768 0 l 1
 256 0 l 1
 256 128 l 1
 384 128 l 1
 384 512 l 1
 256 512 l 1
 256 640 l 1
 512 640 l 1
 512 768 l 1
 640 768 l 1
 640 640 l 1
 768 640 l 1
 768 512 l 1
 640 512 l 1
EndSplineSet
Validated: 5
EndChar

StartChar: J
Encoding: 74 74 27
Width: 1024
GlyphClass: 1
Flags: W
LayerCount: 2
Fore
SplineSet
896 896 m 1
 896 128 l 1
 768 128 l 1
 768 0 l 1
 256 0 l 1
 256 128 l 1
 128 128 l 1
 128 256 l 1
 384 256 l 1
 384 128 l 1
 640 128 l 1
 640 768 l 1
 512 768 l 1
 512 896 l 1
 896 896 l 1
EndSplineSet
Validated: 1
EndChar

StartChar: K
Encoding: 75 75 28
Width: 1024
GlyphClass: 1
Flags: W
LayerCount: 2
Fore
SplineSet
640 896 m 1
 896 896 l 1
 896 640 l 1
 768 640 l 1
 768 512 l 1
 640 512 l 1
 640 384 l 1
 768 384 l 1
 768 256 l 1
 896 256 l 1
 896 0 l 1
 640 0 l 1
 640 256 l 1
 512 256 l 1
 512 384 l 1
 384 384 l 1
 384 0 l 1
 128 0 l 1
 128 896 l 1
 384 896 l 1
 384 512 l 1
 512 512 l 1
 512 640 l 1
 640 640 l 1
 640 896 l 1
EndSplineSet
Validated: 1
EndChar

StartChar: L
Encoding: 76 76 29
Width: 1024
GlyphClass: 1
Flags: W
LayerCount: 2
Fore
SplineSet
896 128 m 1
 896 0 l 1
 128 0 l 1
 128 896 l 1
 384 896 l 1
 384 128 l 1
 896 128 l 1
EndSplineSet
Validated: 1
EndChar

StartChar: M
Encoding: 77 77 30
Width: 1024
GlyphClass: 1
Flags: W
LayerCount: 2
Fore
SplineSet
640 896 m 1
 896 896 l 1
 896 0 l 1
 640 0 l 1
 640 512 l 1
 512 512 l 1
 512 384 l 1
 384 384 l 1
 384 512 l 1
 256 512 l 1
 256 0 l 1
 0 0 l 1
 0 896 l 1
 256 896 l 1
 256 768 l 1
 384 768 l 1
 384 640 l 1
 512 640 l 1
 512 768 l 1
 640 768 l 1
 640 896 l 1
EndSplineSet
Validated: 1
EndChar

StartChar: N
Encoding: 78 78 31
Width: 1024
GlyphClass: 1
Flags: W
LayerCount: 2
Fore
SplineSet
640 896 m 1
 896 896 l 1
 896 0 l 1
 640 0 l 1
 640 384 l 1
 512 384 l 1
 512 512 l 1
 384 512 l 1
 384 0 l 1
 128 0 l 1
 128 896 l 1
 384 896 l 1
 384 768 l 1
 512 768 l 1
 512 640 l 1
 640 640 l 1
 640 896 l 1
EndSplineSet
Validated: 1
EndChar

StartChar: Ntilde
Encoding: 209 209 32
Width: 1024
GlyphClass: 1
Flags: W
LayerCount: 2
Fore
SplineSet
640 896 m 1
 640 768 l 1
 384 768 l 1
 384 896 l 1
 640 896 l 1
640 768 m 1
 896 768 l 1
 896 0 l 1
 640 0 l 1
 640 256 l 1
 512 256 l 1
 512 384 l 1
 384 384 l 1
 384 0 l 1
 128 0 l 1
 128 768 l 1
 384 768 l 1
 384 640 l 1
 512 640 l 1
 512 512 l 1
 640 512 l 1
 640 768 l 1
EndSplineSet
Validated: 5
EndChar

StartChar: O
Encoding: 79 79 33
Width: 1024
GlyphClass: 1
Flags: W
LayerCount: 2
Fore
SplineSet
768 896 m 1
 768 768 l 1
 896 768 l 1
 896 128 l 1
 768 128 l 1
 768 0 l 1
 256 0 l 1
 256 128 l 1
 128 128 l 1
 128 768 l 1
 256 768 l 1
 256 896 l 1
 768 896 l 1
384 128 m 1
 640 128 l 1
 640 768 l 1
 384 768 l 1
 384 128 l 1
EndSplineSet
Validated: 1
EndChar

StartChar: Oacute
Encoding: 211 211 34
Width: 1024
GlyphClass: 1
Flags: W
LayerCount: 2
Fore
SplineSet
512 896 m 1
 640 896 l 1
 640 768 l 1
 512 768 l 1
 512 896 l 1
896 640 m 1
 896 128 l 1
 768 128 l 1
 768 0 l 1
 256 0 l 1
 256 128 l 1
 128 128 l 1
 128 512 l 1
 256 512 l 1
 256 640 l 1
 384 640 l 1
 384 768 l 1
 512 768 l 1
 512 640 l 1
 896 640 l 1
384 128 m 1
 640 128 l 1
 640 512 l 1
 384 512 l 1
 384 128 l 1
EndSplineSet
Validated: 5
EndChar

StartChar: Ocircumflex
Encoding: 212 212 35
Width: 1024
GlyphClass: 1
Flags: W
LayerCount: 2
Fore
SplineSet
512 896 m 1
 640 896 l 1
 640 768 l 1
 512 768 l 1
 512 896 l 1
768 768 m 1
 768 640 l 1
 896 640 l 1
 896 128 l 1
 768 128 l 1
 768 0 l 1
 256 0 l 1
 256 128 l 1
 128 128 l 1
 128 512 l 1
 256 512 l 1
 256 640 l 1
 384 640 l 1
 384 768 l 1
 512 768 l 1
 512 640 l 1
 640 640 l 1
 640 768 l 1
 768 768 l 1
384 128 m 1
 640 128 l 1
 640 512 l 1
 384 512 l 1
 384 128 l 1
EndSplineSet
Validated: 5
EndChar

StartChar: Odieresis
Encoding: 214 214 36
Width: 1024
GlyphClass: 1
Flags: W
LayerCount: 2
Fore
SplineSet
256 896 m 1
 384 896 l 1
 384 768 l 1
 256 768 l 1
 256 896 l 1
640 896 m 1
 768 896 l 1
 768 768 l 1
 640 768 l 1
 640 896 l 1
896 640 m 1
 896 128 l 1
 768 128 l 1
 768 0 l 1
 256 0 l 1
 256 128 l 1
 128 128 l 1
 128 512 l 1
 256 512 l 1
 256 640 l 1
 896 640 l 1
384 128 m 1
 640 128 l 1
 640 512 l 1
 384 512 l 1
 384 128 l 1
EndSplineSet
Validated: 1
EndChar

StartChar: Ograve
Encoding: 210 210 37
Width: 1024
GlyphClass: 1
Flags: W
LayerCount: 2
Fore
SplineSet
384 768 m 1
 384 896 l 1
 512 896 l 1
 512 768 l 1
 384 768 l 1
640 640 m 1
 896 640 l 1
 896 128 l 1
 768 128 l 1
 768 0 l 1
 256 0 l 1
 256 128 l 1
 128 128 l 1
 128 512 l 1
 256 512 l 1
 256 640 l 1
 512 640 l 1
 512 768 l 1
 640 768 l 1
 640 640 l 1
384 128 m 1
 640 128 l 1
 640 512 l 1
 384 512 l 1
 384 128 l 1
EndSplineSet
Validated: 5
EndChar

StartChar: Oslash
Encoding: 216 216 38
Width: 1024
GlyphClass: 1
Flags: W
LayerCount: 2
Fore
SplineSet
768 896 m 1
 768 768 l 1
 896 768 l 1
 896 128 l 1
 768 128 l 1
 768 0 l 1
 256 0 l 1
 256 128 l 1
 128 128 l 1
 128 768 l 1
 256 768 l 1
 256 896 l 1
 768 896 l 1
640 768 m 1
 384 768 l 1
 384 512 l 1
 512 512 l 1
 512 640 l 1
 640 640 l 1
 640 768 l 1
384 128 m 1
 640 128 l 1
 640 384 l 1
 512 384 l 1
 512 256 l 1
 384 256 l 1
 384 128 l 1
EndSplineSet
Validated: 1
EndChar

StartChar: Otilde
Encoding: 213 213 39
Width: 1024
GlyphClass: 1
Flags: W
LayerCount: 2
Fore
SplineSet
256 768 m 1
 256 896 l 1
 768 896 l 1
 768 768 l 1
 256 768 l 1
896 640 m 1
 896 128 l 1
 768 128 l 1
 768 0 l 1
 256 0 l 1
 256 128 l 1
 128 128 l 1
 128 512 l 1
 256 512 l 1
 256 640 l 1
 896 640 l 1
384 128 m 1
 640 128 l 1
 640 512 l 1
 384 512 l 1
 384 128 l 1
EndSplineSet
Validated: 1
EndChar

StartChar: OE
Encoding: 338 338 40
Width: 1024
GlyphClass: 1
Flags: W
LayerCount: 2
Fore
SplineSet
640 768 m 1
 640 512 l 1
 768 512 l 1
 768 384 l 1
 640 384 l 1
 640 128 l 1
 896 128 l 1
 896 0 l 1
 128 0 l 1
 128 128 l 1
 0 128 l 1
 0 768 l 1
 128 768 l 1
 128 896 l 1
 896 896 l 1
 896 768 l 1
 640 768 l 1
256 128 m 1
 384 128 l 1
 384 768 l 1
 256 768 l 1
 256 128 l 1
EndSplineSet
Validated: 1
EndChar

StartChar: P
Encoding: 80 80 41
Width: 1024
GlyphClass: 1
Flags: W
LayerCount: 2
Fore
SplineSet
768 896 m 1
 768 768 l 1
 896 768 l 1
 896 512 l 1
 768 512 l 1
 768 384 l 1
 384 384 l 1
 384 0 l 1
 128 0 l 1
 128 896 l 1
 768 896 l 1
384 512 m 1
 640 512 l 1
 640 768 l 1
 384 768 l 1
 384 512 l 1
EndSplineSet
Validated: 1
EndChar

StartChar: Thorn
Encoding: 222 222 42
Width: 1024
GlyphClass: 1
Flags: W
LayerCount: 2
Fore
SplineSet
768 768 m 1
 768 640 l 1
 896 640 l 1
 896 256 l 1
 768 256 l 1
 768 128 l 1
 512 128 l 1
 512 0 l 1
 256 0 l 1
 256 896 l 1
 512 896 l 1
 512 768 l 1
 768 768 l 1
512 256 m 1
 640 256 l 1
 640 640 l 1
 512 640 l 1
 512 256 l 1
EndSplineSet
Validated: 1
EndChar

StartChar: Q
Encoding: 81 81 43
Width: 1024
GlyphClass: 1
Flags: W
LayerCount: 2
Fore
SplineSet
768 896 m 1
 768 768 l 1
 896 768 l 1
 896 128 l 1
 768 128 l 1
 768 0 l 1
 896 0 l 1
 896 -128 l 1
 640 -128 l 1
 640 0 l 1
 256 0 l 1
 256 128 l 1
 128 128 l 1
 128 768 l 1
 256 768 l 1
 256 896 l 1
 768 896 l 1
384 128 m 1
 512 128 l 1
 512 256 l 1
 640 256 l 1
 640 768 l 1
 384 768 l 1
 384 128 l 1
EndSplineSet
Validated: 1
EndChar

StartChar: R
Encoding: 82 82 44
Width: 1024
GlyphClass: 1
Flags: W
LayerCount: 2
Fore
SplineSet
768 896 m 1
 768 768 l 1
 896 768 l 1
 896 512 l 1
 768 512 l 1
 768 384 l 1
 896 384 l 1
 896 0 l 1
 640 0 l 1
 640 384 l 1
 384 384 l 1
 384 0 l 1
 128 0 l 1
 128 896 l 1
 768 896 l 1
384 512 m 1
 640 512 l 1
 640 768 l 1
 384 768 l 1
 384 512 l 1
EndSplineSet
Validated: 1
EndChar

StartChar: S
Encoding: 83 83 45
Width: 1024
GlyphClass: 1
Flags: W
LayerCount: 2
Fore
SplineSet
896 640 m 1
 640 640 l 1
 640 768 l 1
 384 768 l 1
 384 512 l 1
 768 512 l 1
 768 384 l 1
 896 384 l 1
 896 128 l 1
 768 128 l 1
 768 0 l 1
 256 0 l 1
 256 128 l 1
 128 128 l 1
 128 256 l 1
 384 256 l 1
 384 128 l 1
 640 128 l 1
 640 384 l 1
 256 384 l 1
 256 512 l 1
 128 512 l 1
 128 768 l 1
 256 768 l 1
 256 896 l 1
 768 896 l 1
 768 768 l 1
 896 768 l 1
 896 640 l 1
EndSplineSet
Validated: 1
EndChar

StartChar: uni1E9E
Encoding: 7838 7838 46
Width: 1024
GlyphClass: 1
Flags: W
LayerCount: 2
Fore
SplineSet
768 896 m 1
 768 768 l 1
 896 768 l 1
 896 512 l 1
 768 512 l 1
 768 384 l 1
 896 384 l 1
 896 128 l 1
 768 128 l 1
 768 0 l 1
 512 0 l 1
 512 128 l 1
 640 128 l 1
 640 384 l 1
 512 384 l 1
 512 512 l 1
 640 512 l 1
 640 768 l 1
 384 768 l 1
 384 -128 l 1
 128 -128 l 1
 128 896 l 1
 768 896 l 1
EndSplineSet
Validated: 1
EndChar

StartChar: T
Encoding: 84 84 47
Width: 1024
GlyphClass: 1
Flags: W
LayerCount: 2
Fore
SplineSet
896 896 m 1
 896 768 l 1
 640 768 l 1
 640 0 l 1
 384 0 l 1
 384 768 l 1
 128 768 l 1
 128 896 l 1
 896 896 l 1
EndSplineSet
Validated: 1
EndChar

StartChar: U
Encoding: 85 85 48
Width: 1024
GlyphClass: 1
Flags: W
LayerCount: 2
Fore
SplineSet
640 896 m 1
 896 896 l 1
 896 128 l 1
 768 128 l 1
 768 0 l 1
 256 0 l 1
 256 128 l 1
 128 128 l 1
 128 896 l 1
 384 896 l 1
 384 128 l 1
 640 128 l 1
 640 896 l 1
EndSplineSet
Validated: 1
EndChar

StartChar: Uacute
Encoding: 218 218 49
Width: 1024
GlyphClass: 1
Flags: W
LayerCount: 2
Fore
SplineSet
512 896 m 1
 640 896 l 1
 640 768 l 1
 512 768 l 1
 512 896 l 1
384 768 m 1
 512 768 l 1
 512 640 l 1
 384 640 l 1
 384 768 l 1
640 640 m 1
 896 640 l 1
 896 128 l 1
 768 128 l 1
 768 0 l 1
 256 0 l 1
 256 128 l 1
 128 128 l 1
 128 640 l 1
 384 640 l 1
 384 128 l 1
 640 128 l 1
 640 640 l 1
EndSplineSet
Validated: 5
EndChar

StartChar: Ucircumflex
Encoding: 219 219 50
Width: 1024
GlyphClass: 1
Flags: W
LayerCount: 2
Fore
SplineSet
512 896 m 1
 640 896 l 1
 640 768 l 1
 512 768 l 1
 512 896 l 1
768 768 m 1
 768 640 l 1
 896 640 l 1
 896 128 l 1
 768 128 l 1
 768 0 l 1
 256 0 l 1
 256 128 l 1
 128 128 l 1
 128 640 l 1
 384 640 l 1
 384 128 l 1
 640 128 l 1
 640 768 l 1
 768 768 l 1
384 768 m 1
 512 768 l 1
 512 640 l 1
 384 640 l 1
 384 768 l 1
EndSplineSet
Validated: 5
EndChar

StartChar: Udieresis
Encoding: 220 220 51
Width: 1024
GlyphClass: 1
Flags: W
LayerCount: 2
Fore
SplineSet
256 896 m 1
 384 896 l 1
 384 768 l 1
 256 768 l 1
 256 896 l 1
640 896 m 1
 768 896 l 1
 768 768 l 1
 640 768 l 1
 640 896 l 1
640 640 m 1
 896 640 l 1
 896 128 l 1
 768 128 l 1
 768 0 l 1
 256 0 l 1
 256 128 l 1
 128 128 l 1
 128 640 l 1
 384 640 l 1
 384 128 l 1
 640 128 l 1
 640 640 l 1
EndSplineSet
Validated: 1
EndChar

StartChar: Ugrave
Encoding: 217 217 52
Width: 1024
GlyphClass: 1
Flags: W
LayerCount: 2
Fore
SplineSet
384 768 m 1
 384 896 l 1
 512 896 l 1
 512 768 l 1
 384 768 l 1
512 640 m 1
 512 768 l 1
 640 768 l 1
 640 640 l 1
 512 640 l 1
640 640 m 1
 896 640 l 1
 896 128 l 1
 768 128 l 1
 768 0 l 1
 256 0 l 1
 256 128 l 1
 128 128 l 1
 128 640 l 1
 384 640 l 1
 384 128 l 1
 640 128 l 1
 640 640 l 1
EndSplineSet
Validated: 5
EndChar

StartChar: V
Encoding: 86 86 53
Width: 1024
GlyphClass: 1
Flags: W
LayerCount: 2
Fore
SplineSet
640 896 m 1
 896 896 l 1
 896 256 l 1
 768 256 l 1
 768 128 l 1
 640 128 l 1
 640 0 l 1
 384 0 l 1
 384 128 l 1
 256 128 l 1
 256 256 l 1
 128 256 l 1
 128 896 l 1
 384 896 l 1
 384 256 l 1
 640 256 l 1
 640 896 l 1
EndSplineSet
Validated: 1
EndChar

StartChar: W
Encoding: 87 87 54
Width: 1024
GlyphClass: 1
Flags: W
LayerCount: 2
Fore
SplineSet
640 896 m 1
 896 896 l 1
 896 256 l 1
 768 256 l 1
 768 0 l 1
 512 0 l 1
 512 128 l 1
 384 128 l 1
 384 0 l 1
 128 0 l 1
 128 256 l 1
 0 256 l 1
 0 896 l 1
 256 896 l 1
 256 256 l 1
 384 256 l 1
 384 512 l 1
 512 512 l 1
 512 256 l 1
 640 256 l 1
 640 896 l 1
EndSplineSet
Validated: 1
EndChar

StartChar: Wacute
Encoding: 7810 7810 55
Width: 1024
GlyphClass: 1
Flags: W
LayerCount: 2
Fore
SplineSet
512 896 m 1
 640 896 l 1
 640 768 l 1
 512 768 l 1
 512 896 l 1
384 768 m 1
 512 768 l 1
 512 640 l 1
 384 640 l 1
 384 768 l 1
640 640 m 1
 896 640 l 1
 896 256 l 1
 768 256 l 1
 768 0 l 1
 512 0 l 1
 512 128 l 1
 384 128 l 1
 384 0 l 1
 128 0 l 1
 128 256 l 1
 0 256 l 1
 0 640 l 1
 256 640 l 1
 256 256 l 1
 384 256 l 1
 384 384 l 1
 512 384 l 1
 512 256 l 1
 640 256 l 1
 640 640 l 1
EndSplineSet
Validated: 5
EndChar

StartChar: Wcircumflex
Encoding: 372 372 56
Width: 1024
GlyphClass: 1
Flags: W
LayerCount: 2
Fore
SplineSet
384 896 m 1
 512 896 l 1
 512 768 l 1
 384 768 l 1
 384 896 l 1
256 768 m 1
 384 768 l 1
 384 640 l 1
 256 640 l 1
 256 768 l 1
640 768 m 1
 640 640 l 1
 512 640 l 1
 512 768 l 1
 640 768 l 1
640 640 m 1
 896 640 l 1
 896 256 l 1
 768 256 l 1
 768 0 l 1
 512 0 l 1
 512 128 l 1
 384 128 l 1
 384 0 l 1
 128 0 l 1
 128 256 l 1
 0 256 l 1
 0 640 l 1
 256 640 l 1
 256 256 l 1
 384 256 l 1
 384 384 l 1
 512 384 l 1
 512 256 l 1
 640 256 l 1
 640 640 l 1
EndSplineSet
Validated: 5
EndChar

StartChar: Wdieresis
Encoding: 7812 7812 57
Width: 1024
GlyphClass: 1
Flags: W
LayerCount: 2
Fore
SplineSet
256 896 m 1
 384 896 l 1
 384 768 l 1
 256 768 l 1
 256 896 l 1
512 896 m 1
 640 896 l 1
 640 768 l 1
 512 768 l 1
 512 896 l 1
640 640 m 1
 896 640 l 1
 896 256 l 1
 768 256 l 1
 768 0 l 1
 512 0 l 1
 512 128 l 1
 384 128 l 1
 384 0 l 1
 128 0 l 1
 128 256 l 1
 0 256 l 1
 0 640 l 1
 256 640 l 1
 256 256 l 1
 384 256 l 1
 384 384 l 1
 512 384 l 1
 512 256 l 1
 640 256 l 1
 640 640 l 1
EndSplineSet
Validated: 1
EndChar

StartChar: Wgrave
Encoding: 7808 7808 58
Width: 1024
GlyphClass: 1
Flags: W
LayerCount: 2
Fore
SplineSet
256 896 m 1
 384 896 l 1
 384 768 l 1
 256 768 l 1
 256 896 l 1
512 768 m 1
 512 640 l 1
 384 640 l 1
 384 768 l 1
 512 768 l 1
640 640 m 1
 896 640 l 1
 896 256 l 1
 768 256 l 1
 768 0 l 1
 512 0 l 1
 512 128 l 1
 384 128 l 1
 384 0 l 1
 128 0 l 1
 128 256 l 1
 0 256 l 1
 0 640 l 1
 256 640 l 1
 256 256 l 1
 384 256 l 1
 384 384 l 1
 512 384 l 1
 512 256 l 1
 640 256 l 1
 640 640 l 1
EndSplineSet
Validated: 5
EndChar

StartChar: X
Encoding: 88 88 59
Width: 1024
GlyphClass: 1
Flags: W
LayerCount: 2
Fore
SplineSet
640 896 m 1
 896 896 l 1
 896 640 l 1
 768 640 l 1
 768 512 l 1
 640 512 l 1
 640 384 l 1
 768 384 l 1
 768 256 l 1
 896 256 l 1
 896 0 l 1
 640 0 l 1
 640 256 l 1
 384 256 l 1
 384 0 l 1
 128 0 l 1
 128 256 l 1
 256 256 l 1
 256 384 l 1
 384 384 l 1
 384 512 l 1
 256 512 l 1
 256 640 l 1
 128 640 l 1
 128 896 l 1
 384 896 l 1
 384 640 l 1
 640 640 l 1
 640 896 l 1
EndSplineSet
Validated: 1
EndChar

StartChar: Y
Encoding: 89 89 60
Width: 1024
GlyphClass: 1
Flags: W
LayerCount: 2
Fore
SplineSet
640 896 m 1
 896 896 l 1
 896 512 l 1
 768 512 l 1
 768 384 l 1
 640 384 l 1
 640 0 l 1
 384 0 l 1
 384 384 l 1
 256 384 l 1
 256 512 l 1
 128 512 l 1
 128 896 l 1
 384 896 l 1
 384 512 l 1
 640 512 l 1
 640 896 l 1
EndSplineSet
Validated: 1
EndChar

StartChar: Yacute
Encoding: 221 221 61
Width: 1024
GlyphClass: 1
Flags: W
LayerCount: 2
Fore
SplineSet
512 896 m 1
 640 896 l 1
 640 768 l 1
 512 768 l 1
 512 896 l 1
384 768 m 1
 512 768 l 1
 512 640 l 1
 384 640 l 1
 384 768 l 1
640 640 m 1
 896 640 l 1
 896 384 l 1
 768 384 l 1
 768 256 l 1
 640 256 l 1
 640 0 l 1
 384 0 l 1
 384 256 l 1
 256 256 l 1
 256 384 l 1
 128 384 l 1
 128 640 l 1
 384 640 l 1
 384 384 l 1
 640 384 l 1
 640 640 l 1
EndSplineSet
Validated: 5
EndChar

StartChar: Ycircumflex
Encoding: 374 374 62
Width: 1024
GlyphClass: 1
Flags: W
LayerCount: 2
Fore
SplineSet
512 896 m 1
 640 896 l 1
 640 768 l 1
 512 768 l 1
 512 896 l 1
768 768 m 1
 768 640 l 1
 896 640 l 1
 896 384 l 1
 768 384 l 1
 768 256 l 1
 640 256 l 1
 640 0 l 1
 384 0 l 1
 384 256 l 1
 256 256 l 1
 256 384 l 1
 128 384 l 1
 128 640 l 1
 384 640 l 1
 384 384 l 1
 640 384 l 1
 640 768 l 1
 768 768 l 1
384 768 m 1
 512 768 l 1
 512 640 l 1
 384 640 l 1
 384 768 l 1
EndSplineSet
Validated: 5
EndChar

StartChar: Ydieresis
Encoding: 376 376 63
Width: 1024
GlyphClass: 1
Flags: W
LayerCount: 2
Fore
SplineSet
256 896 m 1
 384 896 l 1
 384 768 l 1
 256 768 l 1
 256 896 l 1
640 896 m 1
 768 896 l 1
 768 768 l 1
 640 768 l 1
 640 896 l 1
640 640 m 1
 896 640 l 1
 896 384 l 1
 768 384 l 1
 768 256 l 1
 640 256 l 1
 640 0 l 1
 384 0 l 1
 384 256 l 1
 256 256 l 1
 256 384 l 1
 128 384 l 1
 128 640 l 1
 384 640 l 1
 384 384 l 1
 640 384 l 1
 640 640 l 1
EndSplineSet
Validated: 1
EndChar

StartChar: Ygrave
Encoding: 7922 7922 64
Width: 1024
GlyphClass: 1
Flags: W
LayerCount: 2
Fore
SplineSet
384 768 m 1
 384 896 l 1
 512 896 l 1
 512 768 l 1
 384 768 l 1
512 640 m 1
 512 768 l 1
 640 768 l 1
 640 640 l 1
 512 640 l 1
640 640 m 1
 896 640 l 1
 896 384 l 1
 768 384 l 1
 768 256 l 1
 640 256 l 1
 640 0 l 1
 384 0 l 1
 384 256 l 1
 256 256 l 1
 256 384 l 1
 128 384 l 1
 128 640 l 1
 384 640 l 1
 384 384 l 1
 640 384 l 1
 640 640 l 1
EndSplineSet
Validated: 5
EndChar

StartChar: Z
Encoding: 90 90 65
Width: 1024
GlyphClass: 1
Flags: W
LayerCount: 2
Fore
SplineSet
896 896 m 1
 896 640 l 1
 768 640 l 1
 768 512 l 1
 640 512 l 1
 640 384 l 1
 512 384 l 1
 512 256 l 1
 384 256 l 1
 384 128 l 1
 896 128 l 1
 896 0 l 1
 128 0 l 1
 128 256 l 1
 256 256 l 1
 256 384 l 1
 384 384 l 1
 384 512 l 1
 512 512 l 1
 512 640 l 1
 640 640 l 1
 640 768 l 1
 128 768 l 1
 128 896 l 1
 896 896 l 1
EndSplineSet
Validated: 1
EndChar

StartChar: a
Encoding: 97 97 66
Width: 1024
GlyphClass: 1
Flags: W
LayerCount: 2
Fore
SplineSet
768 640 m 1
 768 512 l 1
 896 512 l 1
 896 0 l 1
 256 0 l 1
 256 128 l 1
 128 128 l 1
 128 256 l 1
 256 256 l 1
 256 384 l 1
 640 384 l 1
 640 512 l 1
 256 512 l 1
 256 640 l 1
 768 640 l 1
384 128 m 1
 640 128 l 1
 640 256 l 1
 384 256 l 1
 384 128 l 1
EndSplineSet
Validated: 1
EndChar

StartChar: aacute
Encoding: 225 225 67
Width: 1024
GlyphClass: 1
Flags: W
LayerCount: 2
Fore
SplineSet
512 896 m 1
 640 896 l 1
 640 768 l 1
 512 768 l 1
 512 896 l 1
768 640 m 1
 768 512 l 1
 896 512 l 1
 896 0 l 1
 256 0 l 1
 256 128 l 1
 128 128 l 1
 128 256 l 1
 256 256 l 1
 256 384 l 1
 640 384 l 1
 640 512 l 1
 256 512 l 1
 256 640 l 1
 384 640 l 1
 384 768 l 1
 512 768 l 1
 512 640 l 1
 768 640 l 1
384 128 m 1
 640 128 l 1
 640 256 l 1
 384 256 l 1
 384 128 l 1
EndSplineSet
Validated: 5
EndChar

StartChar: acircumflex
Encoding: 226 226 68
Width: 1024
GlyphClass: 1
Flags: W
LayerCount: 2
Fore
SplineSet
512 896 m 1
 640 896 l 1
 640 768 l 1
 512 768 l 1
 512 896 l 1
768 512 m 1
 896 512 l 1
 896 0 l 1
 256 0 l 1
 256 128 l 1
 128 128 l 1
 128 256 l 1
 256 256 l 1
 256 384 l 1
 640 384 l 1
 640 512 l 1
 256 512 l 1
 256 640 l 1
 384 640 l 1
 384 768 l 1
 512 768 l 1
 512 640 l 1
 640 640 l 1
 640 768 l 1
 768 768 l 1
 768 512 l 1
384 128 m 1
 640 128 l 1
 640 256 l 1
 384 256 l 1
 384 128 l 1
EndSplineSet
Validated: 5
EndChar

StartChar: adieresis
Encoding: 228 228 69
Width: 1024
GlyphClass: 1
Flags: W
LayerCount: 2
Fore
SplineSet
256 896 m 1
 384 896 l 1
 384 768 l 1
 256 768 l 1
 256 896 l 1
640 896 m 1
 768 896 l 1
 768 768 l 1
 640 768 l 1
 640 896 l 1
768 640 m 1
 768 512 l 1
 896 512 l 1
 896 0 l 1
 256 0 l 1
 256 128 l 1
 128 128 l 1
 128 256 l 1
 256 256 l 1
 256 384 l 1
 640 384 l 1
 640 512 l 1
 256 512 l 1
 256 640 l 1
 768 640 l 1
384 128 m 1
 640 128 l 1
 640 256 l 1
 384 256 l 1
 384 128 l 1
EndSplineSet
Validated: 1
EndChar

StartChar: agrave
Encoding: 224 224 70
Width: 1024
GlyphClass: 1
Flags: W
LayerCount: 2
Fore
SplineSet
384 768 m 1
 384 896 l 1
 512 896 l 1
 512 768 l 1
 384 768 l 1
768 640 m 1
 768 512 l 1
 896 512 l 1
 896 0 l 1
 256 0 l 1
 256 128 l 1
 128 128 l 1
 128 256 l 1
 256 256 l 1
 256 384 l 1
 640 384 l 1
 640 512 l 1
 256 512 l 1
 256 640 l 1
 512 640 l 1
 512 768 l 1
 640 768 l 1
 640 640 l 1
 768 640 l 1
384 128 m 1
 640 128 l 1
 640 256 l 1
 384 256 l 1
 384 128 l 1
EndSplineSet
Validated: 5
EndChar

StartChar: aring
Encoding: 229 229 71
Width: 1024
GlyphClass: 1
Flags: W
LayerCount: 2
Fore
SplineSet
768 640 m 1
 768 512 l 1
 896 512 l 1
 896 0 l 1
 256 0 l 1
 256 128 l 1
 128 128 l 1
 128 256 l 1
 256 256 l 1
 256 384 l 1
 640 384 l 1
 640 512 l 1
 256 512 l 1
 256 640 l 1
 384 640 l 1
 384 896 l 1
 640 896 l 1
 640 640 l 1
 768 640 l 1
384 128 m 1
 640 128 l 1
 640 256 l 1
 384 256 l 1
 384 128 l 1
EndSplineSet
Validated: 1
EndChar

StartChar: atilde
Encoding: 227 227 72
Width: 1024
GlyphClass: 1
Flags: W
LayerCount: 2
Fore
SplineSet
256 768 m 1
 256 896 l 1
 768 896 l 1
 768 768 l 1
 256 768 l 1
768 640 m 1
 768 512 l 1
 896 512 l 1
 896 0 l 1
 256 0 l 1
 256 128 l 1
 128 128 l 1
 128 256 l 1
 256 256 l 1
 256 384 l 1
 640 384 l 1
 640 512 l 1
 256 512 l 1
 256 640 l 1
 768 640 l 1
384 128 m 1
 640 128 l 1
 640 256 l 1
 384 256 l 1
 384 128 l 1
EndSplineSet
Validated: 1
EndChar

StartChar: ae
Encoding: 230 230 73
Width: 1024
GlyphClass: 1
Flags: W
LayerCount: 2
Fore
SplineSet
768 384 m 1
 768 512 l 1
 896 512 l 1
 896 256 l 1
 640 256 l 1
 640 128 l 1
 768 128 l 1
 768 0 l 1
 256 0 l 1
 256 128 l 1
 384 128 l 1
 384 256 l 1
 256 256 l 1
 256 128 l 1
 128 128 l 1
 128 384 l 1
 384 384 l 1
 384 512 l 1
 256 512 l 1
 256 640 l 1
 768 640 l 1
 768 512 l 1
 640 512 l 1
 640 384 l 1
 768 384 l 1
EndSplineSet
Validated: 5
EndChar

StartChar: b
Encoding: 98 98 74
Width: 1024
GlyphClass: 1
Flags: W
LayerCount: 2
Fore
SplineSet
768 640 m 1
 768 512 l 1
 896 512 l 1
 896 128 l 1
 768 128 l 1
 768 0 l 1
 128 0 l 1
 128 896 l 1
 384 896 l 1
 384 640 l 1
 768 640 l 1
384 128 m 1
 640 128 l 1
 640 512 l 1
 384 512 l 1
 384 128 l 1
EndSplineSet
Validated: 1
EndChar

StartChar: c
Encoding: 99 99 75
Width: 1024
GlyphClass: 1
Flags: W
LayerCount: 2
Fore
SplineSet
896 384 m 1
 640 384 l 1
 640 512 l 1
 384 512 l 1
 384 128 l 1
 640 128 l 1
 640 256 l 1
 896 256 l 1
 896 128 l 1
 768 128 l 1
 768 0 l 1
 256 0 l 1
 256 128 l 1
 128 128 l 1
 128 512 l 1
 256 512 l 1
 256 640 l 1
 768 640 l 1
 768 512 l 1
 896 512 l 1
 896 384 l 1
EndSplineSet
Validated: 1
EndChar

StartChar: ccedilla
Encoding: 231 231 76
Width: 1024
GlyphClass: 1
Flags: W
LayerCount: 2
Fore
SplineSet
896 384 m 1
 640 384 l 1
 640 512 l 1
 384 512 l 1
 384 128 l 1
 640 128 l 1
 640 256 l 1
 896 256 l 1
 896 128 l 1
 768 128 l 1
 768 0 l 1
 640 0 l 1
 640 -128 l 1
 512 -128 l 1
 512 0 l 1
 256 0 l 1
 256 128 l 1
 128 128 l 1
 128 512 l 1
 256 512 l 1
 256 640 l 1
 768 640 l 1
 768 512 l 1
 896 512 l 1
 896 384 l 1
EndSplineSet
Validated: 1
EndChar

StartChar: d
Encoding: 100 100 77
Width: 1024
GlyphClass: 1
Flags: W
LayerCount: 2
Fore
SplineSet
640 896 m 1
 896 896 l 1
 896 0 l 1
 256 0 l 1
 256 128 l 1
 128 128 l 1
 128 512 l 1
 256 512 l 1
 256 640 l 1
 640 640 l 1
 640 896 l 1
384 128 m 1
 640 128 l 1
 640 512 l 1
 384 512 l 1
 384 128 l 1
EndSplineSet
Validated: 1
EndChar

StartChar: eth
Encoding: 240 240 78
Width: 1024
GlyphClass: 1
Flags: W
LayerCount: 2
Fore
SplineSet
768 768 m 1
 1024 768 l 1
 1024 640 l 1
 896 640 l 1
 896 128 l 1
 768 128 l 1
 768 0 l 1
 256 0 l 1
 256 128 l 1
 128 128 l 1
 128 384 l 1
 256 384 l 1
 256 512 l 1
 640 512 l 1
 640 640 l 1
 384 640 l 1
 384 768 l 1
 512 768 l 1
 512 896 l 1
 768 896 l 1
 768 768 l 1
384 128 m 1
 640 128 l 1
 640 384 l 1
 384 384 l 1
 384 128 l 1
EndSplineSet
Validated: 1
EndChar

StartChar: e
Encoding: 101 101 79
Width: 1024
GlyphClass: 1
Flags: W
LayerCount: 2
Fore
SplineSet
768 640 m 1
 768 512 l 1
 896 512 l 1
 896 256 l 1
 384 256 l 1
 384 128 l 1
 768 128 l 1
 768 0 l 1
 256 0 l 1
 256 128 l 1
 128 128 l 1
 128 512 l 1
 256 512 l 1
 256 640 l 1
 768 640 l 1
384 384 m 1
 640 384 l 1
 640 512 l 1
 384 512 l 1
 384 384 l 1
EndSplineSet
Validated: 1
EndChar

StartChar: eacute
Encoding: 233 233 80
Width: 1024
GlyphClass: 1
Flags: W
LayerCount: 2
Fore
SplineSet
512 896 m 1
 640 896 l 1
 640 768 l 1
 512 768 l 1
 512 896 l 1
768 640 m 1
 768 512 l 1
 896 512 l 1
 896 256 l 1
 384 256 l 1
 384 128 l 1
 768 128 l 1
 768 0 l 1
 256 0 l 1
 256 128 l 1
 128 128 l 1
 128 512 l 1
 256 512 l 1
 256 640 l 1
 384 640 l 1
 384 768 l 1
 512 768 l 1
 512 640 l 1
 768 640 l 1
384 384 m 1
 640 384 l 1
 640 512 l 1
 384 512 l 1
 384 384 l 1
EndSplineSet
Validated: 5
EndChar

StartChar: ecircumflex
Encoding: 234 234 81
Width: 1024
GlyphClass: 1
Flags: W
LayerCount: 2
Fore
SplineSet
512 896 m 1
 640 896 l 1
 640 768 l 1
 512 768 l 1
 512 896 l 1
768 512 m 1
 896 512 l 1
 896 256 l 1
 384 256 l 1
 384 128 l 1
 768 128 l 1
 768 0 l 1
 256 0 l 1
 256 128 l 1
 128 128 l 1
 128 512 l 1
 256 512 l 1
 256 640 l 1
 384 640 l 1
 384 768 l 1
 512 768 l 1
 512 640 l 1
 640 640 l 1
 640 768 l 1
 768 768 l 1
 768 512 l 1
384 384 m 1
 640 384 l 1
 640 512 l 1
 384 512 l 1
 384 384 l 1
EndSplineSet
Validated: 5
EndChar

StartChar: edieresis
Encoding: 235 235 82
Width: 1024
GlyphClass: 1
Flags: W
LayerCount: 2
Fore
SplineSet
256 896 m 1
 384 896 l 1
 384 768 l 1
 256 768 l 1
 256 896 l 1
640 896 m 1
 768 896 l 1
 768 768 l 1
 640 768 l 1
 640 896 l 1
768 640 m 1
 768 512 l 1
 896 512 l 1
 896 256 l 1
 384 256 l 1
 384 128 l 1
 768 128 l 1
 768 0 l 1
 256 0 l 1
 256 128 l 1
 128 128 l 1
 128 512 l 1
 256 512 l 1
 256 640 l 1
 768 640 l 1
384 384 m 1
 640 384 l 1
 640 512 l 1
 384 512 l 1
 384 384 l 1
EndSplineSet
Validated: 1
EndChar

StartChar: egrave
Encoding: 232 232 83
Width: 1024
GlyphClass: 1
Flags: W
LayerCount: 2
Fore
SplineSet
384 768 m 1
 384 896 l 1
 512 896 l 1
 512 768 l 1
 384 768 l 1
768 640 m 1
 768 512 l 1
 896 512 l 1
 896 256 l 1
 384 256 l 1
 384 128 l 1
 768 128 l 1
 768 0 l 1
 256 0 l 1
 256 128 l 1
 128 128 l 1
 128 512 l 1
 256 512 l 1
 256 640 l 1
 512 640 l 1
 512 768 l 1
 640 768 l 1
 640 640 l 1
 768 640 l 1
384 384 m 1
 640 384 l 1
 640 512 l 1
 384 512 l 1
 384 384 l 1
EndSplineSet
Validated: 5
EndChar

StartChar: f
Encoding: 102 102 84
Width: 1024
GlyphClass: 1
Flags: W
LayerCount: 2
Fore
SplineSet
1024 896 m 1
 1024 768 l 1
 640 768 l 1
 640 512 l 1
 896 512 l 1
 896 384 l 1
 640 384 l 1
 640 0 l 1
 384 0 l 1
 384 384 l 1
 256 384 l 1
 256 512 l 1
 384 512 l 1
 384 768 l 1
 512 768 l 1
 512 896 l 1
 1024 896 l 1
EndSplineSet
Validated: 1
EndChar

StartChar: g
Encoding: 103 103 85
Width: 1024
GlyphClass: 1
Flags: W
LayerCount: 2
Fore
SplineSet
896 640 m 1
 896 0 l 1
 768 0 l 1
 768 -128 l 1
 256 -128 l 1
 256 0 l 1
 640 0 l 1
 640 128 l 1
 256 128 l 1
 256 256 l 1
 128 256 l 1
 128 512 l 1
 256 512 l 1
 256 640 l 1
 896 640 l 1
384 256 m 1
 640 256 l 1
 640 512 l 1
 384 512 l 1
 384 256 l 1
EndSplineSet
Validated: 1
EndChar

StartChar: h
Encoding: 104 104 86
Width: 1024
GlyphClass: 1
Flags: W
LayerCount: 2
Fore
SplineSet
768 640 m 1
 768 512 l 1
 896 512 l 1
 896 0 l 1
 640 0 l 1
 640 512 l 1
 384 512 l 1
 384 0 l 1
 128 0 l 1
 128 896 l 1
 384 896 l 1
 384 640 l 1
 768 640 l 1
EndSplineSet
Validated: 1
EndChar

StartChar: i
Encoding: 105 105 87
Width: 1024
GlyphClass: 1
Flags: W
LayerCount: 2
Fore
SplineSet
640 896 m 1
 640 768 l 1
 384 768 l 1
 384 896 l 1
 640 896 l 1
640 128 m 1
 768 128 l 1
 768 0 l 1
 512 0 l 1
 512 128 l 1
 384 128 l 1
 384 640 l 1
 640 640 l 1
 640 128 l 1
EndSplineSet
Validated: 1
EndChar

StartChar: dotlessi
Encoding: 305 305 88
Width: 1024
GlyphClass: 1
Flags: W
LayerCount: 2
Fore
SplineSet
640 128 m 1
 768 128 l 1
 768 0 l 1
 512 0 l 1
 512 128 l 1
 384 128 l 1
 384 640 l 1
 640 640 l 1
 640 128 l 1
EndSplineSet
Validated: 1
EndChar

StartChar: iacute
Encoding: 237 237 89
Width: 1024
GlyphClass: 1
Flags: W
LayerCount: 2
Fore
SplineSet
512 896 m 1
 640 896 l 1
 640 768 l 1
 512 768 l 1
 512 896 l 1
640 128 m 1
 768 128 l 1
 768 0 l 1
 512 0 l 1
 512 128 l 1
 384 128 l 1
 384 768 l 1
 512 768 l 1
 512 640 l 1
 640 640 l 1
 640 128 l 1
EndSplineSet
Validated: 5
EndChar

StartChar: icircumflex
Encoding: 238 238 90
Width: 1024
GlyphClass: 1
Flags: W
LayerCount: 2
Fore
SplineSet
512 896 m 1
 640 896 l 1
 640 768 l 1
 512 768 l 1
 512 896 l 1
640 128 m 1
 768 128 l 1
 768 0 l 1
 512 0 l 1
 512 128 l 1
 384 128 l 1
 384 768 l 1
 512 768 l 1
 512 640 l 1
 640 640 l 1
 640 128 l 1
768 768 m 1
 768 640 l 1
 640 640 l 1
 640 768 l 1
 768 768 l 1
EndSplineSet
Validated: 5
EndChar

StartChar: idieresis
Encoding: 239 239 91
Width: 1024
GlyphClass: 1
Flags: W
LayerCount: 2
Fore
SplineSet
256 896 m 1
 384 896 l 1
 384 768 l 1
 256 768 l 1
 256 896 l 1
640 768 m 1
 640 896 l 1
 768 896 l 1
 768 768 l 1
 640 768 l 1
640 128 m 1
 768 128 l 1
 768 0 l 1
 512 0 l 1
 512 128 l 1
 384 128 l 1
 384 640 l 1
 640 640 l 1
 640 128 l 1
EndSplineSet
Validated: 1
EndChar

StartChar: igrave
Encoding: 236 236 92
Width: 1024
GlyphClass: 1
Flags: W
LayerCount: 2
Fore
SplineSet
384 768 m 1
 384 896 l 1
 512 896 l 1
 512 768 l 1
 384 768 l 1
640 128 m 1
 768 128 l 1
 768 0 l 1
 512 0 l 1
 512 128 l 1
 384 128 l 1
 384 640 l 1
 512 640 l 1
 512 768 l 1
 640 768 l 1
 640 128 l 1
EndSplineSet
Validated: 5
EndChar

StartChar: j
Encoding: 106 106 93
Width: 1024
GlyphClass: 1
Flags: W
LayerCount: 2
Fore
SplineSet
640 896 m 1
 896 896 l 1
 896 768 l 1
 640 768 l 1
 640 896 l 1
512 640 m 1
 896 640 l 1
 896 0 l 1
 768 0 l 1
 768 -128 l 1
 256 -128 l 1
 256 0 l 1
 640 0 l 1
 640 512 l 1
 512 512 l 1
 512 640 l 1
EndSplineSet
Validated: 1
EndChar

StartChar: k
Encoding: 107 107 94
Width: 1024
GlyphClass: 1
Flags: W
LayerCount: 2
Fore
SplineSet
768 512 m 1
 768 384 l 1
 640 384 l 1
 640 256 l 1
 768 256 l 1
 768 128 l 1
 896 128 l 1
 896 0 l 1
 640 0 l 1
 640 128 l 1
 512 128 l 1
 512 256 l 1
 384 256 l 1
 384 0 l 1
 128 0 l 1
 128 896 l 1
 384 896 l 1
 384 384 l 1
 512 384 l 1
 512 512 l 1
 640 512 l 1
 640 640 l 1
 896 640 l 1
 896 512 l 1
 768 512 l 1
EndSplineSet
Validated: 1
EndChar

StartChar: l
Encoding: 108 108 95
Width: 1024
GlyphClass: 1
Flags: W
LayerCount: 2
Fore
SplineSet
640 128 m 1
 768 128 l 1
 768 0 l 1
 512 0 l 1
 512 128 l 1
 384 128 l 1
 384 896 l 1
 640 896 l 1
 640 128 l 1
EndSplineSet
Validated: 1
EndChar

StartChar: m
Encoding: 109 109 96
Width: 1024
GlyphClass: 1
Flags: W
LayerCount: 2
Fore
SplineSet
768 640 m 1
 768 512 l 1
 896 512 l 1
 896 0 l 1
 640 0 l 1
 640 384 l 1
 512 384 l 1
 512 0 l 1
 384 0 l 1
 384 384 l 1
 256 384 l 1
 256 0 l 1
 0 0 l 1
 0 640 l 1
 384 640 l 1
 384 512 l 1
 512 512 l 1
 512 640 l 1
 768 640 l 1
EndSplineSet
Validated: 1
EndChar

StartChar: n
Encoding: 110 110 97
Width: 1024
GlyphClass: 1
Flags: W
LayerCount: 2
Fore
SplineSet
768 640 m 1
 768 512 l 1
 896 512 l 1
 896 0 l 1
 640 0 l 1
 640 512 l 1
 384 512 l 1
 384 0 l 1
 128 0 l 1
 128 640 l 1
 768 640 l 1
EndSplineSet
Validated: 1
EndChar

StartChar: ntilde
Encoding: 241 241 98
Width: 1024
GlyphClass: 1
Flags: W
LayerCount: 2
Fore
SplineSet
256 768 m 1
 256 896 l 1
 768 896 l 1
 768 768 l 1
 256 768 l 1
768 640 m 1
 768 512 l 1
 896 512 l 1
 896 0 l 1
 640 0 l 1
 640 512 l 1
 384 512 l 1
 384 0 l 1
 128 0 l 1
 128 640 l 1
 768 640 l 1
EndSplineSet
Validated: 1
EndChar

StartChar: o
Encoding: 111 111 99
Width: 1024
GlyphClass: 1
Flags: W
LayerCount: 2
Fore
SplineSet
768 640 m 1
 768 512 l 1
 896 512 l 1
 896 128 l 1
 768 128 l 1
 768 0 l 1
 256 0 l 1
 256 128 l 1
 128 128 l 1
 128 512 l 1
 256 512 l 1
 256 640 l 1
 768 640 l 1
384 128 m 1
 640 128 l 1
 640 512 l 1
 384 512 l 1
 384 128 l 1
EndSplineSet
Validated: 1
EndChar

StartChar: oacute
Encoding: 243 243 100
Width: 1024
GlyphClass: 1
Flags: W
LayerCount: 2
Fore
SplineSet
512 896 m 1
 640 896 l 1
 640 768 l 1
 512 768 l 1
 512 896 l 1
768 640 m 1
 768 512 l 1
 896 512 l 1
 896 128 l 1
 768 128 l 1
 768 0 l 1
 256 0 l 1
 256 128 l 1
 128 128 l 1
 128 512 l 1
 256 512 l 1
 256 640 l 1
 384 640 l 1
 384 768 l 1
 512 768 l 1
 512 640 l 1
 768 640 l 1
384 128 m 1
 640 128 l 1
 640 512 l 1
 384 512 l 1
 384 128 l 1
EndSplineSet
Validated: 5
EndChar

StartChar: ocircumflex
Encoding: 244 244 101
Width: 1024
GlyphClass: 1
Flags: W
LayerCount: 2
Fore
SplineSet
512 896 m 1
 640 896 l 1
 640 768 l 1
 512 768 l 1
 512 896 l 1
768 512 m 1
 896 512 l 1
 896 128 l 1
 768 128 l 1
 768 0 l 1
 256 0 l 1
 256 128 l 1
 128 128 l 1
 128 512 l 1
 256 512 l 1
 256 640 l 1
 384 640 l 1
 384 768 l 1
 512 768 l 1
 512 640 l 1
 640 640 l 1
 640 768 l 1
 768 768 l 1
 768 512 l 1
384 128 m 1
 640 128 l 1
 640 512 l 1
 384 512 l 1
 384 128 l 1
EndSplineSet
Validated: 5
EndChar

StartChar: odieresis
Encoding: 246 246 102
Width: 1024
GlyphClass: 1
Flags: W
LayerCount: 2
Fore
SplineSet
256 896 m 1
 384 896 l 1
 384 768 l 1
 256 768 l 1
 256 896 l 1
640 896 m 1
 768 896 l 1
 768 768 l 1
 640 768 l 1
 640 896 l 1
768 640 m 1
 768 512 l 1
 896 512 l 1
 896 128 l 1
 768 128 l 1
 768 0 l 1
 256 0 l 1
 256 128 l 1
 128 128 l 1
 128 512 l 1
 256 512 l 1
 256 640 l 1
 768 640 l 1
384 128 m 1
 640 128 l 1
 640 512 l 1
 384 512 l 1
 384 128 l 1
EndSplineSet
Validated: 1
EndChar

StartChar: ograve
Encoding: 242 242 103
Width: 1024
GlyphClass: 1
Flags: W
LayerCount: 2
Fore
SplineSet
384 768 m 1
 384 896 l 1
 512 896 l 1
 512 768 l 1
 384 768 l 1
768 640 m 1
 768 512 l 1
 896 512 l 1
 896 128 l 1
 768 128 l 1
 768 0 l 1
 256 0 l 1
 256 128 l 1
 128 128 l 1
 128 512 l 1
 256 512 l 1
 256 640 l 1
 512 640 l 1
 512 768 l 1
 640 768 l 1
 640 640 l 1
 768 640 l 1
384 128 m 1
 640 128 l 1
 640 512 l 1
 384 512 l 1
 384 128 l 1
EndSplineSet
Validated: 5
EndChar

StartChar: oslash
Encoding: 248 248 104
Width: 1024
GlyphClass: 1
Flags: W
LayerCount: 2
Fore
SplineSet
768 640 m 1
 768 512 l 1
 896 512 l 1
 896 128 l 1
 768 128 l 1
 768 0 l 1
 256 0 l 1
 256 128 l 1
 128 128 l 1
 128 512 l 1
 256 512 l 1
 256 640 l 1
 768 640 l 1
384 128 m 1
 640 128 l 1
 640 384 l 1
 512 384 l 1
 512 512 l 1
 384 512 l 1
 384 384 l 1
 512 384 l 1
 512 256 l 1
 384 256 l 1
 384 128 l 1
EndSplineSet
Validated: 5
EndChar

StartChar: otilde
Encoding: 245 245 105
Width: 1024
GlyphClass: 1
Flags: W
LayerCount: 2
Fore
SplineSet
256 768 m 1
 256 896 l 1
 768 896 l 1
 768 768 l 1
 256 768 l 1
768 640 m 1
 768 512 l 1
 896 512 l 1
 896 128 l 1
 768 128 l 1
 768 0 l 1
 256 0 l 1
 256 128 l 1
 128 128 l 1
 128 512 l 1
 256 512 l 1
 256 640 l 1
 768 640 l 1
384 128 m 1
 640 128 l 1
 640 512 l 1
 384 512 l 1
 384 128 l 1
EndSplineSet
Validated: 1
EndChar

StartChar: oe
Encoding: 339 339 106
Width: 1024
GlyphClass: 1
Flags: W
LayerCount: 2
Fore
SplineSet
768 384 m 1
 768 512 l 1
 896 512 l 1
 896 256 l 1
 640 256 l 1
 640 128 l 1
 768 128 l 1
 768 0 l 1
 256 0 l 1
 256 128 l 1
 384 128 l 1
 384 512 l 1
 256 512 l 1
 256 640 l 1
 768 640 l 1
 768 512 l 1
 640 512 l 1
 640 384 l 1
 768 384 l 1
256 512 m 1
 256 128 l 1
 128 128 l 1
 128 512 l 1
 256 512 l 1
EndSplineSet
Validated: 5
EndChar

StartChar: p
Encoding: 112 112 107
Width: 1024
GlyphClass: 1
Flags: W
LayerCount: 2
Fore
SplineSet
768 640 m 1
 768 512 l 1
 896 512 l 1
 896 256 l 1
 768 256 l 1
 768 128 l 1
 384 128 l 1
 384 -128 l 1
 128 -128 l 1
 128 640 l 1
 768 640 l 1
384 256 m 1
 640 256 l 1
 640 512 l 1
 384 512 l 1
 384 256 l 1
EndSplineSet
Validated: 1
EndChar

StartChar: thorn
Encoding: 254 254 108
Width: 1024
GlyphClass: 1
Flags: W
LayerCount: 2
Fore
SplineSet
768 512 m 1
 768 384 l 1
 896 384 l 1
 896 256 l 1
 768 256 l 1
 768 128 l 1
 512 128 l 1
 512 0 l 1
 256 0 l 1
 256 640 l 1
 512 640 l 1
 512 512 l 1
 768 512 l 1
512 384 m 1
 512 256 l 1
 640 256 l 1
 640 384 l 1
 512 384 l 1
EndSplineSet
Validated: 1
EndChar

StartChar: q
Encoding: 113 113 109
Width: 1024
GlyphClass: 1
Flags: W
LayerCount: 2
Fore
SplineSet
768 640 m 1
 768 512 l 1
 896 512 l 1
 896 -128 l 1
 640 -128 l 1
 640 128 l 1
 256 128 l 1
 256 256 l 1
 128 256 l 1
 128 512 l 1
 256 512 l 1
 256 640 l 1
 768 640 l 1
384 256 m 1
 640 256 l 1
 640 512 l 1
 384 512 l 1
 384 256 l 1
EndSplineSet
Validated: 1
EndChar

StartChar: r
Encoding: 114 114 110
Width: 1024
GlyphClass: 1
Flags: W
LayerCount: 2
Fore
SplineSet
768 640 m 1
 768 512 l 1
 896 512 l 1
 896 384 l 1
 640 384 l 1
 640 512 l 1
 384 512 l 1
 384 0 l 1
 128 0 l 1
 128 640 l 1
 768 640 l 1
EndSplineSet
Validated: 1
EndChar

StartChar: s
Encoding: 115 115 111
Width: 1024
GlyphClass: 1
Flags: W
LayerCount: 2
Fore
SplineSet
384 512 m 1
 384 384 l 1
 768 384 l 1
 768 256 l 1
 896 256 l 1
 896 128 l 1
 768 128 l 1
 768 0 l 1
 128 0 l 1
 128 128 l 1
 640 128 l 1
 640 256 l 1
 256 256 l 1
 256 384 l 1
 128 384 l 1
 128 512 l 1
 256 512 l 1
 256 640 l 1
 896 640 l 1
 896 512 l 1
 384 512 l 1
EndSplineSet
Validated: 1
EndChar

StartChar: germandbls
Encoding: 223 223 112
Width: 1024
GlyphClass: 1
Flags: W
LayerCount: 2
Fore
SplineSet
896 512 m 1
 896 384 l 1
 768 384 l 1
 768 256 l 1
 896 256 l 1
 896 128 l 1
 768 128 l 1
 768 0 l 1
 512 0 l 1
 512 128 l 1
 640 128 l 1
 640 256 l 1
 512 256 l 1
 512 384 l 1
 640 384 l 1
 640 512 l 1
 384 512 l 1
 384 -128 l 1
 128 -128 l 1
 128 640 l 1
 768 640 l 1
 768 512 l 1
 896 512 l 1
EndSplineSet
Validated: 1
EndChar

StartChar: t
Encoding: 116 116 113
Width: 1024
GlyphClass: 1
Flags: W
LayerCount: 2
Fore
SplineSet
640 512 m 1
 640 128 l 1
 896 128 l 1
 896 0 l 1
 512 0 l 1
 512 128 l 1
 384 128 l 1
 384 512 l 1
 128 512 l 1
 128 640 l 1
 384 640 l 1
 384 896 l 1
 640 896 l 1
 640 640 l 1
 896 640 l 1
 896 512 l 1
 640 512 l 1
EndSplineSet
Validated: 1
EndChar

StartChar: u
Encoding: 117 117 114
Width: 1024
GlyphClass: 1
Flags: W
LayerCount: 2
Fore
SplineSet
640 640 m 1
 896 640 l 1
 896 0 l 1
 256 0 l 1
 256 128 l 1
 128 128 l 1
 128 640 l 1
 384 640 l 1
 384 128 l 1
 640 128 l 1
 640 640 l 1
EndSplineSet
Validated: 1
EndChar

StartChar: uacute
Encoding: 250 250 115
Width: 1024
GlyphClass: 1
Flags: W
LayerCount: 2
Fore
SplineSet
512 896 m 1
 640 896 l 1
 640 768 l 1
 512 768 l 1
 512 896 l 1
384 768 m 1
 512 768 l 1
 512 640 l 1
 384 640 l 1
 384 768 l 1
640 640 m 1
 896 640 l 1
 896 0 l 1
 256 0 l 1
 256 128 l 1
 128 128 l 1
 128 640 l 1
 384 640 l 1
 384 128 l 1
 640 128 l 1
 640 640 l 1
EndSplineSet
Validated: 5
EndChar

StartChar: ucircumflex
Encoding: 251 251 116
Width: 1024
GlyphClass: 1
Flags: W
LayerCount: 2
Fore
SplineSet
512 896 m 1
 640 896 l 1
 640 768 l 1
 512 768 l 1
 512 896 l 1
768 768 m 1
 768 640 l 1
 896 640 l 1
 896 0 l 1
 256 0 l 1
 256 128 l 1
 128 128 l 1
 128 640 l 1
 384 640 l 1
 384 128 l 1
 640 128 l 1
 640 768 l 1
 768 768 l 1
384 768 m 1
 512 768 l 1
 512 640 l 1
 384 640 l 1
 384 768 l 1
EndSplineSet
Validated: 5
EndChar

StartChar: udieresis
Encoding: 252 252 117
Width: 1024
GlyphClass: 1
Flags: W
LayerCount: 2
Fore
SplineSet
256 896 m 1
 384 896 l 1
 384 768 l 1
 256 768 l 1
 256 896 l 1
640 896 m 1
 768 896 l 1
 768 768 l 1
 640 768 l 1
 640 896 l 1
640 640 m 1
 896 640 l 1
 896 0 l 1
 256 0 l 1
 256 128 l 1
 128 128 l 1
 128 640 l 1
 384 640 l 1
 384 128 l 1
 640 128 l 1
 640 640 l 1
EndSplineSet
Validated: 1
EndChar

StartChar: ugrave
Encoding: 249 249 118
Width: 1024
GlyphClass: 1
Flags: W
LayerCount: 2
Fore
SplineSet
384 768 m 1
 384 896 l 1
 512 896 l 1
 512 768 l 1
 384 768 l 1
512 640 m 1
 512 768 l 1
 640 768 l 1
 640 640 l 1
 512 640 l 1
640 640 m 1
 896 640 l 1
 896 0 l 1
 256 0 l 1
 256 128 l 1
 128 128 l 1
 128 640 l 1
 384 640 l 1
 384 128 l 1
 640 128 l 1
 640 640 l 1
EndSplineSet
Validated: 5
EndChar

StartChar: v
Encoding: 118 118 119
Width: 1024
GlyphClass: 1
Flags: W
LayerCount: 2
Fore
SplineSet
640 640 m 1
 896 640 l 1
 896 256 l 1
 768 256 l 1
 768 128 l 1
 640 128 l 1
 640 0 l 1
 384 0 l 1
 384 128 l 1
 256 128 l 1
 256 256 l 1
 128 256 l 1
 128 640 l 1
 384 640 l 1
 384 256 l 1
 640 256 l 1
 640 640 l 1
EndSplineSet
Validated: 1
EndChar

StartChar: w
Encoding: 119 119 120
Width: 1024
GlyphClass: 1
Flags: W
LayerCount: 2
Fore
SplineSet
256 128 m 1
 384 128 l 1
 384 0 l 1
 128 0 l 1
 128 128 l 1
 0 128 l 1
 0 640 l 1
 256 640 l 1
 256 128 l 1
640 640 m 1
 896 640 l 1
 896 128 l 1
 768 128 l 1
 768 0 l 1
 512 0 l 1
 512 128 l 1
 640 128 l 1
 640 640 l 1
384 384 m 1
 512 384 l 1
 512 128 l 1
 384 128 l 1
 384 384 l 1
EndSplineSet
Validated: 5
EndChar

StartChar: wacute
Encoding: 7811 7811 121
Width: 1024
GlyphClass: 1
Flags: W
LayerCount: 2
Fore
SplineSet
512 896 m 1
 640 896 l 1
 640 768 l 1
 512 768 l 1
 512 896 l 1
384 768 m 1
 512 768 l 1
 512 640 l 1
 384 640 l 1
 384 768 l 1
256 128 m 1
 384 128 l 1
 384 0 l 1
 128 0 l 1
 128 128 l 1
 0 128 l 1
 0 640 l 1
 256 640 l 1
 256 128 l 1
640 640 m 1
 896 640 l 1
 896 128 l 1
 768 128 l 1
 768 0 l 1
 512 0 l 1
 512 128 l 1
 640 128 l 1
 640 640 l 1
384 384 m 1
 512 384 l 1
 512 128 l 1
 384 128 l 1
 384 384 l 1
EndSplineSet
Validated: 5
EndChar

StartChar: wcircumflex
Encoding: 373 373 122
Width: 1024
GlyphClass: 1
Flags: W
LayerCount: 2
Fore
SplineSet
384 896 m 1
 512 896 l 1
 512 768 l 1
 384 768 l 1
 384 896 l 1
256 768 m 1
 384 768 l 1
 384 640 l 1
 256 640 l 1
 256 768 l 1
640 768 m 1
 640 640 l 1
 512 640 l 1
 512 768 l 1
 640 768 l 1
256 128 m 1
 384 128 l 1
 384 0 l 1
 128 0 l 1
 128 128 l 1
 0 128 l 1
 0 640 l 1
 256 640 l 1
 256 128 l 1
640 640 m 1
 896 640 l 1
 896 128 l 1
 768 128 l 1
 768 0 l 1
 512 0 l 1
 512 128 l 1
 640 128 l 1
 640 640 l 1
384 384 m 1
 512 384 l 1
 512 128 l 1
 384 128 l 1
 384 384 l 1
EndSplineSet
Validated: 5
EndChar

StartChar: wdieresis
Encoding: 7813 7813 123
Width: 1024
GlyphClass: 1
Flags: W
LayerCount: 2
Fore
SplineSet
256 896 m 1
 384 896 l 1
 384 768 l 1
 256 768 l 1
 256 896 l 1
512 896 m 1
 640 896 l 1
 640 768 l 1
 512 768 l 1
 512 896 l 1
256 128 m 1
 384 128 l 1
 384 0 l 1
 128 0 l 1
 128 128 l 1
 0 128 l 1
 0 640 l 1
 256 640 l 1
 256 128 l 1
640 640 m 1
 896 640 l 1
 896 128 l 1
 768 128 l 1
 768 0 l 1
 512 0 l 1
 512 128 l 1
 640 128 l 1
 640 640 l 1
384 384 m 1
 512 384 l 1
 512 128 l 1
 384 128 l 1
 384 384 l 1
EndSplineSet
Validated: 5
EndChar

StartChar: wgrave
Encoding: 7809 7809 124
Width: 1024
GlyphClass: 1
Flags: W
LayerCount: 2
Fore
SplineSet
384 768 m 1
 384 896 l 1
 512 896 l 1
 512 768 l 1
 384 768 l 1
512 640 m 1
 512 768 l 1
 640 768 l 1
 640 640 l 1
 512 640 l 1
256 128 m 1
 384 128 l 1
 384 0 l 1
 128 0 l 1
 128 128 l 1
 0 128 l 1
 0 640 l 1
 256 640 l 1
 256 128 l 1
640 640 m 1
 896 640 l 1
 896 128 l 1
 768 128 l 1
 768 0 l 1
 512 0 l 1
 512 128 l 1
 640 128 l 1
 640 640 l 1
384 384 m 1
 512 384 l 1
 512 128 l 1
 384 128 l 1
 384 384 l 1
EndSplineSet
Validated: 5
EndChar

StartChar: x
Encoding: 120 120 125
Width: 1024
GlyphClass: 1
Flags: W
LayerCount: 2
Fore
SplineSet
768 512 m 1
 768 384 l 1
 640 384 l 1
 640 256 l 1
 768 256 l 1
 768 128 l 1
 896 128 l 1
 896 0 l 1
 640 0 l 1
 640 128 l 1
 384 128 l 1
 384 0 l 1
 128 0 l 1
 128 128 l 1
 256 128 l 1
 256 256 l 1
 384 256 l 1
 384 384 l 1
 256 384 l 1
 256 512 l 1
 128 512 l 1
 128 640 l 1
 384 640 l 1
 384 512 l 1
 640 512 l 1
 640 640 l 1
 896 640 l 1
 896 512 l 1
 768 512 l 1
EndSplineSet
Validated: 1
EndChar

StartChar: y
Encoding: 121 121 126
Width: 1024
GlyphClass: 1
Flags: W
LayerCount: 2
Fore
SplineSet
640 640 m 1
 896 640 l 1
 896 0 l 1
 768 0 l 1
 768 -128 l 1
 256 -128 l 1
 256 0 l 1
 640 0 l 1
 640 128 l 1
 256 128 l 1
 256 256 l 1
 128 256 l 1
 128 640 l 1
 384 640 l 1
 384 256 l 1
 640 256 l 1
 640 640 l 1
EndSplineSet
Validated: 1
EndChar

StartChar: yacute
Encoding: 253 253 127
Width: 1024
GlyphClass: 1
Flags: W
LayerCount: 2
Fore
SplineSet
512 896 m 1
 640 896 l 1
 640 768 l 1
 512 768 l 1
 512 896 l 1
384 768 m 1
 512 768 l 1
 512 640 l 1
 384 640 l 1
 384 768 l 1
640 640 m 1
 896 640 l 1
 896 0 l 1
 768 0 l 1
 768 -128 l 1
 256 -128 l 1
 256 0 l 1
 640 0 l 1
 640 128 l 1
 256 128 l 1
 256 256 l 1
 128 256 l 1
 128 640 l 1
 384 640 l 1
 384 256 l 1
 640 256 l 1
 640 640 l 1
EndSplineSet
Validated: 5
EndChar

StartChar: ycircumflex
Encoding: 375 375 128
Width: 1024
GlyphClass: 1
Flags: W
LayerCount: 2
Fore
SplineSet
512 896 m 1
 640 896 l 1
 640 768 l 1
 512 768 l 1
 512 896 l 1
768 768 m 1
 768 640 l 1
 896 640 l 1
 896 0 l 1
 768 0 l 1
 768 -128 l 1
 256 -128 l 1
 256 0 l 1
 640 0 l 1
 640 128 l 1
 256 128 l 1
 256 256 l 1
 128 256 l 1
 128 640 l 1
 384 640 l 1
 384 256 l 1
 640 256 l 1
 640 768 l 1
 768 768 l 1
384 768 m 1
 512 768 l 1
 512 640 l 1
 384 640 l 1
 384 768 l 1
EndSplineSet
Validated: 5
EndChar

StartChar: ydieresis
Encoding: 255 255 129
Width: 1024
GlyphClass: 1
Flags: W
LayerCount: 2
Fore
SplineSet
256 896 m 1
 384 896 l 1
 384 768 l 1
 256 768 l 1
 256 896 l 1
640 896 m 1
 768 896 l 1
 768 768 l 1
 640 768 l 1
 640 896 l 1
640 640 m 1
 896 640 l 1
 896 0 l 1
 768 0 l 1
 768 -128 l 1
 256 -128 l 1
 256 0 l 1
 640 0 l 1
 640 128 l 1
 256 128 l 1
 256 256 l 1
 128 256 l 1
 128 640 l 1
 384 640 l 1
 384 256 l 1
 640 256 l 1
 640 640 l 1
EndSplineSet
Validated: 1
EndChar

StartChar: ygrave
Encoding: 7923 7923 130
Width: 1024
GlyphClass: 1
Flags: W
LayerCount: 2
Fore
SplineSet
384 768 m 1
 384 896 l 1
 512 896 l 1
 512 768 l 1
 384 768 l 1
512 640 m 1
 512 768 l 1
 640 768 l 1
 640 640 l 1
 512 640 l 1
640 640 m 1
 896 640 l 1
 896 0 l 1
 768 0 l 1
 768 -128 l 1
 256 -128 l 1
 256 0 l 1
 640 0 l 1
 640 128 l 1
 256 128 l 1
 256 256 l 1
 128 256 l 1
 128 640 l 1
 384 640 l 1
 384 256 l 1
 640 256 l 1
 640 640 l 1
EndSplineSet
Validated: 5
EndChar

StartChar: z
Encoding: 122 122 131
Width: 1024
GlyphClass: 1
Flags: W
LayerCount: 2
Fore
SplineSet
640 384 m 1
 640 256 l 1
 512 256 l 1
 512 128 l 1
 896 128 l 1
 896 0 l 1
 128 0 l 1
 128 128 l 1
 256 128 l 1
 256 256 l 1
 384 256 l 1
 384 384 l 1
 512 384 l 1
 512 512 l 1
 128 512 l 1
 128 640 l 1
 896 640 l 1
 896 512 l 1
 768 512 l 1
 768 384 l 1
 640 384 l 1
EndSplineSet
Validated: 1
EndChar

StartChar: fi
Encoding: 64257 64257 132
Width: 1024
GlyphClass: 3
Flags: W
LayerCount: 2
Fore
SplineSet
896 640 m 1
 640 640 l 1
 640 768 l 1
 384 768 l 1
 384 512 l 1
 768 512 l 1
 768 128 l 1
 896 128 l 1
 896 0 l 1
 640 0 l 1
 640 128 l 1
 512 128 l 1
 512 384 l 1
 384 384 l 1
 384 0 l 1
 128 0 l 1
 128 384 l 1
 0 384 l 1
 0 512 l 1
 128 512 l 1
 128 768 l 1
 256 768 l 1
 256 896 l 1
 768 896 l 1
 768 768 l 1
 896 768 l 1
 896 640 l 1
EndSplineSet
Validated: 1
Ligature2: "'liga' Ligaduras est+AOEA-ndar b+APoA-squeda 1 subtabla" f i
EndChar

StartChar: fl
Encoding: 64258 64258 133
Width: 1024
GlyphClass: 3
Flags: W
LayerCount: 2
Fore
SplineSet
896 128 m 1
 1024 128 l 1
 1024 0 l 1
 768 0 l 1
 768 128 l 1
 640 128 l 1
 640 768 l 1
 384 768 l 1
 384 512 l 1
 512 512 l 1
 512 384 l 1
 384 384 l 1
 384 0 l 1
 128 0 l 1
 128 384 l 1
 0 384 l 1
 0 512 l 1
 128 512 l 1
 128 768 l 1
 256 768 l 1
 256 896 l 1
 768 896 l 1
 768 768 l 1
 896 768 l 1
 896 128 l 1
EndSplineSet
Validated: 1
Ligature2: "'liga' Ligaduras est+AOEA-ndar b+APoA-squeda 1 subtabla" f l
EndChar

StartChar: ordfeminine
Encoding: 170 170 134
Width: 1024
GlyphClass: 1
Flags: W
LayerCount: 2
Fore
SplineSet
640 896 m 1
 896 896 l 1
 896 512 l 1
 640 512 l 1
 640 640 l 1
 768 640 l 1
 768 768 l 1
 640 768 l 1
 640 896 l 1
512 640 m 1
 512 768 l 1
 640 768 l 1
 640 640 l 1
 512 640 l 1
EndSplineSet
Validated: 5
EndChar

StartChar: ordmasculine
Encoding: 186 186 135
Width: 1024
GlyphClass: 1
Flags: W
LayerCount: 2
Fore
SplineSet
768 768 m 1
 640 768 l 1
 640 896 l 1
 768 896 l 1
 768 768 l 1
640 640 m 1
 512 640 l 1
 512 768 l 1
 640 768 l 1
 640 640 l 1
896 640 m 1
 768 640 l 1
 768 768 l 1
 896 768 l 1
 896 640 l 1
768 512 m 1
 640 512 l 1
 640 640 l 1
 768 640 l 1
 768 512 l 1
EndSplineSet
Validated: 5
EndChar

StartChar: uni0410
Encoding: 1040 1040 136
Width: 1024
GlyphClass: 1
Flags: W
LayerCount: 2
Fore
SplineSet
768 768 m 1
 768 640 l 1
 896 640 l 1
 896 0 l 1
 640 0 l 1
 640 256 l 1
 384 256 l 1
 384 0 l 1
 128 0 l 1
 128 640 l 1
 256 640 l 1
 256 768 l 1
 384 768 l 1
 384 896 l 1
 640 896 l 1
 640 768 l 1
 768 768 l 1
384 384 m 1
 640 384 l 1
 640 640 l 1
 384 640 l 1
 384 384 l 1
EndSplineSet
Validated: 1
EndChar

StartChar: uni0411
Encoding: 1041 1041 137
Width: 1024
GlyphClass: 1
Flags: W
LayerCount: 2
Fore
SplineSet
768 512 m 1
 768 384 l 1
 896 384 l 1
 896 128 l 1
 768 128 l 1
 768 0 l 1
 128 0 l 1
 128 896 l 1
 768 896 l 1
 768 768 l 1
 384 768 l 1
 384 512 l 1
 768 512 l 1
384 128 m 1
 640 128 l 1
 640 384 l 1
 384 384 l 1
 384 128 l 1
EndSplineSet
Validated: 1
EndChar

StartChar: uni0412
Encoding: 1042 1042 138
Width: 1024
GlyphClass: 1
Flags: W
LayerCount: 2
Fore
SplineSet
768 896 m 1
 768 768 l 1
 896 768 l 1
 896 512 l 1
 768 512 l 1
 768 384 l 1
 896 384 l 1
 896 128 l 1
 768 128 l 1
 768 0 l 1
 128 0 l 1
 128 896 l 1
 768 896 l 1
384 512 m 1
 640 512 l 1
 640 768 l 1
 384 768 l 1
 384 512 l 1
640 128 m 1
 640 384 l 1
 384 384 l 1
 384 128 l 1
 640 128 l 1
EndSplineSet
Validated: 1
EndChar

StartChar: uni0413
Encoding: 1043 1043 139
Width: 1024
GlyphClass: 1
Flags: W
LayerCount: 2
Fore
SplineSet
896 896 m 1
 896 768 l 1
 512 768 l 1
 512 0 l 1
 256 0 l 1
 256 896 l 1
 896 896 l 1
EndSplineSet
Validated: 1
EndChar

StartChar: uni0414
Encoding: 1044 1044 140
Width: 1024
GlyphClass: 1
Flags: W
LayerCount: 2
Fore
SplineSet
896 128 m 1
 1024 128 l 1
 1024 -128 l 1
 768 -128 l 1
 768 0 l 1
 384 0 l 1
 384 -128 l 1
 128 -128 l 1
 128 128 l 1
 256 128 l 1
 256 768 l 1
 384 768 l 1
 384 896 l 1
 768 896 l 1
 768 768 l 1
 896 768 l 1
 896 128 l 1
512 128 m 1
 640 128 l 1
 640 768 l 1
 512 768 l 1
 512 128 l 1
EndSplineSet
Validated: 1
EndChar

StartChar: uni0415
Encoding: 1045 1045 141
Width: 1024
GlyphClass: 1
Flags: W
LayerCount: 2
Fore
SplineSet
384 768 m 1
 384 512 l 1
 640 512 l 1
 640 384 l 1
 384 384 l 1
 384 128 l 1
 896 128 l 1
 896 0 l 1
 128 0 l 1
 128 896 l 1
 896 896 l 1
 896 768 l 1
 384 768 l 1
EndSplineSet
Validated: 1
EndChar

StartChar: uni0401
Encoding: 1025 1025 142
Width: 1024
GlyphClass: 1
Flags: W
LayerCount: 2
Fore
SplineSet
384 640 m 1
 384 512 l 1
 640 512 l 1
 640 384 l 1
 384 384 l 1
 384 128 l 1
 896 128 l 1
 896 0 l 1
 128 0 l 1
 128 768 l 1
 256 768 l 1
 256 896 l 1
 384 896 l 1
 384 768 l 1
 640 768 l 1
 640 896 l 1
 768 896 l 1
 768 768 l 1
 896 768 l 1
 896 640 l 1
 384 640 l 1
EndSplineSet
Validated: 1
EndChar

StartChar: uni0416
Encoding: 1046 1046 143
Width: 1024
GlyphClass: 1
Flags: W
LayerCount: 2
Fore
SplineSet
640 896 m 1
 896 896 l 1
 896 512 l 1
 768 512 l 1
 768 384 l 1
 896 384 l 1
 896 0 l 1
 640 0 l 1
 640 384 l 1
 512 384 l 1
 512 0 l 1
 384 0 l 1
 384 384 l 1
 256 384 l 1
 256 0 l 1
 0 0 l 1
 0 384 l 1
 128 384 l 1
 128 512 l 1
 0 512 l 1
 0 896 l 1
 256 896 l 1
 256 512 l 1
 384 512 l 1
 384 896 l 1
 512 896 l 1
 512 512 l 1
 640 512 l 1
 640 896 l 1
EndSplineSet
Validated: 1
EndChar

StartChar: uni0417
Encoding: 1047 1047 144
Width: 1024
GlyphClass: 1
Flags: W
LayerCount: 2
Fore
SplineSet
768 896 m 1
 768 768 l 1
 896 768 l 1
 896 512 l 1
 768 512 l 1
 768 384 l 1
 896 384 l 1
 896 128 l 1
 768 128 l 1
 768 0 l 1
 256 0 l 1
 256 128 l 1
 128 128 l 1
 128 256 l 1
 384 256 l 1
 384 128 l 1
 640 128 l 1
 640 384 l 1
 384 384 l 1
 384 512 l 1
 640 512 l 1
 640 768 l 1
 384 768 l 1
 384 640 l 1
 128 640 l 1
 128 768 l 1
 256 768 l 1
 256 896 l 1
 768 896 l 1
EndSplineSet
Validated: 1
EndChar

StartChar: uni0418
Encoding: 1048 1048 145
Width: 1024
GlyphClass: 1
Flags: W
LayerCount: 2
Fore
SplineSet
640 896 m 1
 896 896 l 1
 896 0 l 1
 640 0 l 1
 640 384 l 1
 512 384 l 1
 512 256 l 1
 384 256 l 1
 384 0 l 1
 128 0 l 1
 128 896 l 1
 384 896 l 1
 384 512 l 1
 512 512 l 1
 512 640 l 1
 640 640 l 1
 640 896 l 1
EndSplineSet
Validated: 1
EndChar

StartChar: uni0419
Encoding: 1049 1049 146
Width: 1024
GlyphClass: 1
Flags: W
LayerCount: 2
Fore
SplineSet
640 896 m 1
 640 768 l 1
 384 768 l 1
 384 896 l 1
 640 896 l 1
640 768 m 1
 896 768 l 1
 896 0 l 1
 640 0 l 1
 640 384 l 1
 512 384 l 1
 512 256 l 1
 384 256 l 1
 384 0 l 1
 128 0 l 1
 128 768 l 1
 384 768 l 1
 384 512 l 1
 512 512 l 1
 512 640 l 1
 640 640 l 1
 640 768 l 1
EndSplineSet
Validated: 5
EndChar

StartChar: uni041A
Encoding: 1050 1050 147
Width: 1024
GlyphClass: 1
Flags: W
LayerCount: 2
Fore
SplineSet
640 896 m 1
 896 896 l 1
 896 640 l 1
 768 640 l 1
 768 512 l 1
 640 512 l 1
 640 384 l 1
 768 384 l 1
 768 256 l 1
 896 256 l 1
 896 0 l 1
 640 0 l 1
 640 256 l 1
 512 256 l 1
 512 384 l 1
 384 384 l 1
 384 0 l 1
 128 0 l 1
 128 896 l 1
 384 896 l 1
 384 512 l 1
 512 512 l 1
 512 640 l 1
 640 640 l 1
 640 896 l 1
EndSplineSet
Validated: 1
EndChar

StartChar: uni041B
Encoding: 1051 1051 148
Width: 1024
GlyphClass: 1
Flags: W
LayerCount: 2
Fore
SplineSet
896 896 m 1
 896 0 l 1
 640 0 l 1
 640 640 l 1
 512 640 l 1
 512 128 l 1
 384 128 l 1
 384 0 l 1
 128 0 l 1
 128 128 l 1
 256 128 l 1
 256 640 l 1
 384 640 l 1
 384 768 l 1
 512 768 l 1
 512 896 l 1
 896 896 l 1
EndSplineSet
Validated: 1
EndChar

StartChar: uni041C
Encoding: 1052 1052 149
Width: 1024
GlyphClass: 1
Flags: W
LayerCount: 2
Fore
SplineSet
640 896 m 1
 896 896 l 1
 896 0 l 1
 640 0 l 1
 640 512 l 1
 512 512 l 1
 512 384 l 1
 384 384 l 1
 384 512 l 1
 256 512 l 1
 256 0 l 1
 0 0 l 1
 0 896 l 1
 256 896 l 1
 256 768 l 1
 384 768 l 1
 384 640 l 1
 512 640 l 1
 512 768 l 1
 640 768 l 1
 640 896 l 1
EndSplineSet
Validated: 1
EndChar

StartChar: uni041D
Encoding: 1053 1053 150
Width: 1024
GlyphClass: 1
Flags: W
LayerCount: 2
Fore
SplineSet
640 896 m 1
 896 896 l 1
 896 0 l 1
 640 0 l 1
 640 384 l 1
 384 384 l 1
 384 0 l 1
 128 0 l 1
 128 896 l 1
 384 896 l 1
 384 512 l 1
 640 512 l 1
 640 896 l 1
EndSplineSet
Validated: 1
EndChar

StartChar: uni041E
Encoding: 1054 1054 151
Width: 1024
GlyphClass: 1
Flags: W
LayerCount: 2
Fore
SplineSet
768 896 m 1
 768 768 l 1
 896 768 l 1
 896 128 l 1
 768 128 l 1
 768 0 l 1
 256 0 l 1
 256 128 l 1
 128 128 l 1
 128 768 l 1
 256 768 l 1
 256 896 l 1
 768 896 l 1
384 128 m 1
 640 128 l 1
 640 768 l 1
 384 768 l 1
 384 128 l 1
EndSplineSet
Validated: 1
EndChar

StartChar: uni041F
Encoding: 1055 1055 152
Width: 1024
GlyphClass: 1
Flags: W
LayerCount: 2
Fore
SplineSet
896 896 m 1
 896 0 l 1
 640 0 l 1
 640 768 l 1
 384 768 l 1
 384 0 l 1
 128 0 l 1
 128 896 l 1
 896 896 l 1
EndSplineSet
Validated: 1
EndChar

StartChar: uni0420
Encoding: 1056 1056 153
Width: 1024
GlyphClass: 1
Flags: W
LayerCount: 2
Fore
SplineSet
768 896 m 1
 768 768 l 1
 896 768 l 1
 896 512 l 1
 768 512 l 1
 768 384 l 1
 384 384 l 1
 384 0 l 1
 128 0 l 1
 128 896 l 1
 768 896 l 1
384 512 m 1
 640 512 l 1
 640 768 l 1
 384 768 l 1
 384 512 l 1
EndSplineSet
Validated: 1
EndChar

StartChar: uni0421
Encoding: 1057 1057 154
Width: 1024
GlyphClass: 1
Flags: W
LayerCount: 2
Fore
SplineSet
896 640 m 1
 640 640 l 1
 640 768 l 1
 384 768 l 1
 384 128 l 1
 640 128 l 1
 640 256 l 1
 896 256 l 1
 896 128 l 1
 768 128 l 1
 768 0 l 1
 256 0 l 1
 256 128 l 1
 128 128 l 1
 128 768 l 1
 256 768 l 1
 256 896 l 1
 768 896 l 1
 768 768 l 1
 896 768 l 1
 896 640 l 1
EndSplineSet
Validated: 1
EndChar

StartChar: uni0422
Encoding: 1058 1058 155
Width: 1024
GlyphClass: 1
Flags: W
LayerCount: 2
Fore
SplineSet
896 896 m 1
 896 768 l 1
 640 768 l 1
 640 0 l 1
 384 0 l 1
 384 768 l 1
 128 768 l 1
 128 896 l 1
 896 896 l 1
EndSplineSet
Validated: 1
EndChar

StartChar: uni0423
Encoding: 1059 1059 156
Width: 1024
GlyphClass: 1
Flags: W
LayerCount: 2
Fore
SplineSet
640 896 m 1
 896 896 l 1
 896 256 l 1
 768 256 l 1
 768 128 l 1
 640 128 l 1
 640 0 l 1
 256 0 l 1
 256 128 l 1
 512 128 l 1
 512 256 l 1
 640 256 l 1
 640 384 l 1
 256 384 l 1
 256 512 l 1
 128 512 l 1
 128 896 l 1
 384 896 l 1
 384 512 l 1
 640 512 l 1
 640 896 l 1
EndSplineSet
Validated: 1
EndChar

StartChar: uni0424
Encoding: 1060 1060 157
Width: 1024
GlyphClass: 1
Flags: W
LayerCount: 2
Fore
SplineSet
896 896 m 1
 896 768 l 1
 1024 768 l 1
 1024 384 l 1
 896 384 l 1
 896 256 l 1
 640 256 l 1
 640 0 l 1
 384 0 l 1
 384 256 l 1
 128 256 l 1
 128 384 l 1
 0 384 l 1
 0 768 l 1
 128 768 l 1
 128 896 l 1
 896 896 l 1
256 384 m 1
 384 384 l 1
 384 768 l 1
 256 768 l 1
 256 384 l 1
640 384 m 1
 768 384 l 1
 768 768 l 1
 640 768 l 1
 640 384 l 1
EndSplineSet
Validated: 1
EndChar

StartChar: uni0425
Encoding: 1061 1061 158
Width: 1024
GlyphClass: 1
Flags: W
LayerCount: 2
Fore
SplineSet
640 896 m 1
 896 896 l 1
 896 640 l 1
 768 640 l 1
 768 512 l 1
 640 512 l 1
 640 384 l 1
 768 384 l 1
 768 256 l 1
 896 256 l 1
 896 0 l 1
 640 0 l 1
 640 256 l 1
 384 256 l 1
 384 0 l 1
 128 0 l 1
 128 256 l 1
 256 256 l 1
 256 384 l 1
 384 384 l 1
 384 512 l 1
 256 512 l 1
 256 640 l 1
 128 640 l 1
 128 896 l 1
 384 896 l 1
 384 640 l 1
 640 640 l 1
 640 896 l 1
EndSplineSet
Validated: 1
EndChar

StartChar: uni0427
Encoding: 1063 1063 159
Width: 1024
GlyphClass: 1
Flags: W
LayerCount: 2
Fore
SplineSet
640 896 m 1
 896 896 l 1
 896 0 l 1
 640 0 l 1
 640 384 l 1
 256 384 l 1
 256 512 l 1
 128 512 l 1
 128 896 l 1
 384 896 l 1
 384 512 l 1
 640 512 l 1
 640 896 l 1
EndSplineSet
Validated: 1
EndChar

StartChar: uni0426
Encoding: 1062 1062 160
Width: 1024
GlyphClass: 1
Flags: W
LayerCount: 2
Fore
SplineSet
896 128 m 1
 1024 128 l 1
 1024 -128 l 1
 768 -128 l 1
 768 0 l 1
 128 0 l 1
 128 896 l 1
 384 896 l 1
 384 128 l 1
 640 128 l 1
 640 896 l 1
 896 896 l 1
 896 128 l 1
EndSplineSet
Validated: 1
EndChar

StartChar: uni0428
Encoding: 1064 1064 161
Width: 1024
GlyphClass: 1
Flags: W
LayerCount: 2
Fore
SplineSet
640 896 m 1
 896 896 l 1
 896 0 l 1
 0 0 l 1
 0 896 l 1
 256 896 l 1
 256 128 l 1
 384 128 l 1
 384 896 l 1
 512 896 l 1
 512 128 l 1
 640 128 l 1
 640 896 l 1
EndSplineSet
Validated: 1
EndChar

StartChar: uni0429
Encoding: 1065 1065 162
Width: 1024
GlyphClass: 1
Flags: W
LayerCount: 2
Fore
SplineSet
640 896 m 1
 896 896 l 1
 896 -128 l 1
 640 -128 l 1
 640 0 l 1
 0 0 l 1
 0 896 l 1
 256 896 l 1
 256 128 l 1
 384 128 l 1
 384 896 l 1
 512 896 l 1
 512 128 l 1
 640 128 l 1
 640 896 l 1
EndSplineSet
Validated: 1
EndChar

StartChar: uni042C
Encoding: 1068 1068 163
Width: 1024
GlyphClass: 1
Flags: W
LayerCount: 2
Fore
SplineSet
768 512 m 1
 768 384 l 1
 896 384 l 1
 896 128 l 1
 768 128 l 1
 768 0 l 1
 128 0 l 1
 128 896 l 1
 384 896 l 1
 384 512 l 1
 768 512 l 1
384 128 m 1
 640 128 l 1
 640 384 l 1
 384 384 l 1
 384 128 l 1
EndSplineSet
Validated: 1
EndChar

StartChar: uni042A
Encoding: 1066 1066 164
Width: 1024
GlyphClass: 1
Flags: W
LayerCount: 2
Fore
SplineSet
768 512 m 1
 768 384 l 1
 896 384 l 1
 896 128 l 1
 768 128 l 1
 768 0 l 1
 128 0 l 1
 128 768 l 1
 0 768 l 1
 0 896 l 1
 384 896 l 1
 384 512 l 1
 768 512 l 1
384 128 m 1
 640 128 l 1
 640 384 l 1
 384 384 l 1
 384 128 l 1
EndSplineSet
Validated: 1
EndChar

StartChar: uni042B
Encoding: 1067 1067 165
Width: 1024
GlyphClass: 1
Flags: W
LayerCount: 2
Fore
SplineSet
512 384 m 1
 640 384 l 1
 640 128 l 1
 512 128 l 1
 512 0 l 1
 0 0 l 1
 0 896 l 1
 256 896 l 1
 256 512 l 1
 512 512 l 1
 512 384 l 1
640 896 m 1
 896 896 l 1
 896 0 l 1
 640 0 l 1
 640 128 l 1
 768 128 l 1
 768 384 l 1
 640 384 l 1
 640 896 l 1
256 128 m 1
 384 128 l 1
 384 384 l 1
 256 384 l 1
 256 128 l 1
EndSplineSet
Validated: 5
EndChar

StartChar: uni042D
Encoding: 1069 1069 166
Width: 1024
GlyphClass: 1
Flags: W
LayerCount: 2
Fore
SplineSet
768 896 m 1
 768 768 l 1
 896 768 l 1
 896 128 l 1
 768 128 l 1
 768 0 l 1
 256 0 l 1
 256 128 l 1
 128 128 l 1
 128 256 l 1
 384 256 l 1
 384 128 l 1
 640 128 l 1
 640 384 l 1
 384 384 l 1
 384 512 l 1
 640 512 l 1
 640 768 l 1
 384 768 l 1
 384 640 l 1
 128 640 l 1
 128 768 l 1
 256 768 l 1
 256 896 l 1
 768 896 l 1
EndSplineSet
Validated: 1
EndChar

StartChar: uni042E
Encoding: 1070 1070 167
Width: 1024
GlyphClass: 1
Flags: W
LayerCount: 2
Fore
SplineSet
512 128 m 1
 384 128 l 1
 384 384 l 1
 256 384 l 1
 256 0 l 1
 0 0 l 1
 0 896 l 1
 256 896 l 1
 256 512 l 1
 384 512 l 1
 384 768 l 1
 512 768 l 1
 512 128 l 1
768 896 m 1
 768 768 l 1
 896 768 l 1
 896 128 l 1
 768 128 l 1
 768 0 l 1
 512 0 l 1
 512 128 l 1
 640 128 l 1
 640 768 l 1
 512 768 l 1
 512 896 l 1
 768 896 l 1
EndSplineSet
Validated: 5
EndChar

StartChar: uni042F
Encoding: 1071 1071 168
Width: 1024
GlyphClass: 1
Flags: W
LayerCount: 2
Fore
SplineSet
896 896 m 1
 896 0 l 1
 640 0 l 1
 640 256 l 1
 512 256 l 1
 512 128 l 1
 384 128 l 1
 384 0 l 1
 128 0 l 1
 128 128 l 1
 256 128 l 1
 256 256 l 1
 384 256 l 1
 384 384 l 1
 256 384 l 1
 256 512 l 1
 128 512 l 1
 128 768 l 1
 256 768 l 1
 256 896 l 1
 896 896 l 1
384 768 m 1
 384 512 l 1
 640 512 l 1
 640 768 l 1
 384 768 l 1
EndSplineSet
Validated: 1
EndChar

StartChar: uni0430
Encoding: 1072 1072 169
Width: 1024
GlyphClass: 1
Flags: W
LayerCount: 2
Fore
SplineSet
768 640 m 1
 768 512 l 1
 896 512 l 1
 896 0 l 1
 256 0 l 1
 256 128 l 1
 128 128 l 1
 128 256 l 1
 256 256 l 1
 256 384 l 1
 640 384 l 1
 640 512 l 1
 256 512 l 1
 256 640 l 1
 768 640 l 1
384 128 m 1
 640 128 l 1
 640 256 l 1
 384 256 l 1
 384 128 l 1
EndSplineSet
Validated: 1
EndChar

StartChar: uni0431
Encoding: 1073 1073 170
Width: 1024
GlyphClass: 1
Flags: W
LayerCount: 2
Fore
SplineSet
768 512 m 1
 768 384 l 1
 896 384 l 1
 896 128 l 1
 768 128 l 1
 768 0 l 1
 256 0 l 1
 256 128 l 1
 128 128 l 1
 128 384 l 1
 256 384 l 1
 256 512 l 1
 128 512 l 1
 128 640 l 1
 256 640 l 1
 256 768 l 1
 768 768 l 1
 768 640 l 1
 384 640 l 1
 384 512 l 1
 768 512 l 1
384 128 m 1
 640 128 l 1
 640 384 l 1
 384 384 l 1
 384 128 l 1
EndSplineSet
Validated: 1
EndChar

StartChar: uni0432
Encoding: 1074 1074 171
Width: 1024
GlyphClass: 1
Flags: W
LayerCount: 2
Fore
SplineSet
896 512 m 1
 896 384 l 1
 768 384 l 1
 768 256 l 1
 896 256 l 1
 896 128 l 1
 768 128 l 1
 768 0 l 1
 128 0 l 1
 128 640 l 1
 768 640 l 1
 768 512 l 1
 896 512 l 1
384 384 m 1
 640 384 l 1
 640 512 l 1
 384 512 l 1
 384 384 l 1
640 128 m 1
 640 256 l 1
 384 256 l 1
 384 128 l 1
 640 128 l 1
EndSplineSet
Validated: 1
EndChar

StartChar: uni0433
Encoding: 1075 1075 172
Width: 1024
GlyphClass: 1
Flags: W
LayerCount: 2
Fore
SplineSet
896 640 m 1
 896 512 l 1
 512 512 l 1
 512 0 l 1
 256 0 l 1
 256 640 l 1
 896 640 l 1
EndSplineSet
Validated: 1
EndChar

StartChar: uni0434
Encoding: 1076 1076 173
Width: 1024
GlyphClass: 1
Flags: W
LayerCount: 2
Fore
SplineSet
768 128 m 1
 896 128 l 1
 896 -128 l 1
 640 -128 l 1
 640 0 l 1
 256 0 l 1
 256 -128 l 1
 0 -128 l 1
 0 128 l 1
 128 128 l 1
 128 512 l 1
 256 512 l 1
 256 640 l 1
 768 640 l 1
 768 128 l 1
384 128 m 1
 512 128 l 1
 512 512 l 1
 384 512 l 1
 384 128 l 1
EndSplineSet
Validated: 1
EndChar

StartChar: uni0435
Encoding: 1077 1077 174
Width: 1024
GlyphClass: 1
Flags: W
LayerCount: 2
Fore
SplineSet
768 640 m 1
 768 512 l 1
 896 512 l 1
 896 256 l 1
 384 256 l 1
 384 128 l 1
 768 128 l 1
 768 0 l 1
 256 0 l 1
 256 128 l 1
 128 128 l 1
 128 512 l 1
 256 512 l 1
 256 640 l 1
 768 640 l 1
384 384 m 1
 640 384 l 1
 640 512 l 1
 384 512 l 1
 384 384 l 1
EndSplineSet
Validated: 1
EndChar

StartChar: uni0451
Encoding: 1105 1105 175
Width: 1024
GlyphClass: 1
Flags: W
LayerCount: 2
Fore
SplineSet
256 896 m 1
 384 896 l 1
 384 768 l 1
 256 768 l 1
 256 896 l 1
640 896 m 1
 768 896 l 1
 768 768 l 1
 640 768 l 1
 640 896 l 1
768 640 m 1
 768 512 l 1
 896 512 l 1
 896 256 l 1
 384 256 l 1
 384 128 l 1
 768 128 l 1
 768 0 l 1
 256 0 l 1
 256 128 l 1
 128 128 l 1
 128 512 l 1
 256 512 l 1
 256 640 l 1
 768 640 l 1
384 384 m 1
 640 384 l 1
 640 512 l 1
 384 512 l 1
 384 384 l 1
EndSplineSet
Validated: 1
EndChar

StartChar: uni0436
Encoding: 1078 1078 176
Width: 1024
GlyphClass: 1
Flags: W
LayerCount: 2
Fore
SplineSet
640 640 m 1
 896 640 l 1
 896 384 l 1
 768 384 l 1
 768 256 l 1
 896 256 l 1
 896 0 l 1
 640 0 l 1
 640 256 l 1
 512 256 l 1
 512 0 l 1
 384 0 l 1
 384 256 l 1
 256 256 l 1
 256 0 l 1
 0 0 l 1
 0 256 l 1
 128 256 l 1
 128 384 l 1
 0 384 l 1
 0 640 l 1
 256 640 l 1
 256 384 l 1
 384 384 l 1
 384 640 l 1
 512 640 l 1
 512 384 l 1
 640 384 l 1
 640 640 l 1
EndSplineSet
Validated: 1
EndChar

StartChar: uni0437
Encoding: 1079 1079 177
Width: 1024
GlyphClass: 1
Flags: W
LayerCount: 2
Fore
SplineSet
896 512 m 1
 896 384 l 1
 768 384 l 1
 768 256 l 1
 896 256 l 1
 896 128 l 1
 768 128 l 1
 768 0 l 1
 256 0 l 1
 256 128 l 1
 128 128 l 1
 128 256 l 1
 384 256 l 1
 384 128 l 1
 640 128 l 1
 640 256 l 1
 512 256 l 1
 512 384 l 1
 640 384 l 1
 640 512 l 1
 384 512 l 1
 384 384 l 1
 128 384 l 1
 128 512 l 1
 256 512 l 1
 256 640 l 1
 768 640 l 1
 768 512 l 1
 896 512 l 1
EndSplineSet
Validated: 1
EndChar

StartChar: uni0438
Encoding: 1080 1080 178
Width: 1024
GlyphClass: 1
Flags: W
LayerCount: 2
Fore
SplineSet
384 640 m 1
 384 384 l 1
 512 384 l 1
 512 256 l 1
 384 256 l 1
 384 0 l 1
 128 0 l 1
 128 640 l 1
 384 640 l 1
640 640 m 1
 896 640 l 1
 896 0 l 1
 640 0 l 1
 640 384 l 1
 512 384 l 1
 512 512 l 1
 640 512 l 1
 640 640 l 1
EndSplineSet
Validated: 5
EndChar

StartChar: uni0439
Encoding: 1081 1081 179
Width: 1024
GlyphClass: 1
Flags: W
LayerCount: 2
Fore
SplineSet
256 768 m 1
 256 896 l 1
 768 896 l 1
 768 768 l 1
 256 768 l 1
384 640 m 1
 384 384 l 1
 512 384 l 1
 512 256 l 1
 384 256 l 1
 384 0 l 1
 128 0 l 1
 128 640 l 1
 384 640 l 1
640 640 m 1
 896 640 l 1
 896 0 l 1
 640 0 l 1
 640 384 l 1
 512 384 l 1
 512 512 l 1
 640 512 l 1
 640 640 l 1
EndSplineSet
Validated: 5
EndChar

StartChar: uni043A
Encoding: 1082 1082 180
Width: 1024
GlyphClass: 1
Flags: W
LayerCount: 2
Fore
SplineSet
768 512 m 1
 768 384 l 1
 640 384 l 1
 640 256 l 1
 768 256 l 1
 768 128 l 1
 896 128 l 1
 896 0 l 1
 640 0 l 1
 640 128 l 1
 512 128 l 1
 512 256 l 1
 384 256 l 1
 384 0 l 1
 128 0 l 1
 128 640 l 1
 384 640 l 1
 384 384 l 1
 512 384 l 1
 512 512 l 1
 640 512 l 1
 640 640 l 1
 896 640 l 1
 896 512 l 1
 768 512 l 1
EndSplineSet
Validated: 1
EndChar

StartChar: uni043B
Encoding: 1083 1083 181
Width: 1024
GlyphClass: 1
Flags: W
LayerCount: 2
Fore
SplineSet
896 640 m 1
 896 0 l 1
 640 0 l 1
 640 512 l 1
 512 512 l 1
 512 128 l 1
 384 128 l 1
 384 0 l 1
 128 0 l 1
 128 128 l 1
 256 128 l 1
 256 512 l 1
 384 512 l 1
 384 640 l 1
 896 640 l 1
EndSplineSet
Validated: 1
EndChar

StartChar: uni043C
Encoding: 1084 1084 182
Width: 1024
GlyphClass: 1
Flags: W
LayerCount: 2
Fore
SplineSet
640 640 m 1
 896 640 l 1
 896 0 l 1
 640 0 l 1
 640 256 l 1
 512 256 l 1
 512 128 l 1
 384 128 l 1
 384 256 l 1
 256 256 l 1
 256 0 l 1
 0 0 l 1
 0 640 l 1
 256 640 l 1
 256 512 l 1
 384 512 l 1
 384 384 l 1
 512 384 l 1
 512 512 l 1
 640 512 l 1
 640 640 l 1
EndSplineSet
Validated: 1
EndChar

StartChar: uni043D
Encoding: 1085 1085 183
Width: 1024
GlyphClass: 1
Flags: W
LayerCount: 2
Fore
SplineSet
640 640 m 1
 896 640 l 1
 896 0 l 1
 640 0 l 1
 640 256 l 1
 384 256 l 1
 384 0 l 1
 128 0 l 1
 128 640 l 1
 384 640 l 1
 384 384 l 1
 640 384 l 1
 640 640 l 1
EndSplineSet
Validated: 1
EndChar

StartChar: uni043E
Encoding: 1086 1086 184
Width: 1024
GlyphClass: 1
Flags: W
LayerCount: 2
Fore
SplineSet
768 640 m 1
 768 512 l 1
 896 512 l 1
 896 128 l 1
 768 128 l 1
 768 0 l 1
 256 0 l 1
 256 128 l 1
 128 128 l 1
 128 512 l 1
 256 512 l 1
 256 640 l 1
 768 640 l 1
384 128 m 1
 640 128 l 1
 640 512 l 1
 384 512 l 1
 384 128 l 1
EndSplineSet
Validated: 1
EndChar

StartChar: uni043F
Encoding: 1087 1087 185
Width: 1024
GlyphClass: 1
Flags: W
LayerCount: 2
Fore
SplineSet
896 640 m 1
 896 0 l 1
 640 0 l 1
 640 512 l 1
 384 512 l 1
 384 0 l 1
 128 0 l 1
 128 640 l 1
 896 640 l 1
EndSplineSet
Validated: 1
EndChar

StartChar: uni0440
Encoding: 1088 1088 186
Width: 1024
GlyphClass: 1
Flags: W
LayerCount: 2
Fore
SplineSet
768 640 m 1
 768 512 l 1
 896 512 l 1
 896 256 l 1
 768 256 l 1
 768 128 l 1
 384 128 l 1
 384 -128 l 1
 128 -128 l 1
 128 640 l 1
 768 640 l 1
384 256 m 1
 640 256 l 1
 640 512 l 1
 384 512 l 1
 384 256 l 1
EndSplineSet
Validated: 1
EndChar

StartChar: uni0441
Encoding: 1089 1089 187
Width: 1024
GlyphClass: 1
Flags: W
LayerCount: 2
Fore
SplineSet
896 384 m 1
 640 384 l 1
 640 512 l 1
 384 512 l 1
 384 128 l 1
 640 128 l 1
 640 256 l 1
 896 256 l 1
 896 128 l 1
 768 128 l 1
 768 0 l 1
 256 0 l 1
 256 128 l 1
 128 128 l 1
 128 512 l 1
 256 512 l 1
 256 640 l 1
 768 640 l 1
 768 512 l 1
 896 512 l 1
 896 384 l 1
EndSplineSet
Validated: 1
EndChar

StartChar: uni0442
Encoding: 1090 1090 188
Width: 1024
GlyphClass: 1
Flags: W
LayerCount: 2
Fore
SplineSet
896 640 m 1
 896 512 l 1
 640 512 l 1
 640 0 l 1
 384 0 l 1
 384 512 l 1
 128 512 l 1
 128 640 l 1
 896 640 l 1
EndSplineSet
Validated: 1
EndChar

StartChar: uni0443
Encoding: 1091 1091 189
Width: 1024
GlyphClass: 1
Flags: W
LayerCount: 2
Fore
SplineSet
640 640 m 1
 896 640 l 1
 896 0 l 1
 768 0 l 1
 768 -128 l 1
 256 -128 l 1
 256 0 l 1
 640 0 l 1
 640 128 l 1
 256 128 l 1
 256 256 l 1
 128 256 l 1
 128 640 l 1
 384 640 l 1
 384 256 l 1
 640 256 l 1
 640 640 l 1
EndSplineSet
Validated: 1
EndChar

StartChar: uni0444
Encoding: 1092 1092 190
Width: 1024
GlyphClass: 1
Flags: W
LayerCount: 2
Fore
SplineSet
896 640 m 1
 896 512 l 1
 1024 512 l 1
 1024 256 l 1
 896 256 l 1
 896 128 l 1
 640 128 l 1
 640 0 l 1
 384 0 l 1
 384 128 l 1
 128 128 l 1
 128 256 l 1
 0 256 l 1
 0 512 l 1
 128 512 l 1
 128 640 l 1
 896 640 l 1
256 256 m 1
 384 256 l 1
 384 512 l 1
 256 512 l 1
 256 256 l 1
640 256 m 1
 768 256 l 1
 768 512 l 1
 640 512 l 1
 640 256 l 1
EndSplineSet
Validated: 1
EndChar

StartChar: uni0445
Encoding: 1093 1093 191
Width: 1024
GlyphClass: 1
Flags: W
LayerCount: 2
Fore
SplineSet
768 512 m 1
 768 384 l 1
 640 384 l 1
 640 256 l 1
 768 256 l 1
 768 128 l 1
 896 128 l 1
 896 0 l 1
 640 0 l 1
 640 128 l 1
 384 128 l 1
 384 0 l 1
 128 0 l 1
 128 128 l 1
 256 128 l 1
 256 256 l 1
 384 256 l 1
 384 384 l 1
 256 384 l 1
 256 512 l 1
 128 512 l 1
 128 640 l 1
 384 640 l 1
 384 512 l 1
 640 512 l 1
 640 640 l 1
 896 640 l 1
 896 512 l 1
 768 512 l 1
EndSplineSet
Validated: 1
EndChar

StartChar: uni0447
Encoding: 1095 1095 192
Width: 1024
GlyphClass: 1
Flags: W
LayerCount: 2
Fore
SplineSet
640 640 m 1
 896 640 l 1
 896 0 l 1
 640 0 l 1
 640 128 l 1
 256 128 l 1
 256 256 l 1
 128 256 l 1
 128 640 l 1
 384 640 l 1
 384 256 l 1
 640 256 l 1
 640 640 l 1
EndSplineSet
Validated: 1
EndChar

StartChar: uni0446
Encoding: 1094 1094 193
Width: 1024
GlyphClass: 1
Flags: W
LayerCount: 2
Fore
SplineSet
896 128 m 1
 1024 128 l 1
 1024 -128 l 1
 768 -128 l 1
 768 0 l 1
 128 0 l 1
 128 640 l 1
 384 640 l 1
 384 128 l 1
 640 128 l 1
 640 640 l 1
 896 640 l 1
 896 128 l 1
EndSplineSet
Validated: 1
EndChar

StartChar: uni0448
Encoding: 1096 1096 194
Width: 1024
GlyphClass: 1
Flags: W
LayerCount: 2
Fore
SplineSet
640 640 m 1
 896 640 l 1
 896 0 l 1
 0 0 l 1
 0 640 l 1
 256 640 l 1
 256 128 l 1
 384 128 l 1
 384 640 l 1
 512 640 l 1
 512 128 l 1
 640 128 l 1
 640 640 l 1
EndSplineSet
Validated: 1
EndChar

StartChar: uni0449
Encoding: 1097 1097 195
Width: 1024
GlyphClass: 1
Flags: W
LayerCount: 2
Fore
SplineSet
640 640 m 1
 896 640 l 1
 896 -128 l 1
 640 -128 l 1
 640 0 l 1
 0 0 l 1
 0 640 l 1
 256 640 l 1
 256 128 l 1
 384 128 l 1
 384 640 l 1
 512 640 l 1
 512 128 l 1
 640 128 l 1
 640 640 l 1
EndSplineSet
Validated: 1
EndChar

StartChar: uni044C
Encoding: 1100 1100 196
Width: 1024
GlyphClass: 1
Flags: W
LayerCount: 2
Fore
SplineSet
768 384 m 1
 768 256 l 1
 896 256 l 1
 896 128 l 1
 768 128 l 1
 768 0 l 1
 128 0 l 1
 128 640 l 1
 384 640 l 1
 384 384 l 1
 768 384 l 1
384 128 m 1
 640 128 l 1
 640 256 l 1
 384 256 l 1
 384 128 l 1
EndSplineSet
Validated: 1
EndChar

StartChar: uni044A
Encoding: 1098 1098 197
Width: 1024
GlyphClass: 1
Flags: W
LayerCount: 2
Fore
SplineSet
768 384 m 1
 768 256 l 1
 896 256 l 1
 896 128 l 1
 768 128 l 1
 768 0 l 1
 128 0 l 1
 128 512 l 1
 0 512 l 1
 0 640 l 1
 384 640 l 1
 384 384 l 1
 768 384 l 1
384 128 m 1
 640 128 l 1
 640 256 l 1
 384 256 l 1
 384 128 l 1
EndSplineSet
Validated: 1
EndChar

StartChar: uni044B
Encoding: 1099 1099 198
Width: 1024
GlyphClass: 1
Flags: W
LayerCount: 2
Fore
SplineSet
640 640 m 1
 896 640 l 1
 896 0 l 1
 640 0 l 1
 640 128 l 1
 512 128 l 1
 512 0 l 1
 0 0 l 1
 0 640 l 1
 256 640 l 1
 256 384 l 1
 512 384 l 1
 512 256 l 1
 640 256 l 1
 640 640 l 1
256 256 m 1
 256 128 l 1
 384 128 l 1
 384 256 l 1
 256 256 l 1
EndSplineSet
Validated: 1
EndChar

StartChar: uni044D
Encoding: 1101 1101 199
Width: 1024
GlyphClass: 1
Flags: W
LayerCount: 2
Fore
SplineSet
768 640 m 1
 768 512 l 1
 896 512 l 1
 896 128 l 1
 768 128 l 1
 768 0 l 1
 256 0 l 1
 256 128 l 1
 128 128 l 1
 128 256 l 1
 384 256 l 1
 384 128 l 1
 640 128 l 1
 640 256 l 1
 512 256 l 1
 512 384 l 1
 640 384 l 1
 640 512 l 1
 384 512 l 1
 384 384 l 1
 128 384 l 1
 128 512 l 1
 256 512 l 1
 256 640 l 1
 768 640 l 1
EndSplineSet
Validated: 1
EndChar

StartChar: uni044E
Encoding: 1102 1102 200
Width: 1024
GlyphClass: 1
Flags: W
LayerCount: 2
Fore
SplineSet
512 512 m 1
 512 128 l 1
 384 128 l 1
 384 256 l 1
 256 256 l 1
 256 0 l 1
 0 0 l 1
 0 640 l 1
 256 640 l 1
 256 384 l 1
 384 384 l 1
 384 512 l 1
 512 512 l 1
768 640 m 1
 768 512 l 1
 896 512 l 1
 896 128 l 1
 768 128 l 1
 768 0 l 1
 512 0 l 1
 512 128 l 1
 640 128 l 1
 640 512 l 1
 512 512 l 1
 512 640 l 1
 768 640 l 1
EndSplineSet
Validated: 5
EndChar

StartChar: uni044F
Encoding: 1103 1103 201
Width: 1024
GlyphClass: 1
Flags: W
LayerCount: 2
Fore
SplineSet
896 640 m 1
 896 0 l 1
 640 0 l 1
 640 128 l 1
 512 128 l 1
 512 0 l 1
 256 0 l 1
 256 128 l 1
 384 128 l 1
 384 256 l 1
 256 256 l 1
 256 384 l 1
 128 384 l 1
 128 512 l 1
 256 512 l 1
 256 640 l 1
 896 640 l 1
384 512 m 1
 384 384 l 1
 640 384 l 1
 640 512 l 1
 384 512 l 1
EndSplineSet
Validated: 1
EndChar

StartChar: Alpha
Encoding: 913 913 202
Width: 1024
GlyphClass: 1
Flags: W
LayerCount: 2
Fore
SplineSet
768 768 m 1
 768 640 l 1
 896 640 l 1
 896 0 l 1
 640 0 l 1
 640 256 l 1
 384 256 l 1
 384 0 l 1
 128 0 l 1
 128 640 l 1
 256 640 l 1
 256 768 l 1
 384 768 l 1
 384 896 l 1
 640 896 l 1
 640 768 l 1
 768 768 l 1
384 384 m 1
 640 384 l 1
 640 640 l 1
 384 640 l 1
 384 384 l 1
EndSplineSet
Validated: 1
EndChar

StartChar: Beta
Encoding: 914 914 203
Width: 1024
GlyphClass: 1
Flags: W
LayerCount: 2
Fore
SplineSet
768 896 m 1
 768 768 l 1
 896 768 l 1
 896 512 l 1
 768 512 l 1
 768 384 l 1
 896 384 l 1
 896 128 l 1
 768 128 l 1
 768 0 l 1
 128 0 l 1
 128 896 l 1
 768 896 l 1
384 512 m 1
 640 512 l 1
 640 768 l 1
 384 768 l 1
 384 512 l 1
640 128 m 1
 640 384 l 1
 384 384 l 1
 384 128 l 1
 640 128 l 1
EndSplineSet
Validated: 1
EndChar

StartChar: Gamma
Encoding: 915 915 204
Width: 1024
GlyphClass: 1
Flags: W
LayerCount: 2
Fore
SplineSet
896 896 m 1
 896 768 l 1
 512 768 l 1
 512 0 l 1
 256 0 l 1
 256 896 l 1
 896 896 l 1
EndSplineSet
Validated: 1
EndChar

StartChar: uni0394
Encoding: 916 916 205
Width: 1024
GlyphClass: 1
Flags: W
LayerCount: 2
Fore
SplineSet
768 768 m 1
 768 640 l 1
 896 640 l 1
 896 0 l 1
 128 0 l 1
 128 640 l 1
 256 640 l 1
 256 768 l 1
 384 768 l 1
 384 896 l 1
 640 896 l 1
 640 768 l 1
 768 768 l 1
384 128 m 1
 640 128 l 1
 640 640 l 1
 384 640 l 1
 384 128 l 1
EndSplineSet
Validated: 1
EndChar

StartChar: Epsilon
Encoding: 917 917 206
Width: 1024
GlyphClass: 1
Flags: W
LayerCount: 2
Fore
SplineSet
384 768 m 1
 384 512 l 1
 640 512 l 1
 640 384 l 1
 384 384 l 1
 384 128 l 1
 896 128 l 1
 896 0 l 1
 128 0 l 1
 128 896 l 1
 896 896 l 1
 896 768 l 1
 384 768 l 1
EndSplineSet
Validated: 1
EndChar

StartChar: Zeta
Encoding: 918 918 207
Width: 1024
GlyphClass: 1
Flags: W
LayerCount: 2
Fore
SplineSet
896 896 m 1
 896 640 l 1
 768 640 l 1
 768 512 l 1
 640 512 l 1
 640 384 l 1
 512 384 l 1
 512 256 l 1
 384 256 l 1
 384 128 l 1
 896 128 l 1
 896 0 l 1
 128 0 l 1
 128 256 l 1
 256 256 l 1
 256 384 l 1
 384 384 l 1
 384 512 l 1
 512 512 l 1
 512 640 l 1
 640 640 l 1
 640 768 l 1
 128 768 l 1
 128 896 l 1
 896 896 l 1
EndSplineSet
Validated: 1
EndChar

StartChar: Eta
Encoding: 919 919 208
Width: 1024
GlyphClass: 1
Flags: W
LayerCount: 2
Fore
SplineSet
640 896 m 1
 896 896 l 1
 896 0 l 1
 640 0 l 1
 640 384 l 1
 384 384 l 1
 384 0 l 1
 128 0 l 1
 128 896 l 1
 384 896 l 1
 384 512 l 1
 640 512 l 1
 640 896 l 1
EndSplineSet
Validated: 1
EndChar

StartChar: Theta
Encoding: 920 920 209
Width: 1024
GlyphClass: 1
Flags: W
LayerCount: 2
Fore
SplineSet
768 896 m 1
 768 768 l 1
 896 768 l 1
 896 128 l 1
 768 128 l 1
 768 0 l 1
 256 0 l 1
 256 128 l 1
 128 128 l 1
 128 768 l 1
 256 768 l 1
 256 896 l 1
 768 896 l 1
384 128 m 1
 640 128 l 1
 640 768 l 1
 384 768 l 1
 384 128 l 1
EndSplineSet
Validated: 1
EndChar

StartChar: Iota
Encoding: 921 921 210
Width: 1024
GlyphClass: 1
Flags: W
LayerCount: 2
Fore
SplineSet
640 128 m 1
 768 128 l 1
 768 0 l 1
 256 0 l 1
 256 128 l 1
 384 128 l 1
 384 768 l 1
 256 768 l 1
 256 896 l 1
 768 896 l 1
 768 768 l 1
 640 768 l 1
 640 128 l 1
EndSplineSet
Validated: 1
EndChar

StartChar: Kappa
Encoding: 922 922 211
Width: 1024
GlyphClass: 1
Flags: W
LayerCount: 2
Fore
SplineSet
640 896 m 1
 896 896 l 1
 896 640 l 1
 768 640 l 1
 768 512 l 1
 640 512 l 1
 640 384 l 1
 768 384 l 1
 768 256 l 1
 896 256 l 1
 896 0 l 1
 640 0 l 1
 640 256 l 1
 512 256 l 1
 512 384 l 1
 384 384 l 1
 384 0 l 1
 128 0 l 1
 128 896 l 1
 384 896 l 1
 384 512 l 1
 512 512 l 1
 512 640 l 1
 640 640 l 1
 640 896 l 1
EndSplineSet
Validated: 1
EndChar

StartChar: Lambda
Encoding: 923 923 212
Width: 1024
GlyphClass: 1
Flags: W
LayerCount: 2
Fore
SplineSet
768 768 m 1
 768 640 l 1
 896 640 l 1
 896 0 l 1
 640 0 l 1
 640 640 l 1
 384 640 l 1
 384 0 l 1
 128 0 l 1
 128 640 l 1
 256 640 l 1
 256 768 l 1
 384 768 l 1
 384 896 l 1
 640 896 l 1
 640 768 l 1
 768 768 l 1
EndSplineSet
Validated: 1
EndChar

StartChar: Mu
Encoding: 924 924 213
Width: 1024
GlyphClass: 1
Flags: W
LayerCount: 2
Fore
SplineSet
640 896 m 1
 896 896 l 1
 896 0 l 1
 640 0 l 1
 640 512 l 1
 512 512 l 1
 512 384 l 1
 384 384 l 1
 384 512 l 1
 256 512 l 1
 256 0 l 1
 0 0 l 1
 0 896 l 1
 256 896 l 1
 256 768 l 1
 384 768 l 1
 384 640 l 1
 512 640 l 1
 512 768 l 1
 640 768 l 1
 640 896 l 1
EndSplineSet
Validated: 1
EndChar

StartChar: Nu
Encoding: 925 925 214
Width: 1024
GlyphClass: 1
Flags: W
LayerCount: 2
Fore
SplineSet
640 896 m 1
 896 896 l 1
 896 0 l 1
 640 0 l 1
 640 384 l 1
 512 384 l 1
 512 512 l 1
 384 512 l 1
 384 0 l 1
 128 0 l 1
 128 896 l 1
 384 896 l 1
 384 768 l 1
 512 768 l 1
 512 640 l 1
 640 640 l 1
 640 896 l 1
EndSplineSet
Validated: 1
EndChar

StartChar: Xi
Encoding: 926 926 215
Width: 1024
GlyphClass: 1
Flags: W
LayerCount: 2
Fore
SplineSet
896 896 m 1
 896 768 l 1
 128 768 l 1
 128 896 l 1
 896 896 l 1
256 384 m 1
 256 512 l 1
 768 512 l 1
 768 384 l 1
 256 384 l 1
896 128 m 1
 896 0 l 1
 128 0 l 1
 128 128 l 1
 896 128 l 1
EndSplineSet
Validated: 1
EndChar

StartChar: Omicron
Encoding: 927 927 216
Width: 1024
GlyphClass: 1
Flags: W
LayerCount: 2
Fore
SplineSet
768 896 m 1
 768 768 l 1
 896 768 l 1
 896 128 l 1
 768 128 l 1
 768 0 l 1
 256 0 l 1
 256 128 l 1
 128 128 l 1
 128 768 l 1
 256 768 l 1
 256 896 l 1
 768 896 l 1
384 128 m 1
 640 128 l 1
 640 768 l 1
 384 768 l 1
 384 128 l 1
EndSplineSet
Validated: 1
EndChar

StartChar: Pi
Encoding: 928 928 217
Width: 1024
GlyphClass: 1
Flags: W
LayerCount: 2
Fore
SplineSet
896 896 m 1
 896 0 l 1
 640 0 l 1
 640 768 l 1
 384 768 l 1
 384 0 l 1
 128 0 l 1
 128 896 l 1
 896 896 l 1
EndSplineSet
Validated: 1
EndChar

StartChar: Rho
Encoding: 929 929 218
Width: 1024
GlyphClass: 1
Flags: W
LayerCount: 2
Fore
SplineSet
768 896 m 1
 768 768 l 1
 896 768 l 1
 896 512 l 1
 768 512 l 1
 768 384 l 1
 384 384 l 1
 384 0 l 1
 128 0 l 1
 128 896 l 1
 768 896 l 1
384 512 m 1
 640 512 l 1
 640 768 l 1
 384 768 l 1
 384 512 l 1
EndSplineSet
Validated: 1
EndChar

StartChar: Sigma
Encoding: 931 931 219
Width: 1024
GlyphClass: 1
Flags: W
LayerCount: 2
Fore
SplineSet
896 896 m 1
 896 640 l 1
 640 640 l 1
 640 768 l 1
 384 768 l 1
 384 640 l 1
 512 640 l 1
 512 512 l 1
 640 512 l 1
 640 384 l 1
 512 384 l 1
 512 256 l 1
 384 256 l 1
 384 128 l 1
 640 128 l 1
 640 256 l 1
 896 256 l 1
 896 0 l 1
 128 0 l 1
 128 256 l 1
 256 256 l 1
 256 384 l 1
 384 384 l 1
 384 512 l 1
 256 512 l 1
 256 640 l 1
 128 640 l 1
 128 896 l 1
 896 896 l 1
EndSplineSet
Validated: 1
EndChar

StartChar: Tau
Encoding: 932 932 220
Width: 1024
GlyphClass: 1
Flags: W
LayerCount: 2
Fore
SplineSet
896 896 m 1
 896 768 l 1
 640 768 l 1
 640 0 l 1
 384 0 l 1
 384 768 l 1
 128 768 l 1
 128 896 l 1
 896 896 l 1
EndSplineSet
Validated: 1
EndChar

StartChar: Upsilon
Encoding: 933 933 221
Width: 1024
GlyphClass: 1
Flags: W
LayerCount: 2
Fore
SplineSet
640 896 m 1
 896 896 l 1
 896 512 l 1
 768 512 l 1
 768 384 l 1
 640 384 l 1
 640 0 l 1
 384 0 l 1
 384 384 l 1
 256 384 l 1
 256 512 l 1
 128 512 l 1
 128 896 l 1
 384 896 l 1
 384 512 l 1
 640 512 l 1
 640 896 l 1
EndSplineSet
Validated: 1
EndChar

StartChar: Phi
Encoding: 934 934 222
Width: 1024
GlyphClass: 1
Flags: W
LayerCount: 2
Fore
SplineSet
768 896 m 1
 768 768 l 1
 896 768 l 1
 896 128 l 1
 768 128 l 1
 768 0 l 1
 128 0 l 1
 128 128 l 1
 0 128 l 1
 0 768 l 1
 128 768 l 1
 128 896 l 1
 768 896 l 1
256 128 m 1
 384 128 l 1
 384 768 l 1
 256 768 l 1
 256 128 l 1
512 128 m 1
 640 128 l 1
 640 768 l 1
 512 768 l 1
 512 128 l 1
EndSplineSet
Validated: 1
EndChar

StartChar: Chi
Encoding: 935 935 223
Width: 1024
GlyphClass: 1
Flags: W
LayerCount: 2
Fore
SplineSet
640 896 m 1
 896 896 l 1
 896 640 l 1
 768 640 l 1
 768 512 l 1
 640 512 l 1
 640 384 l 1
 768 384 l 1
 768 256 l 1
 896 256 l 1
 896 0 l 1
 640 0 l 1
 640 256 l 1
 384 256 l 1
 384 0 l 1
 128 0 l 1
 128 256 l 1
 256 256 l 1
 256 384 l 1
 384 384 l 1
 384 512 l 1
 256 512 l 1
 256 640 l 1
 128 640 l 1
 128 896 l 1
 384 896 l 1
 384 640 l 1
 640 640 l 1
 640 896 l 1
EndSplineSet
Validated: 1
EndChar

StartChar: Psi
Encoding: 936 936 224
Width: 1024
GlyphClass: 1
Flags: W
LayerCount: 2
Fore
SplineSet
640 896 m 1
 896 896 l 1
 896 384 l 1
 768 384 l 1
 768 256 l 1
 512 256 l 1
 512 0 l 1
 384 0 l 1
 384 256 l 1
 128 256 l 1
 128 384 l 1
 0 384 l 1
 0 896 l 1
 256 896 l 1
 256 384 l 1
 384 384 l 1
 384 896 l 1
 512 896 l 1
 512 384 l 1
 640 384 l 1
 640 896 l 1
EndSplineSet
Validated: 1
EndChar

StartChar: uni03A9
Encoding: 937 937 225
Width: 1024
GlyphClass: 1
Flags: W
LayerCount: 2
Fore
SplineSet
768 896 m 1
 768 768 l 1
 896 768 l 1
 896 256 l 1
 768 256 l 1
 768 128 l 1
 896 128 l 1
 896 0 l 1
 640 0 l 1
 640 768 l 1
 384 768 l 1
 384 0 l 1
 128 0 l 1
 128 128 l 1
 256 128 l 1
 256 256 l 1
 128 256 l 1
 128 768 l 1
 256 768 l 1
 256 896 l 1
 768 896 l 1
EndSplineSet
Validated: 1
EndChar

StartChar: Alphatonos
Encoding: 902 902 226
Width: 1024
GlyphClass: 1
Flags: W
LayerCount: 2
Fore
SplineSet
0 896 m 1
 128 896 l 1
 128 640 l 1
 0 640 l 1
 0 896 l 1
768 768 m 1
 768 640 l 1
 896 640 l 1
 896 0 l 1
 640 0 l 1
 640 256 l 1
 384 256 l 1
 384 0 l 1
 128 0 l 1
 128 640 l 1
 256 640 l 1
 256 768 l 1
 384 768 l 1
 384 896 l 1
 640 896 l 1
 640 768 l 1
 768 768 l 1
384 384 m 1
 640 384 l 1
 640 640 l 1
 384 640 l 1
 384 384 l 1
EndSplineSet
Validated: 5
EndChar

StartChar: Epsilontonos
Encoding: 904 904 227
Width: 1024
GlyphClass: 1
Flags: W
LayerCount: 2
Fore
SplineSet
0 640 m 1
 0 896 l 1
 128 896 l 1
 128 640 l 1
 0 640 l 1
512 768 m 1
 512 512 l 1
 768 512 l 1
 768 384 l 1
 512 384 l 1
 512 128 l 1
 896 128 l 1
 896 0 l 1
 256 0 l 1
 256 896 l 1
 896 896 l 1
 896 768 l 1
 512 768 l 1
EndSplineSet
Validated: 1
EndChar

StartChar: Etatonos
Encoding: 905 905 228
Width: 1024
GlyphClass: 1
Flags: W
LayerCount: 2
Fore
SplineSet
0 640 m 1
 0 896 l 1
 128 896 l 1
 128 640 l 1
 0 640 l 1
640 896 m 1
 896 896 l 1
 896 0 l 1
 640 0 l 1
 640 384 l 1
 512 384 l 1
 512 0 l 1
 256 0 l 1
 256 896 l 1
 512 896 l 1
 512 512 l 1
 640 512 l 1
 640 896 l 1
EndSplineSet
Validated: 1
EndChar

StartChar: Iotatonos
Encoding: 906 906 229
Width: 1024
GlyphClass: 1
Flags: W
LayerCount: 2
Fore
SplineSet
0 640 m 1
 0 896 l 1
 128 896 l 1
 128 640 l 1
 0 640 l 1
640 128 m 1
 768 128 l 1
 768 0 l 1
 256 0 l 1
 256 128 l 1
 384 128 l 1
 384 768 l 1
 256 768 l 1
 256 896 l 1
 768 896 l 1
 768 768 l 1
 640 768 l 1
 640 128 l 1
EndSplineSet
Validated: 1
EndChar

StartChar: Omicrontonos
Encoding: 908 908 230
Width: 1024
GlyphClass: 1
Flags: W
LayerCount: 2
Fore
SplineSet
768 896 m 1
 768 768 l 1
 896 768 l 1
 896 128 l 1
 768 128 l 1
 768 0 l 1
 256 0 l 1
 256 128 l 1
 128 128 l 1
 128 640 l 1
 0 640 l 1
 0 896 l 1
 128 896 l 1
 128 768 l 1
 256 768 l 1
 256 896 l 1
 768 896 l 1
384 128 m 1
 640 128 l 1
 640 768 l 1
 384 768 l 1
 384 128 l 1
EndSplineSet
Validated: 1
EndChar

StartChar: Upsilontonos
Encoding: 910 910 231
Width: 1024
GlyphClass: 1
Flags: W
LayerCount: 2
Fore
SplineSet
0 640 m 1
 0 896 l 1
 128 896 l 1
 128 640 l 1
 0 640 l 1
640 896 m 1
 896 896 l 1
 896 512 l 1
 768 512 l 1
 768 0 l 1
 512 0 l 1
 512 384 l 1
 384 384 l 1
 384 512 l 1
 256 512 l 1
 256 896 l 1
 512 896 l 1
 512 512 l 1
 640 512 l 1
 640 896 l 1
EndSplineSet
Validated: 1
EndChar

StartChar: Omegatonos
Encoding: 911 911 232
Width: 1024
GlyphClass: 1
Flags: W
LayerCount: 2
Fore
SplineSet
0 640 m 1
 0 896 l 1
 128 896 l 1
 128 640 l 1
 0 640 l 1
768 896 m 1
 768 768 l 1
 896 768 l 1
 896 256 l 1
 768 256 l 1
 768 128 l 1
 896 128 l 1
 896 0 l 1
 640 0 l 1
 640 768 l 1
 512 768 l 1
 512 0 l 1
 256 0 l 1
 256 128 l 1
 384 128 l 1
 384 256 l 1
 256 256 l 1
 256 768 l 1
 384 768 l 1
 384 896 l 1
 768 896 l 1
EndSplineSet
Validated: 1
EndChar

StartChar: Iotadieresis
Encoding: 938 938 233
Width: 1024
GlyphClass: 1
Flags: W
LayerCount: 2
Fore
SplineSet
256 896 m 1
 384 896 l 1
 384 768 l 1
 256 768 l 1
 256 896 l 1
640 768 m 1
 640 896 l 1
 768 896 l 1
 768 768 l 1
 640 768 l 1
768 640 m 1
 768 512 l 1
 640 512 l 1
 640 128 l 1
 768 128 l 1
 768 0 l 1
 256 0 l 1
 256 128 l 1
 384 128 l 1
 384 512 l 1
 256 512 l 1
 256 640 l 1
 768 640 l 1
EndSplineSet
Validated: 1
EndChar

StartChar: Upsilondieresis
Encoding: 939 939 234
Width: 1024
GlyphClass: 1
Flags: W
LayerCount: 2
Fore
SplineSet
256 896 m 1
 384 896 l 1
 384 768 l 1
 256 768 l 1
 256 896 l 1
640 896 m 1
 768 896 l 1
 768 768 l 1
 640 768 l 1
 640 896 l 1
640 640 m 1
 896 640 l 1
 896 384 l 1
 768 384 l 1
 768 256 l 1
 640 256 l 1
 640 0 l 1
 384 0 l 1
 384 256 l 1
 256 256 l 1
 256 384 l 1
 128 384 l 1
 128 640 l 1
 384 640 l 1
 384 384 l 1
 640 384 l 1
 640 640 l 1
EndSplineSet
Validated: 1
EndChar

StartChar: alpha
Encoding: 945 945 235
Width: 1024
GlyphClass: 1
Flags: W
LayerCount: 2
Fore
SplineSet
896 512 m 1
 896 384 l 1
 768 384 l 1
 768 256 l 1
 896 256 l 1
 896 128 l 1
 1024 128 l 1
 1024 0 l 1
 768 0 l 1
 768 128 l 1
 640 128 l 1
 640 0 l 1
 256 0 l 1
 256 128 l 1
 128 128 l 1
 128 512 l 1
 256 512 l 1
 256 640 l 1
 640 640 l 1
 640 512 l 1
 768 512 l 1
 768 640 l 1
 1024 640 l 1
 1024 512 l 1
 896 512 l 1
384 128 m 1
 512 128 l 1
 512 512 l 1
 384 512 l 1
 384 128 l 1
EndSplineSet
Validated: 1
EndChar

StartChar: beta
Encoding: 946 946 236
Width: 1024
GlyphClass: 1
Flags: W
LayerCount: 2
Fore
SplineSet
896 640 m 1
 896 512 l 1
 768 512 l 1
 768 384 l 1
 896 384 l 1
 896 128 l 1
 768 128 l 1
 768 0 l 1
 512 0 l 1
 512 -128 l 1
 256 -128 l 1
 256 640 l 1
 384 640 l 1
 384 768 l 1
 768 768 l 1
 768 640 l 1
 896 640 l 1
512 640 m 1
 512 512 l 1
 640 512 l 1
 640 640 l 1
 512 640 l 1
640 128 m 1
 640 384 l 1
 512 384 l 1
 512 128 l 1
 640 128 l 1
EndSplineSet
Validated: 1
EndChar

StartChar: gamma
Encoding: 947 947 237
Width: 1024
GlyphClass: 1
Flags: W
LayerCount: 2
Fore
SplineSet
640 640 m 1
 896 640 l 1
 896 256 l 1
 768 256 l 1
 768 128 l 1
 640 128 l 1
 640 -128 l 1
 384 -128 l 1
 384 128 l 1
 256 128 l 1
 256 256 l 1
 128 256 l 1
 128 640 l 1
 384 640 l 1
 384 256 l 1
 640 256 l 1
 640 640 l 1
EndSplineSet
Validated: 1
EndChar

StartChar: delta
Encoding: 948 948 238
Width: 1024
GlyphClass: 1
Flags: W
LayerCount: 2
Fore
SplineSet
768 512 m 1
 768 384 l 1
 896 384 l 1
 896 128 l 1
 768 128 l 1
 768 0 l 1
 256 0 l 1
 256 128 l 1
 128 128 l 1
 128 384 l 1
 256 384 l 1
 256 512 l 1
 128 512 l 1
 128 640 l 1
 256 640 l 1
 256 768 l 1
 768 768 l 1
 768 640 l 1
 384 640 l 1
 384 512 l 1
 768 512 l 1
384 128 m 1
 640 128 l 1
 640 384 l 1
 384 384 l 1
 384 128 l 1
EndSplineSet
Validated: 1
EndChar

StartChar: epsilon
Encoding: 949 949 239
Width: 1024
GlyphClass: 1
Flags: W
LayerCount: 2
Fore
SplineSet
896 384 m 1
 640 384 l 1
 640 512 l 1
 384 512 l 1
 384 384 l 1
 512 384 l 1
 512 256 l 1
 384 256 l 1
 384 128 l 1
 640 128 l 1
 640 256 l 1
 896 256 l 1
 896 128 l 1
 768 128 l 1
 768 0 l 1
 256 0 l 1
 256 128 l 1
 128 128 l 1
 128 512 l 1
 256 512 l 1
 256 640 l 1
 768 640 l 1
 768 512 l 1
 896 512 l 1
 896 384 l 1
EndSplineSet
Validated: 1
EndChar

StartChar: zeta
Encoding: 950 950 240
Width: 1024
GlyphClass: 1
Flags: W
LayerCount: 2
Fore
SplineSet
768 128 m 1
 768 0 l 1
 896 0 l 1
 896 -128 l 1
 640 -128 l 1
 640 0 l 1
 384 0 l 1
 384 128 l 1
 256 128 l 1
 256 384 l 1
 384 384 l 1
 384 512 l 1
 512 512 l 1
 512 640 l 1
 256 640 l 1
 256 768 l 1
 768 768 l 1
 768 512 l 1
 640 512 l 1
 640 384 l 1
 512 384 l 1
 512 128 l 1
 768 128 l 1
EndSplineSet
Validated: 1
EndChar

StartChar: eta
Encoding: 951 951 241
Width: 1024
GlyphClass: 1
Flags: W
LayerCount: 2
Fore
SplineSet
256 640 m 1
 256 512 l 1
 384 512 l 1
 384 0 l 1
 128 0 l 1
 128 512 l 1
 0 512 l 1
 0 640 l 1
 256 640 l 1
768 640 m 1
 768 512 l 1
 896 512 l 1
 896 -128 l 1
 640 -128 l 1
 640 512 l 1
 384 512 l 1
 384 640 l 1
 768 640 l 1
EndSplineSet
Validated: 5
EndChar

StartChar: theta
Encoding: 952 952 242
Width: 1024
GlyphClass: 1
Flags: W
LayerCount: 2
Fore
SplineSet
768 768 m 1
 768 640 l 1
 896 640 l 1
 896 128 l 1
 768 128 l 1
 768 0 l 1
 256 0 l 1
 256 128 l 1
 128 128 l 1
 128 640 l 1
 256 640 l 1
 256 768 l 1
 768 768 l 1
640 640 m 1
 384 640 l 1
 384 512 l 1
 640 512 l 1
 640 640 l 1
384 128 m 1
 640 128 l 1
 640 384 l 1
 384 384 l 1
 384 128 l 1
EndSplineSet
Validated: 1
EndChar

StartChar: iota
Encoding: 953 953 243
Width: 1024
GlyphClass: 1
Flags: W
LayerCount: 2
Fore
SplineSet
640 128 m 1
 768 128 l 1
 768 0 l 1
 512 0 l 1
 512 128 l 1
 384 128 l 1
 384 640 l 1
 640 640 l 1
 640 128 l 1
EndSplineSet
Validated: 1
EndChar

StartChar: kappa
Encoding: 954 954 244
Width: 1024
GlyphClass: 1
Flags: W
LayerCount: 2
Fore
SplineSet
640 640 m 1
 896 640 l 1
 896 384 l 1
 640 384 l 1
 640 256 l 1
 768 256 l 1
 768 128 l 1
 896 128 l 1
 896 0 l 1
 640 0 l 1
 640 128 l 1
 512 128 l 1
 512 256 l 1
 384 256 l 1
 384 0 l 1
 128 0 l 1
 128 640 l 1
 384 640 l 1
 384 384 l 1
 512 384 l 1
 512 512 l 1
 640 512 l 1
 640 640 l 1
EndSplineSet
Validated: 1
EndChar

StartChar: lambda
Encoding: 955 955 245
Width: 1024
GlyphClass: 1
Flags: W
LayerCount: 2
Fore
SplineSet
768 256 m 1
 896 256 l 1
 896 0 l 1
 640 0 l 1
 640 256 l 1
 512 256 l 1
 512 128 l 1
 384 128 l 1
 384 0 l 1
 128 0 l 1
 128 128 l 1
 256 128 l 1
 256 256 l 1
 384 256 l 1
 384 384 l 1
 512 384 l 1
 512 512 l 1
 384 512 l 1
 384 640 l 1
 256 640 l 1
 256 768 l 1
 512 768 l 1
 512 640 l 1
 640 640 l 1
 640 512 l 1
 768 512 l 1
 768 256 l 1
EndSplineSet
Validated: 1
EndChar

StartChar: uni03BC
Encoding: 956 956 246
Width: 1024
GlyphClass: 1
Flags: W
LayerCount: 2
Fore
SplineSet
384 128 m 1
 640 128 l 1
 640 0 l 1
 384 0 l 1
 384 -128 l 1
 128 -128 l 1
 128 640 l 1
 384 640 l 1
 384 128 l 1
896 128 m 1
 1024 128 l 1
 1024 0 l 1
 768 0 l 1
 768 128 l 1
 640 128 l 1
 640 640 l 1
 896 640 l 1
 896 128 l 1
EndSplineSet
Validated: 5
EndChar

StartChar: nu
Encoding: 957 957 247
Width: 1024
GlyphClass: 1
Flags: W
LayerCount: 2
Fore
SplineSet
640 640 m 1
 896 640 l 1
 896 256 l 1
 768 256 l 1
 768 128 l 1
 640 128 l 1
 640 0 l 1
 384 0 l 1
 384 128 l 1
 256 128 l 1
 256 384 l 1
 128 384 l 1
 128 640 l 1
 384 640 l 1
 384 384 l 1
 512 384 l 1
 512 256 l 1
 640 256 l 1
 640 640 l 1
EndSplineSet
Validated: 1
EndChar

StartChar: xi
Encoding: 958 958 248
Width: 1024
GlyphClass: 1
Flags: W
LayerCount: 2
Fore
SplineSet
640 512 m 1
 384 512 l 1
 384 384 l 1
 640 384 l 1
 640 256 l 1
 384 256 l 1
 384 128 l 1
 640 128 l 1
 640 0 l 1
 768 0 l 1
 768 -128 l 1
 512 -128 l 1
 512 0 l 1
 256 0 l 1
 256 128 l 1
 128 128 l 1
 128 256 l 1
 256 256 l 1
 256 384 l 1
 128 384 l 1
 128 512 l 1
 256 512 l 1
 256 640 l 1
 128 640 l 1
 128 768 l 1
 768 768 l 1
 768 640 l 1
 640 640 l 1
 640 512 l 1
EndSplineSet
Validated: 1
EndChar

StartChar: omicron
Encoding: 959 959 249
Width: 1024
GlyphClass: 1
Flags: W
LayerCount: 2
Fore
SplineSet
768 640 m 1
 768 512 l 1
 896 512 l 1
 896 128 l 1
 768 128 l 1
 768 0 l 1
 256 0 l 1
 256 128 l 1
 128 128 l 1
 128 512 l 1
 256 512 l 1
 256 640 l 1
 768 640 l 1
384 128 m 1
 640 128 l 1
 640 512 l 1
 384 512 l 1
 384 128 l 1
EndSplineSet
Validated: 1
EndChar

StartChar: pi
Encoding: 960 960 250
Width: 1024
GlyphClass: 1
Flags: W
LayerCount: 2
Fore
SplineSet
768 512 m 1
 768 128 l 1
 896 128 l 1
 896 0 l 1
 640 0 l 1
 640 128 l 1
 512 128 l 1
 512 512 l 1
 384 512 l 1
 384 0 l 1
 128 0 l 1
 128 512 l 1
 0 512 l 1
 0 640 l 1
 896 640 l 1
 896 512 l 1
 768 512 l 1
EndSplineSet
Validated: 1
EndChar

StartChar: rho
Encoding: 961 961 251
Width: 1024
GlyphClass: 1
Flags: W
LayerCount: 2
Fore
SplineSet
768 640 m 1
 768 512 l 1
 896 512 l 1
 896 128 l 1
 768 128 l 1
 768 0 l 1
 384 0 l 1
 384 -128 l 1
 128 -128 l 1
 128 512 l 1
 256 512 l 1
 256 640 l 1
 768 640 l 1
384 128 m 1
 640 128 l 1
 640 512 l 1
 384 512 l 1
 384 128 l 1
EndSplineSet
Validated: 1
EndChar

StartChar: uni03C2
Encoding: 962 962 252
Width: 1024
GlyphClass: 1
Flags: W
LayerCount: 2
Fore
SplineSet
896 384 m 1
 640 384 l 1
 640 512 l 1
 384 512 l 1
 384 128 l 1
 896 128 l 1
 896 -128 l 1
 640 -128 l 1
 640 0 l 1
 256 0 l 1
 256 128 l 1
 128 128 l 1
 128 512 l 1
 256 512 l 1
 256 640 l 1
 768 640 l 1
 768 512 l 1
 896 512 l 1
 896 384 l 1
EndSplineSet
Validated: 1
EndChar

StartChar: sigma
Encoding: 963 963 253
Width: 1024
GlyphClass: 1
Flags: W
LayerCount: 2
Fore
SplineSet
1024 640 m 1
 1024 512 l 1
 896 512 l 1
 896 128 l 1
 768 128 l 1
 768 0 l 1
 256 0 l 1
 256 128 l 1
 128 128 l 1
 128 512 l 1
 256 512 l 1
 256 640 l 1
 1024 640 l 1
384 128 m 1
 640 128 l 1
 640 512 l 1
 384 512 l 1
 384 128 l 1
EndSplineSet
Validated: 1
EndChar

StartChar: tau
Encoding: 964 964 254
Width: 1024
GlyphClass: 1
Flags: W
LayerCount: 2
Fore
SplineSet
640 512 m 1
 640 128 l 1
 768 128 l 1
 768 0 l 1
 512 0 l 1
 512 128 l 1
 384 128 l 1
 384 512 l 1
 256 512 l 1
 256 640 l 1
 768 640 l 1
 768 512 l 1
 640 512 l 1
EndSplineSet
Validated: 1
EndChar

StartChar: upsilon
Encoding: 965 965 255
Width: 1024
GlyphClass: 1
Flags: W
LayerCount: 2
Fore
SplineSet
768 640 m 1
 768 512 l 1
 896 512 l 1
 896 128 l 1
 768 128 l 1
 768 0 l 1
 256 0 l 1
 256 128 l 1
 128 128 l 1
 128 640 l 1
 384 640 l 1
 384 128 l 1
 640 128 l 1
 640 512 l 1
 512 512 l 1
 512 640 l 1
 768 640 l 1
EndSplineSet
Validated: 1
EndChar

StartChar: phi
Encoding: 966 966 256
Width: 1024
GlyphClass: 1
Flags: W
LayerCount: 2
Fore
SplineSet
768 640 m 1
 768 512 l 1
 896 512 l 1
 896 128 l 1
 768 128 l 1
 768 0 l 1
 128 0 l 1
 128 128 l 1
 0 128 l 1
 0 512 l 1
 128 512 l 1
 128 640 l 1
 768 640 l 1
256 128 m 1
 384 128 l 1
 384 512 l 1
 256 512 l 1
 256 128 l 1
512 128 m 1
 640 128 l 1
 640 512 l 1
 512 512 l 1
 512 128 l 1
EndSplineSet
Validated: 1
EndChar

StartChar: chi
Encoding: 967 967 257
Width: 1024
GlyphClass: 1
Flags: W
LayerCount: 2
Fore
SplineSet
512 512 m 1
 512 384 l 1
 640 384 l 1
 640 256 l 1
 768 256 l 1
 768 128 l 1
 896 128 l 1
 896 0 l 1
 640 0 l 1
 640 128 l 1
 512 128 l 1
 512 256 l 1
 384 256 l 1
 384 384 l 1
 256 384 l 1
 256 512 l 1
 128 512 l 1
 128 640 l 1
 384 640 l 1
 384 512 l 1
 512 512 l 1
768 640 m 1
 896 640 l 1
 896 512 l 1
 768 512 l 1
 768 640 l 1
640 512 m 1
 768 512 l 1
 768 384 l 1
 640 384 l 1
 640 512 l 1
384 128 m 1
 256 128 l 1
 256 256 l 1
 384 256 l 1
 384 128 l 1
256 0 m 1
 128 0 l 1
 128 128 l 1
 256 128 l 1
 256 0 l 1
EndSplineSet
Validated: 5
EndChar

StartChar: psi
Encoding: 968 968 258
Width: 1024
GlyphClass: 1
Flags: W
LayerCount: 2
Fore
SplineSet
640 512 m 1
 896 512 l 1
 896 128 l 1
 768 128 l 1
 768 0 l 1
 512 0 l 1
 512 -128 l 1
 384 -128 l 1
 384 0 l 1
 128 0 l 1
 128 128 l 1
 0 128 l 1
 0 512 l 1
 256 512 l 1
 256 128 l 1
 384 128 l 1
 384 640 l 1
 512 640 l 1
 512 128 l 1
 640 128 l 1
 640 512 l 1
EndSplineSet
Validated: 1
EndChar

StartChar: omega
Encoding: 969 969 259
Width: 1024
GlyphClass: 1
Flags: W
LayerCount: 2
Fore
SplineSet
256 128 m 1
 384 128 l 1
 384 0 l 1
 128 0 l 1
 128 128 l 1
 0 128 l 1
 0 512 l 1
 128 512 l 1
 128 640 l 1
 384 640 l 1
 384 512 l 1
 256 512 l 1
 256 128 l 1
768 640 m 1
 768 512 l 1
 896 512 l 1
 896 128 l 1
 768 128 l 1
 768 0 l 1
 512 0 l 1
 512 128 l 1
 640 128 l 1
 640 512 l 1
 512 512 l 1
 512 640 l 1
 768 640 l 1
384 384 m 1
 512 384 l 1
 512 128 l 1
 384 128 l 1
 384 384 l 1
EndSplineSet
Validated: 5
EndChar

StartChar: iotatonos
Encoding: 943 943 260
Width: 1024
GlyphClass: 1
Flags: W
LayerCount: 2
Fore
SplineSet
512 896 m 1
 640 896 l 1
 640 768 l 1
 512 768 l 1
 512 896 l 1
640 128 m 1
 768 128 l 1
 768 0 l 1
 512 0 l 1
 512 128 l 1
 384 128 l 1
 384 768 l 1
 512 768 l 1
 512 640 l 1
 640 640 l 1
 640 128 l 1
EndSplineSet
Validated: 5
EndChar

StartChar: iotadieresis
Encoding: 970 970 261
Width: 1024
GlyphClass: 1
Flags: W
LayerCount: 2
Fore
SplineSet
256 896 m 1
 384 896 l 1
 384 768 l 1
 256 768 l 1
 256 896 l 1
640 768 m 1
 640 896 l 1
 768 896 l 1
 768 768 l 1
 640 768 l 1
640 128 m 1
 768 128 l 1
 768 0 l 1
 512 0 l 1
 512 128 l 1
 384 128 l 1
 384 640 l 1
 640 640 l 1
 640 128 l 1
EndSplineSet
Validated: 1
EndChar

StartChar: iotadieresistonos
Encoding: 912 912 262
Width: 1024
GlyphClass: 1
Flags: W
LayerCount: 2
Fore
SplineSet
256 768 m 1
 128 768 l 1
 128 896 l 1
 256 896 l 1
 256 768 l 1
640 128 m 1
 768 128 l 1
 768 0 l 1
 512 0 l 1
 512 128 l 1
 384 128 l 1
 384 896 l 1
 512 896 l 1
 512 640 l 1
 640 640 l 1
 640 128 l 1
640 768 m 1
 640 896 l 1
 768 896 l 1
 768 768 l 1
 640 768 l 1
EndSplineSet
Validated: 1
EndChar

StartChar: upsilontonos
Encoding: 973 973 263
Width: 1024
GlyphClass: 1
Flags: W
LayerCount: 2
Fore
SplineSet
512 896 m 1
 640 896 l 1
 640 768 l 1
 512 768 l 1
 512 896 l 1
384 768 m 1
 512 768 l 1
 512 640 l 1
 384 640 l 1
 384 768 l 1
768 640 m 1
 768 512 l 1
 896 512 l 1
 896 128 l 1
 768 128 l 1
 768 0 l 1
 256 0 l 1
 256 128 l 1
 128 128 l 1
 128 640 l 1
 384 640 l 1
 384 128 l 1
 640 128 l 1
 640 512 l 1
 512 512 l 1
 512 640 l 1
 768 640 l 1
EndSplineSet
Validated: 5
EndChar

StartChar: upsilondieresis
Encoding: 971 971 264
Width: 1024
GlyphClass: 1
Flags: W
LayerCount: 2
Fore
SplineSet
256 896 m 1
 384 896 l 1
 384 768 l 1
 256 768 l 1
 256 896 l 1
640 896 m 1
 768 896 l 1
 768 768 l 1
 640 768 l 1
 640 896 l 1
768 640 m 1
 768 512 l 1
 896 512 l 1
 896 128 l 1
 768 128 l 1
 768 0 l 1
 256 0 l 1
 256 128 l 1
 128 128 l 1
 128 640 l 1
 384 640 l 1
 384 128 l 1
 640 128 l 1
 640 512 l 1
 512 512 l 1
 512 640 l 1
 768 640 l 1
EndSplineSet
Validated: 1
EndChar

StartChar: upsilondieresistonos
Encoding: 944 944 265
Width: 1024
GlyphClass: 1
Flags: W
LayerCount: 2
Fore
SplineSet
128 896 m 1
 256 896 l 1
 256 768 l 1
 128 768 l 1
 128 896 l 1
512 896 m 1
 512 640 l 1
 384 640 l 1
 384 896 l 1
 512 896 l 1
640 896 m 1
 768 896 l 1
 768 768 l 1
 640 768 l 1
 640 896 l 1
768 640 m 1
 768 512 l 1
 896 512 l 1
 896 128 l 1
 768 128 l 1
 768 0 l 1
 256 0 l 1
 256 128 l 1
 128 128 l 1
 128 640 l 1
 384 640 l 1
 384 128 l 1
 640 128 l 1
 640 512 l 1
 512 512 l 1
 512 640 l 1
 768 640 l 1
EndSplineSet
Validated: 5
EndChar

StartChar: omicrontonos
Encoding: 972 972 266
Width: 1024
GlyphClass: 1
Flags: W
LayerCount: 2
Fore
SplineSet
512 896 m 1
 640 896 l 1
 640 768 l 1
 512 768 l 1
 512 896 l 1
768 640 m 1
 768 512 l 1
 896 512 l 1
 896 128 l 1
 768 128 l 1
 768 0 l 1
 256 0 l 1
 256 128 l 1
 128 128 l 1
 128 512 l 1
 256 512 l 1
 256 640 l 1
 384 640 l 1
 384 768 l 1
 512 768 l 1
 512 640 l 1
 768 640 l 1
384 128 m 1
 640 128 l 1
 640 512 l 1
 384 512 l 1
 384 128 l 1
EndSplineSet
Validated: 5
EndChar

StartChar: omegatonos
Encoding: 974 974 267
Width: 1024
GlyphClass: 1
Flags: W
LayerCount: 2
Fore
SplineSet
512 896 m 1
 640 896 l 1
 640 768 l 1
 512 768 l 1
 512 896 l 1
384 768 m 1
 512 768 l 1
 512 640 l 1
 384 640 l 1
 384 768 l 1
256 128 m 1
 384 128 l 1
 384 0 l 1
 128 0 l 1
 128 128 l 1
 0 128 l 1
 0 512 l 1
 128 512 l 1
 128 640 l 1
 384 640 l 1
 384 512 l 1
 256 512 l 1
 256 128 l 1
768 640 m 1
 768 512 l 1
 896 512 l 1
 896 128 l 1
 768 128 l 1
 768 0 l 1
 512 0 l 1
 512 128 l 1
 640 128 l 1
 640 512 l 1
 512 512 l 1
 512 640 l 1
 768 640 l 1
384 384 m 1
 512 384 l 1
 512 128 l 1
 384 128 l 1
 384 384 l 1
EndSplineSet
Validated: 5
EndChar

StartChar: alphatonos
Encoding: 940 940 268
Width: 1024
GlyphClass: 1
Flags: W
LayerCount: 2
Fore
SplineSet
512 896 m 1
 640 896 l 1
 640 768 l 1
 512 768 l 1
 512 896 l 1
896 512 m 1
 896 384 l 1
 768 384 l 1
 768 256 l 1
 896 256 l 1
 896 128 l 1
 1024 128 l 1
 1024 0 l 1
 768 0 l 1
 768 128 l 1
 640 128 l 1
 640 0 l 1
 256 0 l 1
 256 128 l 1
 128 128 l 1
 128 512 l 1
 256 512 l 1
 256 640 l 1
 384 640 l 1
 384 768 l 1
 512 768 l 1
 512 640 l 1
 640 640 l 1
 640 512 l 1
 768 512 l 1
 768 640 l 1
 1024 640 l 1
 1024 512 l 1
 896 512 l 1
384 128 m 1
 512 128 l 1
 512 512 l 1
 384 512 l 1
 384 128 l 1
EndSplineSet
Validated: 5
EndChar

StartChar: epsilontonos
Encoding: 941 941 269
Width: 1024
GlyphClass: 1
Flags: W
LayerCount: 2
Fore
SplineSet
512 896 m 1
 640 896 l 1
 640 768 l 1
 512 768 l 1
 512 896 l 1
896 384 m 1
 640 384 l 1
 640 512 l 1
 384 512 l 1
 384 384 l 1
 512 384 l 1
 512 256 l 1
 384 256 l 1
 384 128 l 1
 640 128 l 1
 640 256 l 1
 896 256 l 1
 896 128 l 1
 768 128 l 1
 768 0 l 1
 256 0 l 1
 256 128 l 1
 128 128 l 1
 128 512 l 1
 256 512 l 1
 256 640 l 1
 384 640 l 1
 384 768 l 1
 512 768 l 1
 512 640 l 1
 768 640 l 1
 768 512 l 1
 896 512 l 1
 896 384 l 1
EndSplineSet
Validated: 5
EndChar

StartChar: etatonos
Encoding: 942 942 270
Width: 1024
GlyphClass: 1
Flags: W
LayerCount: 2
Fore
SplineSet
512 896 m 1
 640 896 l 1
 640 768 l 1
 512 768 l 1
 512 896 l 1
768 640 m 1
 768 512 l 1
 896 512 l 1
 896 -128 l 1
 640 -128 l 1
 640 512 l 1
 384 512 l 1
 384 768 l 1
 512 768 l 1
 512 640 l 1
 768 640 l 1
256 640 m 1
 256 512 l 1
 384 512 l 1
 384 0 l 1
 128 0 l 1
 128 512 l 1
 0 512 l 1
 0 640 l 1
 256 640 l 1
EndSplineSet
Validated: 5
EndChar

StartChar: uni05D0
Encoding: 1488 1488 271
Width: 1024
GlyphClass: 1
Flags: W
LayerCount: 2
Fore
SplineSet
640 640 m 1
 896 640 l 1
 896 384 l 1
 768 384 l 1
 768 128 l 1
 896 128 l 1
 896 0 l 1
 640 0 l 1
 640 128 l 1
 512 128 l 1
 512 256 l 1
 384 256 l 1
 384 0 l 1
 128 0 l 1
 128 256 l 1
 256 256 l 1
 256 512 l 1
 128 512 l 1
 128 640 l 1
 384 640 l 1
 384 512 l 1
 512 512 l 1
 512 384 l 1
 640 384 l 1
 640 640 l 1
EndSplineSet
Validated: 1
EndChar

StartChar: uni05D1
Encoding: 1489 1489 272
Width: 1024
GlyphClass: 1
Flags: W
LayerCount: 2
Fore
SplineSet
768 128 m 1
 896 128 l 1
 896 0 l 1
 256 0 l 1
 256 128 l 1
 512 128 l 1
 512 512 l 1
 256 512 l 1
 256 640 l 1
 640 640 l 1
 640 512 l 1
 768 512 l 1
 768 128 l 1
EndSplineSet
Validated: 1
EndChar

StartChar: uni05D2
Encoding: 1490 1490 273
Width: 1024
GlyphClass: 1
Flags: W
LayerCount: 2
Fore
SplineSet
640 256 m 1
 768 256 l 1
 768 0 l 1
 512 0 l 1
 512 256 l 1
 384 256 l 1
 384 128 l 1
 256 128 l 1
 256 0 l 1
 0 0 l 1
 0 128 l 1
 128 128 l 1
 128 256 l 1
 256 256 l 1
 256 384 l 1
 384 384 l 1
 384 512 l 1
 128 512 l 1
 128 640 l 1
 512 640 l 1
 512 512 l 1
 640 512 l 1
 640 256 l 1
EndSplineSet
Validated: 1
EndChar

StartChar: uni05D3
Encoding: 1491 1491 274
Width: 1024
GlyphClass: 1
Flags: W
LayerCount: 2
Fore
SplineSet
896 640 m 1
 896 512 l 1
 768 512 l 1
 768 0 l 1
 512 0 l 1
 512 512 l 1
 256 512 l 1
 256 640 l 1
 896 640 l 1
EndSplineSet
Validated: 1
EndChar

StartChar: uni05D4
Encoding: 1492 1492 275
Width: 1024
GlyphClass: 1
Flags: W
LayerCount: 2
Fore
SplineSet
768 640 m 1
 768 512 l 1
 896 512 l 1
 896 0 l 1
 640 0 l 1
 640 512 l 1
 128 512 l 1
 128 640 l 1
 768 640 l 1
128 384 m 1
 384 384 l 1
 384 0 l 1
 128 0 l 1
 128 384 l 1
EndSplineSet
Validated: 1
EndChar

StartChar: uni05D5
Encoding: 1493 1493 276
Width: 1024
GlyphClass: 1
Flags: W
LayerCount: 2
Fore
SplineSet
384 640 m 1
 640 640 l 1
 640 0 l 1
 384 0 l 1
 384 640 l 1
EndSplineSet
Validated: 1
EndChar

StartChar: uni05D6
Encoding: 1494 1494 277
Width: 1024
GlyphClass: 1
Flags: W
LayerCount: 2
Fore
SplineSet
896 640 m 1
 896 512 l 1
 768 512 l 1
 768 384 l 1
 640 384 l 1
 640 0 l 1
 384 0 l 1
 384 384 l 1
 512 384 l 1
 512 512 l 1
 256 512 l 1
 256 640 l 1
 896 640 l 1
EndSplineSet
Validated: 1
EndChar

StartChar: uni05D7
Encoding: 1495 1495 278
Width: 1024
GlyphClass: 1
Flags: W
LayerCount: 2
Fore
SplineSet
768 640 m 1
 768 512 l 1
 896 512 l 1
 896 0 l 1
 640 0 l 1
 640 512 l 1
 384 512 l 1
 384 0 l 1
 128 0 l 1
 128 640 l 1
 768 640 l 1
EndSplineSet
Validated: 1
EndChar

StartChar: uni05D8
Encoding: 1496 1496 279
Width: 1024
GlyphClass: 1
Flags: W
LayerCount: 2
Fore
SplineSet
768 640 m 1
 768 512 l 1
 896 512 l 1
 896 128 l 1
 768 128 l 1
 768 0 l 1
 256 0 l 1
 256 128 l 1
 128 128 l 1
 128 640 l 1
 384 640 l 1
 384 128 l 1
 640 128 l 1
 640 512 l 1
 512 512 l 1
 512 640 l 1
 768 640 l 1
EndSplineSet
Validated: 1
EndChar

StartChar: uni05D9
Encoding: 1497 1497 280
Width: 1024
GlyphClass: 1
Flags: W
LayerCount: 2
Fore
SplineSet
384 768 m 1
 640 768 l 1
 640 384 l 1
 384 384 l 1
 384 768 l 1
EndSplineSet
Validated: 1
EndChar

StartChar: uni05DA
Encoding: 1498 1498 281
Width: 1024
GlyphClass: 1
Flags: W
LayerCount: 2
Fore
SplineSet
640 640 m 1
 640 512 l 1
 768 512 l 1
 768 -128 l 1
 512 -128 l 1
 512 512 l 1
 256 512 l 1
 256 640 l 1
 640 640 l 1
EndSplineSet
Validated: 1
EndChar

StartChar: uni05DB
Encoding: 1499 1499 282
Width: 1024
GlyphClass: 1
Flags: W
LayerCount: 2
Fore
SplineSet
640 640 m 1
 640 512 l 1
 768 512 l 1
 768 128 l 1
 640 128 l 1
 640 0 l 1
 256 0 l 1
 256 128 l 1
 512 128 l 1
 512 512 l 1
 256 512 l 1
 256 640 l 1
 640 640 l 1
EndSplineSet
Validated: 1
EndChar

StartChar: uni05DC
Encoding: 1500 1500 283
Width: 1024
GlyphClass: 1
Flags: W
LayerCount: 2
Fore
SplineSet
768 640 m 1
 768 384 l 1
 640 384 l 1
 640 128 l 1
 512 128 l 1
 512 0 l 1
 256 0 l 1
 256 128 l 1
 384 128 l 1
 384 384 l 1
 512 384 l 1
 512 512 l 1
 128 512 l 1
 128 768 l 1
 384 768 l 1
 384 640 l 1
 768 640 l 1
EndSplineSet
Validated: 1
EndChar

StartChar: uni05DD
Encoding: 1501 1501 284
Width: 1024
GlyphClass: 1
Flags: W
LayerCount: 2
Fore
SplineSet
768 640 m 1
 768 512 l 1
 896 512 l 1
 896 0 l 1
 128 0 l 1
 128 640 l 1
 768 640 l 1
384 128 m 1
 640 128 l 1
 640 512 l 1
 384 512 l 1
 384 128 l 1
EndSplineSet
Validated: 1
EndChar

StartChar: uni05DE
Encoding: 1502 1502 285
Width: 1024
GlyphClass: 1
Flags: W
LayerCount: 2
Fore
SplineSet
768 640 m 1
 768 512 l 1
 896 512 l 1
 896 128 l 1
 768 128 l 1
 768 0 l 1
 512 0 l 1
 512 128 l 1
 640 128 l 1
 640 384 l 1
 512 384 l 1
 512 256 l 1
 384 256 l 1
 384 0 l 1
 128 0 l 1
 128 256 l 1
 256 256 l 1
 256 384 l 1
 128 384 l 1
 128 640 l 1
 384 640 l 1
 384 512 l 1
 512 512 l 1
 512 640 l 1
 768 640 l 1
EndSplineSet
Validated: 1
EndChar

StartChar: uni05DF
Encoding: 1503 1503 286
Width: 1024
GlyphClass: 1
Flags: W
LayerCount: 2
Fore
SplineSet
384 640 m 1
 640 640 l 1
 640 -128 l 1
 384 -128 l 1
 384 640 l 1
EndSplineSet
Validated: 1
EndChar

StartChar: uni05E0
Encoding: 1504 1504 287
Width: 1024
GlyphClass: 1
Flags: W
LayerCount: 2
Fore
SplineSet
640 640 m 1
 640 512 l 1
 768 512 l 1
 768 0 l 1
 384 0 l 1
 384 128 l 1
 512 128 l 1
 512 512 l 1
 384 512 l 1
 384 640 l 1
 640 640 l 1
EndSplineSet
Validated: 1
EndChar

StartChar: uni05E1
Encoding: 1505 1505 288
Width: 1024
GlyphClass: 1
Flags: W
LayerCount: 2
Fore
SplineSet
768 640 m 1
 768 512 l 1
 896 512 l 1
 896 128 l 1
 768 128 l 1
 768 0 l 1
 256 0 l 1
 256 128 l 1
 128 128 l 1
 128 640 l 1
 768 640 l 1
384 128 m 1
 640 128 l 1
 640 512 l 1
 384 512 l 1
 384 128 l 1
EndSplineSet
Validated: 1
EndChar

StartChar: uni05E2
Encoding: 1506 1506 289
Width: 1024
GlyphClass: 1
Flags: W
LayerCount: 2
Fore
SplineSet
640 640 m 1
 896 640 l 1
 896 128 l 1
 768 128 l 1
 768 0 l 1
 256 0 l 1
 256 128 l 1
 384 128 l 1
 384 256 l 1
 256 256 l 1
 256 384 l 1
 128 384 l 1
 128 640 l 1
 384 640 l 1
 384 384 l 1
 512 384 l 1
 512 256 l 1
 640 256 l 1
 640 640 l 1
EndSplineSet
Validated: 1
EndChar

StartChar: uni05E3
Encoding: 1507 1507 290
Width: 1024
GlyphClass: 1
Flags: W
LayerCount: 2
Fore
SplineSet
768 640 m 1
 768 512 l 1
 896 512 l 1
 896 -128 l 1
 640 -128 l 1
 640 512 l 1
 384 512 l 1
 384 256 l 1
 512 256 l 1
 512 128 l 1
 256 128 l 1
 256 256 l 1
 128 256 l 1
 128 640 l 1
 768 640 l 1
EndSplineSet
Validated: 1
EndChar

StartChar: uni05E4
Encoding: 1508 1508 291
Width: 1024
GlyphClass: 1
Flags: W
LayerCount: 2
Fore
SplineSet
768 640 m 1
 768 512 l 1
 896 512 l 1
 896 128 l 1
 768 128 l 1
 768 0 l 1
 256 0 l 1
 256 128 l 1
 640 128 l 1
 640 512 l 1
 384 512 l 1
 384 384 l 1
 512 384 l 1
 512 256 l 1
 256 256 l 1
 256 384 l 1
 128 384 l 1
 128 640 l 1
 768 640 l 1
EndSplineSet
Validated: 1
EndChar

StartChar: uni05E5
Encoding: 1509 1509 292
Width: 1024
GlyphClass: 1
Flags: W
LayerCount: 2
Fore
SplineSet
640 640 m 1
 896 640 l 1
 896 384 l 1
 768 384 l 1
 768 256 l 1
 640 256 l 1
 640 -128 l 1
 384 -128 l 1
 384 384 l 1
 256 384 l 1
 256 512 l 1
 128 512 l 1
 128 640 l 1
 384 640 l 1
 384 512 l 1
 512 512 l 1
 512 384 l 1
 640 384 l 1
 640 640 l 1
EndSplineSet
Validated: 1
EndChar

StartChar: uni05E6
Encoding: 1510 1510 293
Width: 1024
GlyphClass: 1
Flags: W
LayerCount: 2
Fore
SplineSet
640 640 m 1
 896 640 l 1
 896 384 l 1
 768 384 l 1
 768 0 l 1
 256 0 l 1
 256 128 l 1
 512 128 l 1
 512 256 l 1
 384 256 l 1
 384 384 l 1
 256 384 l 1
 256 512 l 1
 128 512 l 1
 128 640 l 1
 384 640 l 1
 384 512 l 1
 512 512 l 1
 512 384 l 1
 640 384 l 1
 640 640 l 1
EndSplineSet
Validated: 1
EndChar

StartChar: uni05E7
Encoding: 1511 1511 294
Width: 1024
GlyphClass: 1
Flags: W
LayerCount: 2
Fore
SplineSet
896 640 m 1
 896 256 l 1
 768 256 l 1
 768 0 l 1
 512 0 l 1
 512 256 l 1
 640 256 l 1
 640 512 l 1
 256 512 l 1
 256 640 l 1
 896 640 l 1
128 384 m 1
 384 384 l 1
 384 -128 l 1
 128 -128 l 1
 128 384 l 1
EndSplineSet
Validated: 1
EndChar

StartChar: uni05E8
Encoding: 1512 1512 295
Width: 1024
GlyphClass: 1
Flags: W
LayerCount: 2
Fore
SplineSet
640 640 m 1
 640 512 l 1
 768 512 l 1
 768 0 l 1
 512 0 l 1
 512 512 l 1
 256 512 l 1
 256 640 l 1
 640 640 l 1
EndSplineSet
Validated: 1
EndChar

StartChar: uni05E9
Encoding: 1513 1513 296
Width: 1024
GlyphClass: 1
Flags: W
LayerCount: 2
Fore
SplineSet
640 640 m 1
 896 640 l 1
 896 128 l 1
 768 128 l 1
 768 0 l 1
 128 0 l 1
 128 128 l 1
 0 128 l 1
 0 640 l 1
 256 640 l 1
 256 384 l 1
 384 384 l 1
 384 256 l 1
 256 256 l 1
 256 128 l 1
 640 128 l 1
 640 640 l 1
512 640 m 1
 512 384 l 1
 384 384 l 1
 384 640 l 1
 512 640 l 1
EndSplineSet
Validated: 5
EndChar

StartChar: uni05EA
Encoding: 1514 1514 297
Width: 1024
GlyphClass: 1
Flags: W
LayerCount: 2
Fore
SplineSet
768 640 m 1
 768 512 l 1
 896 512 l 1
 896 0 l 1
 640 0 l 1
 640 512 l 1
 512 512 l 1
 512 128 l 1
 384 128 l 1
 384 0 l 1
 128 0 l 1
 128 128 l 1
 256 128 l 1
 256 512 l 1
 128 512 l 1
 128 640 l 1
 768 640 l 1
EndSplineSet
Validated: 1
EndChar

StartChar: uni3042
Encoding: 12354 12354 298
Width: 1024
GlyphClass: 1
Flags: W
LayerCount: 2
Fore
SplineSet
512 640 m 1
 512 512 l 1
 768 512 l 1
 768 384 l 1
 896 384 l 1
 896 128 l 1
 768 128 l 1
 768 256 l 1
 640 256 l 1
 640 384 l 1
 512 384 l 1
 512 256 l 1
 640 256 l 1
 640 128 l 1
 512 128 l 1
 512 0 l 1
 256 0 l 1
 256 128 l 1
 384 128 l 1
 384 384 l 1
 256 384 l 1
 256 512 l 1
 384 512 l 1
 384 640 l 1
 128 640 l 1
 128 768 l 1
 384 768 l 1
 384 896 l 1
 512 896 l 1
 512 768 l 1
 896 768 l 1
 896 640 l 1
 512 640 l 1
128 384 m 1
 256 384 l 1
 256 128 l 1
 128 128 l 1
 128 384 l 1
768 0 m 1
 640 0 l 1
 640 128 l 1
 768 128 l 1
 768 0 l 1
EndSplineSet
Validated: 5
EndChar

StartChar: uni3041
Encoding: 12353 12353 299
Width: 1024
GlyphClass: 1
Flags: W
LayerCount: 2
Fore
SplineSet
768 512 m 1
 512 512 l 1
 512 384 l 1
 640 384 l 1
 640 256 l 1
 768 256 l 1
 768 0 l 1
 640 0 l 1
 640 128 l 1
 512 128 l 1
 512 0 l 1
 256 0 l 1
 256 128 l 1
 384 128 l 1
 384 256 l 1
 256 256 l 1
 256 384 l 1
 384 384 l 1
 384 512 l 1
 256 512 l 1
 256 640 l 1
 384 640 l 1
 384 768 l 1
 512 768 l 1
 512 640 l 1
 768 640 l 1
 768 512 l 1
128 128 m 1
 128 256 l 1
 256 256 l 1
 256 128 l 1
 128 128 l 1
EndSplineSet
Validated: 5
EndChar

StartChar: uni3044
Encoding: 12356 12356 300
Width: 1024
GlyphClass: 1
Flags: W
LayerCount: 2
Fore
SplineSet
256 128 m 1
 128 128 l 1
 128 768 l 1
 256 768 l 1
 256 128 l 1
640 640 m 1
 640 768 l 1
 768 768 l 1
 768 640 l 1
 640 640 l 1
768 640 m 1
 896 640 l 1
 896 0 l 1
 768 0 l 1
 768 640 l 1
512 128 m 1
 384 128 l 1
 384 256 l 1
 512 256 l 1
 512 128 l 1
384 0 m 1
 256 0 l 1
 256 128 l 1
 384 128 l 1
 384 0 l 1
EndSplineSet
Validated: 5
EndChar

StartChar: uni3043
Encoding: 12355 12355 301
Width: 1024
GlyphClass: 1
Flags: W
LayerCount: 2
Fore
SplineSet
256 512 m 1
 256 128 l 1
 128 128 l 1
 128 512 l 1
 256 512 l 1
512 384 m 1
 512 512 l 1
 640 512 l 1
 640 384 l 1
 512 384 l 1
640 384 m 1
 768 384 l 1
 768 0 l 1
 640 0 l 1
 640 384 l 1
384 0 m 1
 256 0 l 1
 256 128 l 1
 384 128 l 1
 384 0 l 1
EndSplineSet
Validated: 5
EndChar

StartChar: uni3046
Encoding: 12358 12358 302
Width: 1024
GlyphClass: 1
Flags: W
LayerCount: 2
Fore
SplineSet
256 768 m 1
 256 896 l 1
 768 896 l 1
 768 768 l 1
 256 768 l 1
768 640 m 1
 768 512 l 1
 128 512 l 1
 128 640 l 1
 768 640 l 1
768 512 m 1
 896 512 l 1
 896 256 l 1
 768 256 l 1
 768 512 l 1
768 128 m 1
 640 128 l 1
 640 256 l 1
 768 256 l 1
 768 128 l 1
256 128 m 1
 640 128 l 1
 640 0 l 1
 256 0 l 1
 256 128 l 1
EndSplineSet
Validated: 5
EndChar

StartChar: uni3045
Encoding: 12357 12357 303
Width: 1024
GlyphClass: 1
Flags: W
LayerCount: 2
Fore
SplineSet
640 512 m 1
 256 512 l 1
 256 640 l 1
 640 640 l 1
 640 512 l 1
640 384 m 1
 640 256 l 1
 128 256 l 1
 128 384 l 1
 640 384 l 1
640 128 m 1
 640 256 l 1
 768 256 l 1
 768 128 l 1
 640 128 l 1
384 0 m 1
 384 128 l 1
 640 128 l 1
 640 0 l 1
 384 0 l 1
EndSplineSet
Validated: 5
EndChar

StartChar: uni3048
Encoding: 12360 12360 304
Width: 1024
GlyphClass: 1
Flags: W
LayerCount: 2
Fore
SplineSet
256 768 m 1
 256 896 l 1
 768 896 l 1
 768 768 l 1
 256 768 l 1
768 640 m 1
 768 384 l 1
 640 384 l 1
 640 512 l 1
 128 512 l 1
 128 640 l 1
 768 640 l 1
512 256 m 1
 512 384 l 1
 640 384 l 1
 640 256 l 1
 512 256 l 1
256 128 m 1
 256 256 l 1
 512 256 l 1
 512 128 l 1
 256 128 l 1
768 256 m 1
 768 128 l 1
 896 128 l 1
 896 0 l 1
 640 0 l 1
 640 256 l 1
 768 256 l 1
256 0 m 1
 128 0 l 1
 128 128 l 1
 256 128 l 1
 256 0 l 1
EndSplineSet
Validated: 5
EndChar

StartChar: uni3047
Encoding: 12359 12359 305
Width: 1024
GlyphClass: 1
Flags: W
LayerCount: 2
Fore
SplineSet
640 512 m 1
 256 512 l 1
 256 640 l 1
 640 640 l 1
 640 512 l 1
768 384 m 1
 768 256 l 1
 640 256 l 1
 640 128 l 1
 512 128 l 1
 512 256 l 1
 256 256 l 1
 256 384 l 1
 768 384 l 1
256 0 m 1
 256 128 l 1
 512 128 l 1
 512 0 l 1
 256 0 l 1
768 128 m 1
 768 0 l 1
 640 0 l 1
 640 128 l 1
 768 128 l 1
EndSplineSet
Validated: 5
EndChar

StartChar: uni304A
Encoding: 12362 12362 306
Width: 1024
GlyphClass: 1
Flags: W
LayerCount: 2
Fore
SplineSet
384 512 m 1
 640 512 l 1
 640 384 l 1
 384 384 l 1
 384 0 l 1
 128 0 l 1
 128 128 l 1
 256 128 l 1
 256 384 l 1
 128 384 l 1
 128 512 l 1
 256 512 l 1
 256 640 l 1
 0 640 l 1
 0 768 l 1
 256 768 l 1
 256 896 l 1
 384 896 l 1
 384 768 l 1
 640 768 l 1
 640 640 l 1
 384 640 l 1
 384 512 l 1
768 768 m 1
 896 768 l 1
 896 512 l 1
 768 512 l 1
 768 768 l 1
0 384 m 1
 128 384 l 1
 128 128 l 1
 0 128 l 1
 0 384 l 1
640 128 m 1
 640 384 l 1
 768 384 l 1
 768 128 l 1
 640 128 l 1
640 0 m 1
 512 0 l 1
 512 128 l 1
 640 128 l 1
 640 0 l 1
EndSplineSet
Validated: 5
EndChar

StartChar: uni3049
Encoding: 12361 12361 307
Width: 1024
GlyphClass: 1
Flags: W
LayerCount: 2
Fore
SplineSet
384 512 m 1
 384 384 l 1
 512 384 l 1
 512 256 l 1
 384 256 l 1
 384 0 l 1
 128 0 l 1
 128 128 l 1
 256 128 l 1
 256 256 l 1
 128 256 l 1
 128 384 l 1
 256 384 l 1
 256 512 l 1
 128 512 l 1
 128 640 l 1
 256 640 l 1
 256 768 l 1
 384 768 l 1
 384 640 l 1
 512 640 l 1
 512 512 l 1
 384 512 l 1
640 640 m 1
 768 640 l 1
 768 384 l 1
 640 384 l 1
 640 640 l 1
0 128 m 1
 0 256 l 1
 128 256 l 1
 128 128 l 1
 0 128 l 1
512 0 m 1
 512 256 l 1
 640 256 l 1
 640 0 l 1
 512 0 l 1
EndSplineSet
Validated: 5
EndChar

StartChar: uni304B
Encoding: 12363 12363 308
Width: 1024
GlyphClass: 1
Flags: W
LayerCount: 2
Fore
SplineSet
384 896 m 1
 384 768 l 1
 640 768 l 1
 640 128 l 1
 512 128 l 1
 512 640 l 1
 384 640 l 1
 384 384 l 1
 256 384 l 1
 256 640 l 1
 128 640 l 1
 128 768 l 1
 256 768 l 1
 256 896 l 1
 384 896 l 1
768 640 m 1
 896 640 l 1
 896 256 l 1
 768 256 l 1
 768 640 l 1
128 384 m 1
 256 384 l 1
 256 0 l 1
 128 0 l 1
 128 384 l 1
512 0 m 1
 384 0 l 1
 384 128 l 1
 512 128 l 1
 512 0 l 1
EndSplineSet
Validated: 5
EndChar

StartChar: uni304C
Encoding: 12364 12364 309
Width: 1024
GlyphClass: 1
Flags: W
LayerCount: 2
Fore
SplineSet
768 896 m 1
 768 640 l 1
 640 640 l 1
 640 896 l 1
 768 896 l 1
896 896 m 1
 1024 896 l 1
 1024 640 l 1
 896 640 l 1
 896 896 l 1
384 640 m 1
 512 640 l 1
 512 512 l 1
 640 512 l 1
 640 128 l 1
 512 128 l 1
 512 384 l 1
 384 384 l 1
 384 256 l 1
 256 256 l 1
 256 384 l 1
 128 384 l 1
 128 512 l 1
 384 512 l 1
 384 640 l 1
768 256 m 1
 768 512 l 1
 896 512 l 1
 896 256 l 1
 768 256 l 1
128 0 m 1
 128 256 l 1
 256 256 l 1
 256 0 l 1
 128 0 l 1
512 0 m 1
 384 0 l 1
 384 128 l 1
 512 128 l 1
 512 0 l 1
EndSplineSet
Validated: 5
EndChar

StartChar: uni304D
Encoding: 12365 12365 310
Width: 1024
GlyphClass: 1
Flags: W
LayerCount: 2
Fore
SplineSet
768 640 m 1
 512 640 l 1
 512 512 l 1
 768 512 l 1
 768 384 l 1
 640 384 l 1
 640 256 l 1
 384 256 l 1
 384 384 l 1
 128 384 l 1
 128 512 l 1
 384 512 l 1
 384 640 l 1
 128 640 l 1
 128 768 l 1
 384 768 l 1
 384 896 l 1
 512 896 l 1
 512 768 l 1
 768 768 l 1
 768 640 l 1
384 128 m 1
 256 128 l 1
 256 256 l 1
 384 256 l 1
 384 128 l 1
384 0 m 1
 384 128 l 1
 768 128 l 1
 768 0 l 1
 384 0 l 1
EndSplineSet
Validated: 5
EndChar

StartChar: uni304E
Encoding: 12366 12366 311
Width: 1024
GlyphClass: 1
Flags: W
LayerCount: 2
Fore
SplineSet
256 640 m 1
 256 512 l 1
 512 512 l 1
 512 384 l 1
 384 384 l 1
 384 256 l 1
 128 256 l 1
 128 384 l 1
 0 384 l 1
 0 512 l 1
 128 512 l 1
 128 640 l 1
 0 640 l 1
 0 768 l 1
 128 768 l 1
 128 896 l 1
 256 896 l 1
 256 768 l 1
 384 768 l 1
 384 640 l 1
 256 640 l 1
512 640 m 1
 512 896 l 1
 640 896 l 1
 640 640 l 1
 512 640 l 1
768 896 m 1
 896 896 l 1
 896 640 l 1
 768 640 l 1
 768 896 l 1
128 128 m 1
 0 128 l 1
 0 256 l 1
 128 256 l 1
 128 128 l 1
128 0 m 1
 128 128 l 1
 512 128 l 1
 512 0 l 1
 128 0 l 1
EndSplineSet
Validated: 5
EndChar

StartChar: uni304F
Encoding: 12367 12367 312
Width: 1024
GlyphClass: 1
Flags: W
LayerCount: 2
Fore
SplineSet
640 896 m 1
 768 896 l 1
 768 768 l 1
 640 768 l 1
 640 896 l 1
512 768 m 1
 640 768 l 1
 640 640 l 1
 512 640 l 1
 512 768 l 1
512 640 m 1
 512 512 l 1
 256 512 l 1
 256 640 l 1
 512 640 l 1
128 384 m 1
 128 512 l 1
 256 512 l 1
 256 384 l 1
 128 384 l 1
512 256 m 1
 256 256 l 1
 256 384 l 1
 512 384 l 1
 512 256 l 1
640 256 m 1
 640 128 l 1
 512 128 l 1
 512 256 l 1
 640 256 l 1
768 128 m 1
 768 0 l 1
 640 0 l 1
 640 128 l 1
 768 128 l 1
EndSplineSet
Validated: 5
EndChar

StartChar: uni3050
Encoding: 12368 12368 313
Width: 1024
GlyphClass: 1
Flags: W
LayerCount: 2
Fore
SplineSet
512 640 m 1
 512 896 l 1
 640 896 l 1
 640 640 l 1
 512 640 l 1
768 896 m 1
 896 896 l 1
 896 640 l 1
 768 640 l 1
 768 896 l 1
256 768 m 1
 384 768 l 1
 384 640 l 1
 256 640 l 1
 256 768 l 1
128 640 m 1
 256 640 l 1
 256 512 l 1
 128 512 l 1
 128 640 l 1
0 384 m 1
 0 512 l 1
 128 512 l 1
 128 384 l 1
 0 384 l 1
128 256 m 1
 128 384 l 1
 256 384 l 1
 256 256 l 1
 128 256 l 1
256 128 m 1
 256 256 l 1
 384 256 l 1
 384 128 l 1
 256 128 l 1
512 0 m 1
 384 0 l 1
 384 128 l 1
 512 128 l 1
 512 0 l 1
EndSplineSet
Validated: 5
EndChar

StartChar: uni3051
Encoding: 12369 12369 314
Width: 1024
GlyphClass: 1
Flags: W
LayerCount: 2
Fore
SplineSet
768 896 m 1
 768 768 l 1
 896 768 l 1
 896 640 l 1
 768 640 l 1
 768 128 l 1
 640 128 l 1
 640 640 l 1
 384 640 l 1
 384 768 l 1
 640 768 l 1
 640 896 l 1
 768 896 l 1
128 768 m 1
 256 768 l 1
 256 128 l 1
 128 128 l 1
 128 768 l 1
640 0 m 1
 512 0 l 1
 512 128 l 1
 640 128 l 1
 640 0 l 1
EndSplineSet
Validated: 5
EndChar

StartChar: uni3052
Encoding: 12370 12370 315
Width: 1024
GlyphClass: 1
Flags: W
LayerCount: 2
Fore
SplineSet
512 896 m 1
 512 640 l 1
 640 640 l 1
 640 512 l 1
 512 512 l 1
 512 128 l 1
 384 128 l 1
 384 512 l 1
 256 512 l 1
 256 640 l 1
 384 640 l 1
 384 896 l 1
 512 896 l 1
640 640 m 1
 640 896 l 1
 768 896 l 1
 768 640 l 1
 640 640 l 1
896 896 m 1
 1024 896 l 1
 1024 640 l 1
 896 640 l 1
 896 896 l 1
0 768 m 1
 128 768 l 1
 128 128 l 1
 0 128 l 1
 0 768 l 1
384 0 m 1
 256 0 l 1
 256 128 l 1
 384 128 l 1
 384 0 l 1
EndSplineSet
Validated: 5
EndChar

StartChar: uni3053
Encoding: 12371 12371 316
Width: 1024
GlyphClass: 1
Flags: W
LayerCount: 2
Fore
SplineSet
128 768 m 1
 128 896 l 1
 768 896 l 1
 768 640 l 1
 640 640 l 1
 640 768 l 1
 128 768 l 1
640 512 m 1
 512 512 l 1
 512 640 l 1
 640 640 l 1
 640 512 l 1
256 512 m 1
 384 512 l 1
 384 384 l 1
 256 384 l 1
 256 512 l 1
128 384 m 1
 256 384 l 1
 256 128 l 1
 128 128 l 1
 128 384 l 1
768 128 m 1
 768 256 l 1
 896 256 l 1
 896 128 l 1
 768 128 l 1
768 128 m 1
 768 0 l 1
 256 0 l 1
 256 128 l 1
 768 128 l 1
EndSplineSet
Validated: 5
EndChar

StartChar: uni3054
Encoding: 12372 12372 317
Width: 1024
GlyphClass: 1
Flags: W
LayerCount: 2
Fore
SplineSet
256 640 m 1
 256 768 l 1
 0 768 l 1
 0 896 l 1
 384 896 l 1
 384 640 l 1
 256 640 l 1
640 896 m 1
 640 640 l 1
 512 640 l 1
 512 896 l 1
 640 896 l 1
768 896 m 1
 896 896 l 1
 896 640 l 1
 768 640 l 1
 768 896 l 1
128 512 m 1
 256 512 l 1
 256 384 l 1
 128 384 l 1
 128 512 l 1
0 384 m 1
 128 384 l 1
 128 128 l 1
 0 128 l 1
 0 384 l 1
768 128 m 1
 640 128 l 1
 640 256 l 1
 768 256 l 1
 768 128 l 1
640 128 m 1
 640 0 l 1
 128 0 l 1
 128 128 l 1
 640 128 l 1
EndSplineSet
Validated: 5
EndChar

StartChar: uni3055
Encoding: 12373 12373 318
Width: 1024
GlyphClass: 1
Flags: W
LayerCount: 2
Fore
SplineSet
896 640 m 1
 640 640 l 1
 640 512 l 1
 768 512 l 1
 768 384 l 1
 256 384 l 1
 256 512 l 1
 512 512 l 1
 512 640 l 1
 128 640 l 1
 128 768 l 1
 384 768 l 1
 384 896 l 1
 512 896 l 1
 512 768 l 1
 896 768 l 1
 896 640 l 1
128 128 m 1
 128 384 l 1
 256 384 l 1
 256 128 l 1
 128 128 l 1
896 384 m 1
 896 256 l 1
 768 256 l 1
 768 384 l 1
 896 384 l 1
256 0 m 1
 256 128 l 1
 768 128 l 1
 768 0 l 1
 256 0 l 1
EndSplineSet
Validated: 5
EndChar

StartChar: uni3056
Encoding: 12374 12374 319
Width: 1024
GlyphClass: 1
Flags: W
LayerCount: 2
Fore
SplineSet
384 512 m 1
 640 512 l 1
 640 384 l 1
 128 384 l 1
 128 512 l 1
 256 512 l 1
 256 640 l 1
 0 640 l 1
 0 768 l 1
 128 768 l 1
 128 896 l 1
 256 896 l 1
 256 768 l 1
 512 768 l 1
 512 896 l 1
 640 896 l 1
 640 640 l 1
 384 640 l 1
 384 512 l 1
768 896 m 1
 896 896 l 1
 896 640 l 1
 768 640 l 1
 768 896 l 1
0 128 m 1
 0 384 l 1
 128 384 l 1
 128 128 l 1
 0 128 l 1
768 256 m 1
 640 256 l 1
 640 384 l 1
 768 384 l 1
 768 256 l 1
128 0 m 1
 128 128 l 1
 640 128 l 1
 640 0 l 1
 128 0 l 1
EndSplineSet
Validated: 5
EndChar

StartChar: uni3057
Encoding: 12375 12375 320
Width: 1024
GlyphClass: 1
Flags: W
LayerCount: 2
Fore
SplineSet
256 128 m 1
 128 128 l 1
 128 896 l 1
 256 896 l 1
 256 128 l 1
768 256 m 1
 768 384 l 1
 896 384 l 1
 896 256 l 1
 768 256 l 1
768 128 m 1
 640 128 l 1
 640 256 l 1
 768 256 l 1
 768 128 l 1
256 128 m 1
 640 128 l 1
 640 0 l 1
 256 0 l 1
 256 128 l 1
EndSplineSet
Validated: 5
EndChar

StartChar: uni3058
Encoding: 12376 12376 321
Width: 1024
GlyphClass: 1
Flags: W
LayerCount: 2
Fore
SplineSet
128 128 m 1
 0 128 l 1
 0 896 l 1
 128 896 l 1
 128 128 l 1
640 896 m 1
 640 640 l 1
 512 640 l 1
 512 896 l 1
 640 896 l 1
768 896 m 1
 896 896 l 1
 896 640 l 1
 768 640 l 1
 768 896 l 1
768 256 m 1
 640 256 l 1
 640 384 l 1
 768 384 l 1
 768 256 l 1
640 128 m 1
 512 128 l 1
 512 256 l 1
 640 256 l 1
 640 128 l 1
128 128 m 1
 512 128 l 1
 512 0 l 1
 128 0 l 1
 128 128 l 1
EndSplineSet
Validated: 5
EndChar

StartChar: uni3059
Encoding: 12377 12377 322
Width: 1024
GlyphClass: 1
Flags: W
LayerCount: 2
Fore
SplineSet
640 768 m 1
 896 768 l 1
 896 640 l 1
 640 640 l 1
 640 128 l 1
 512 128 l 1
 512 0 l 1
 128 0 l 1
 128 128 l 1
 384 128 l 1
 384 256 l 1
 512 256 l 1
 512 384 l 1
 384 384 l 1
 384 512 l 1
 512 512 l 1
 512 640 l 1
 128 640 l 1
 128 768 l 1
 512 768 l 1
 512 896 l 1
 640 896 l 1
 640 768 l 1
256 256 m 1
 256 384 l 1
 384 384 l 1
 384 256 l 1
 256 256 l 1
EndSplineSet
Validated: 5
EndChar

StartChar: uni305A
Encoding: 12378 12378 323
Width: 1024
GlyphClass: 1
Flags: W
LayerCount: 2
Fore
SplineSet
256 896 m 1
 384 896 l 1
 384 768 l 1
 512 768 l 1
 512 640 l 1
 384 640 l 1
 384 128 l 1
 256 128 l 1
 256 0 l 1
 0 0 l 1
 0 128 l 1
 128 128 l 1
 128 256 l 1
 256 256 l 1
 256 384 l 1
 128 384 l 1
 128 512 l 1
 256 512 l 1
 256 640 l 1
 0 640 l 1
 0 768 l 1
 256 768 l 1
 256 896 l 1
640 640 m 1
 640 896 l 1
 768 896 l 1
 768 640 l 1
 640 640 l 1
896 896 m 1
 1024 896 l 1
 1024 640 l 1
 896 640 l 1
 896 896 l 1
0 256 m 1
 0 384 l 1
 128 384 l 1
 128 256 l 1
 0 256 l 1
EndSplineSet
Validated: 5
EndChar

StartChar: uni305B
Encoding: 12379 12379 324
Width: 1024
GlyphClass: 1
Flags: W
LayerCount: 2
Fore
SplineSet
768 768 m 1
 768 640 l 1
 896 640 l 1
 896 512 l 1
 768 512 l 1
 768 256 l 1
 512 256 l 1
 512 384 l 1
 640 384 l 1
 640 512 l 1
 384 512 l 1
 384 128 l 1
 256 128 l 1
 256 512 l 1
 128 512 l 1
 128 640 l 1
 256 640 l 1
 256 768 l 1
 384 768 l 1
 384 640 l 1
 640 640 l 1
 640 768 l 1
 768 768 l 1
384 0 m 1
 384 128 l 1
 768 128 l 1
 768 0 l 1
 384 0 l 1
EndSplineSet
Validated: 5
EndChar

StartChar: uni305C
Encoding: 12380 12380 325
Width: 1024
GlyphClass: 1
Flags: W
LayerCount: 2
Fore
SplineSet
640 640 m 1
 640 896 l 1
 768 896 l 1
 768 640 l 1
 640 640 l 1
896 896 m 1
 1024 896 l 1
 1024 640 l 1
 896 640 l 1
 896 896 l 1
384 768 m 1
 512 768 l 1
 512 640 l 1
 640 640 l 1
 640 512 l 1
 512 512 l 1
 512 256 l 1
 384 256 l 1
 384 512 l 1
 256 512 l 1
 256 128 l 1
 128 128 l 1
 128 512 l 1
 0 512 l 1
 0 640 l 1
 128 640 l 1
 128 768 l 1
 256 768 l 1
 256 640 l 1
 384 640 l 1
 384 768 l 1
512 0 m 1
 256 0 l 1
 256 128 l 1
 512 128 l 1
 512 0 l 1
EndSplineSet
Validated: 5
EndChar

StartChar: uni305D
Encoding: 12381 12381 326
Width: 1024
GlyphClass: 1
Flags: W
LayerCount: 2
Fore
SplineSet
896 896 m 1
 896 768 l 1
 768 768 l 1
 768 640 l 1
 896 640 l 1
 896 512 l 1
 768 512 l 1
 768 384 l 1
 512 384 l 1
 512 512 l 1
 128 512 l 1
 128 640 l 1
 512 640 l 1
 512 768 l 1
 256 768 l 1
 256 896 l 1
 896 896 l 1
384 128 m 1
 384 384 l 1
 512 384 l 1
 512 128 l 1
 384 128 l 1
512 0 m 1
 512 128 l 1
 896 128 l 1
 896 0 l 1
 512 0 l 1
EndSplineSet
Validated: 5
EndChar

StartChar: uni305E
Encoding: 12382 12382 327
Width: 1024
GlyphClass: 1
Flags: W
LayerCount: 2
Fore
SplineSet
512 896 m 1
 512 768 l 1
 384 768 l 1
 384 640 l 1
 512 640 l 1
 512 512 l 1
 384 512 l 1
 384 384 l 1
 128 384 l 1
 128 512 l 1
 0 512 l 1
 0 640 l 1
 128 640 l 1
 128 768 l 1
 0 768 l 1
 0 896 l 1
 512 896 l 1
640 640 m 1
 640 896 l 1
 768 896 l 1
 768 640 l 1
 640 640 l 1
896 896 m 1
 1024 896 l 1
 1024 640 l 1
 896 640 l 1
 896 896 l 1
0 128 m 1
 0 384 l 1
 128 384 l 1
 128 128 l 1
 0 128 l 1
128 0 m 1
 128 128 l 1
 512 128 l 1
 512 0 l 1
 128 0 l 1
EndSplineSet
Validated: 5
EndChar

StartChar: uni305F
Encoding: 12383 12383 328
Width: 1024
GlyphClass: 1
Flags: W
LayerCount: 2
Fore
SplineSet
256 768 m 1
 512 768 l 1
 512 640 l 1
 256 640 l 1
 256 128 l 1
 128 128 l 1
 128 640 l 1
 0 640 l 1
 0 768 l 1
 128 768 l 1
 128 896 l 1
 256 896 l 1
 256 768 l 1
896 640 m 1
 896 512 l 1
 512 512 l 1
 512 640 l 1
 896 640 l 1
384 384 m 1
 512 384 l 1
 512 128 l 1
 384 128 l 1
 384 384 l 1
128 0 m 1
 0 0 l 1
 0 128 l 1
 128 128 l 1
 128 0 l 1
512 128 m 1
 896 128 l 1
 896 0 l 1
 512 0 l 1
 512 128 l 1
EndSplineSet
Validated: 5
EndChar

StartChar: uni3060
Encoding: 12384 12384 329
Width: 1024
GlyphClass: 1
Flags: W
LayerCount: 2
Fore
SplineSet
256 896 m 1
 256 768 l 1
 384 768 l 1
 384 640 l 1
 256 640 l 1
 256 128 l 1
 128 128 l 1
 128 640 l 1
 0 640 l 1
 0 768 l 1
 128 768 l 1
 128 896 l 1
 256 896 l 1
640 640 m 1
 640 896 l 1
 768 896 l 1
 768 640 l 1
 640 640 l 1
896 896 m 1
 1024 896 l 1
 1024 640 l 1
 896 640 l 1
 896 896 l 1
384 512 m 1
 384 640 l 1
 640 640 l 1
 640 512 l 1
 384 512 l 1
384 384 m 1
 512 384 l 1
 512 128 l 1
 384 128 l 1
 384 384 l 1
128 0 m 1
 0 0 l 1
 0 128 l 1
 128 128 l 1
 128 0 l 1
512 0 m 1
 512 128 l 1
 768 128 l 1
 768 0 l 1
 512 0 l 1
EndSplineSet
Validated: 5
EndChar

StartChar: uni3061
Encoding: 12385 12385 330
Width: 1024
GlyphClass: 1
Flags: W
LayerCount: 2
Fore
SplineSet
384 640 m 1
 384 512 l 1
 768 512 l 1
 768 384 l 1
 256 384 l 1
 256 640 l 1
 128 640 l 1
 128 768 l 1
 384 768 l 1
 384 896 l 1
 512 896 l 1
 512 768 l 1
 896 768 l 1
 896 640 l 1
 384 640 l 1
896 128 m 1
 768 128 l 1
 768 384 l 1
 896 384 l 1
 896 128 l 1
384 128 m 1
 768 128 l 1
 768 0 l 1
 384 0 l 1
 384 128 l 1
EndSplineSet
Validated: 5
EndChar

StartChar: uni3062
Encoding: 12386 12386 331
Width: 1024
GlyphClass: 1
Flags: W
LayerCount: 2
Fore
SplineSet
256 512 m 1
 512 512 l 1
 512 384 l 1
 128 384 l 1
 128 640 l 1
 0 640 l 1
 0 768 l 1
 256 768 l 1
 256 896 l 1
 384 896 l 1
 384 768 l 1
 512 768 l 1
 512 640 l 1
 256 640 l 1
 256 512 l 1
640 640 m 1
 640 896 l 1
 768 896 l 1
 768 640 l 1
 640 640 l 1
896 896 m 1
 1024 896 l 1
 1024 640 l 1
 896 640 l 1
 896 896 l 1
512 128 m 1
 512 384 l 1
 640 384 l 1
 640 128 l 1
 512 128 l 1
256 0 m 1
 256 128 l 1
 512 128 l 1
 512 0 l 1
 256 0 l 1
EndSplineSet
Validated: 5
EndChar

StartChar: uni3064
Encoding: 12388 12388 332
Width: 1024
GlyphClass: 1
Flags: W
LayerCount: 2
Fore
SplineSet
768 640 m 1
 768 512 l 1
 128 512 l 1
 128 640 l 1
 768 640 l 1
768 512 m 1
 896 512 l 1
 896 128 l 1
 768 128 l 1
 768 512 l 1
768 128 m 1
 768 0 l 1
 256 0 l 1
 256 128 l 1
 768 128 l 1
EndSplineSet
Validated: 5
EndChar

StartChar: uni3063
Encoding: 12387 12387 333
Width: 1024
GlyphClass: 1
Flags: W
LayerCount: 2
Fore
SplineSet
640 512 m 1
 640 384 l 1
 256 384 l 1
 256 512 l 1
 640 512 l 1
640 384 m 1
 768 384 l 1
 768 128 l 1
 640 128 l 1
 640 384 l 1
384 0 m 1
 384 128 l 1
 640 128 l 1
 640 0 l 1
 384 0 l 1
EndSplineSet
Validated: 5
EndChar

StartChar: uni3065
Encoding: 12389 12389 334
Width: 1024
GlyphClass: 1
Flags: W
LayerCount: 2
Fore
SplineSet
512 640 m 1
 512 896 l 1
 640 896 l 1
 640 640 l 1
 512 640 l 1
768 896 m 1
 896 896 l 1
 896 640 l 1
 768 640 l 1
 768 896 l 1
512 640 m 1
 512 512 l 1
 0 512 l 1
 0 640 l 1
 512 640 l 1
512 128 m 1
 512 512 l 1
 640 512 l 1
 640 128 l 1
 512 128 l 1
128 128 m 1
 512 128 l 1
 512 0 l 1
 128 0 l 1
 128 128 l 1
EndSplineSet
Validated: 5
EndChar

StartChar: uni3066
Encoding: 12390 12390 335
Width: 1024
GlyphClass: 1
Flags: W
LayerCount: 2
Fore
SplineSet
896 768 m 1
 896 640 l 1
 768 640 l 1
 768 512 l 1
 512 512 l 1
 512 640 l 1
 128 640 l 1
 128 768 l 1
 896 768 l 1
512 384 m 1
 384 384 l 1
 384 512 l 1
 512 512 l 1
 512 384 l 1
256 128 m 1
 256 384 l 1
 384 384 l 1
 384 128 l 1
 256 128 l 1
384 0 m 1
 384 128 l 1
 768 128 l 1
 768 0 l 1
 384 0 l 1
EndSplineSet
Validated: 5
EndChar

StartChar: uni3067
Encoding: 12391 12391 336
Width: 1024
GlyphClass: 1
Flags: W
LayerCount: 2
Fore
SplineSet
640 768 m 1
 640 640 l 1
 512 640 l 1
 512 512 l 1
 256 512 l 1
 256 640 l 1
 0 640 l 1
 0 768 l 1
 640 768 l 1
640 384 m 1
 640 640 l 1
 768 640 l 1
 768 384 l 1
 640 384 l 1
896 640 m 1
 1024 640 l 1
 1024 384 l 1
 896 384 l 1
 896 640 l 1
256 384 m 1
 128 384 l 1
 128 512 l 1
 256 512 l 1
 256 384 l 1
0 128 m 1
 0 384 l 1
 128 384 l 1
 128 128 l 1
 0 128 l 1
128 0 m 1
 128 128 l 1
 512 128 l 1
 512 0 l 1
 128 0 l 1
EndSplineSet
Validated: 5
EndChar

StartChar: uni3068
Encoding: 12392 12392 337
Width: 1024
GlyphClass: 1
Flags: W
LayerCount: 2
Fore
SplineSet
384 512 m 1
 640 512 l 1
 640 384 l 1
 256 384 l 1
 256 768 l 1
 384 768 l 1
 384 512 l 1
640 640 m 1
 896 640 l 1
 896 512 l 1
 640 512 l 1
 640 640 l 1
128 128 m 1
 128 384 l 1
 256 384 l 1
 256 128 l 1
 128 128 l 1
256 0 m 1
 256 128 l 1
 768 128 l 1
 768 0 l 1
 256 0 l 1
EndSplineSet
Validated: 5
EndChar

StartChar: uni3069
Encoding: 12393 12393 338
Width: 1024
GlyphClass: 1
Flags: W
LayerCount: 2
Fore
SplineSet
512 640 m 1
 512 896 l 1
 640 896 l 1
 640 640 l 1
 512 640 l 1
768 896 m 1
 896 896 l 1
 896 640 l 1
 768 640 l 1
 768 896 l 1
256 512 m 1
 640 512 l 1
 640 384 l 1
 128 384 l 1
 128 768 l 1
 256 768 l 1
 256 512 l 1
0 128 m 1
 0 384 l 1
 128 384 l 1
 128 128 l 1
 0 128 l 1
128 0 m 1
 128 128 l 1
 640 128 l 1
 640 0 l 1
 128 0 l 1
EndSplineSet
Validated: 5
EndChar

StartChar: uni306A
Encoding: 12394 12394 339
Width: 1024
GlyphClass: 1
Flags: W
LayerCount: 2
Fore
SplineSet
256 768 m 1
 384 768 l 1
 384 640 l 1
 256 640 l 1
 256 128 l 1
 128 128 l 1
 128 640 l 1
 0 640 l 1
 0 768 l 1
 128 768 l 1
 128 896 l 1
 256 896 l 1
 256 768 l 1
896 768 m 1
 896 640 l 1
 512 640 l 1
 512 768 l 1
 896 768 l 1
768 512 m 1
 768 256 l 1
 896 256 l 1
 896 0 l 1
 768 0 l 1
 768 128 l 1
 640 128 l 1
 640 256 l 1
 512 256 l 1
 512 384 l 1
 640 384 l 1
 640 512 l 1
 768 512 l 1
384 128 m 1
 384 256 l 1
 512 256 l 1
 512 128 l 1
 384 128 l 1
128 0 m 1
 0 0 l 1
 0 128 l 1
 128 128 l 1
 128 0 l 1
640 0 m 1
 512 0 l 1
 512 128 l 1
 640 128 l 1
 640 0 l 1
EndSplineSet
Validated: 5
EndChar

StartChar: uni306B
Encoding: 12395 12395 340
Width: 1024
GlyphClass: 1
Flags: W
LayerCount: 2
Fore
SplineSet
128 768 m 1
 256 768 l 1
 256 128 l 1
 128 128 l 1
 128 768 l 1
896 768 m 1
 896 640 l 1
 384 640 l 1
 384 768 l 1
 896 768 l 1
384 384 m 1
 512 384 l 1
 512 128 l 1
 384 128 l 1
 384 384 l 1
512 128 m 1
 896 128 l 1
 896 0 l 1
 512 0 l 1
 512 128 l 1
EndSplineSet
Validated: 5
EndChar

StartChar: uni306C
Encoding: 12396 12396 341
Width: 1024
GlyphClass: 1
Flags: W
LayerCount: 2
Fore
SplineSet
896 512 m 1
 896 128 l 1
 768 128 l 1
 768 0 l 1
 512 0 l 1
 512 128 l 1
 384 128 l 1
 384 256 l 1
 512 256 l 1
 512 512 l 1
 384 512 l 1
 384 256 l 1
 256 256 l 1
 256 512 l 1
 128 512 l 1
 128 640 l 1
 256 640 l 1
 256 768 l 1
 384 768 l 1
 384 640 l 1
 512 640 l 1
 512 768 l 1
 640 768 l 1
 640 640 l 1
 768 640 l 1
 768 512 l 1
 640 512 l 1
 640 256 l 1
 768 256 l 1
 768 512 l 1
 896 512 l 1
128 512 m 1
 128 128 l 1
 0 128 l 1
 0 512 l 1
 128 512 l 1
128 0 m 1
 128 128 l 1
 384 128 l 1
 384 0 l 1
 128 0 l 1
896 0 m 1
 896 128 l 1
 1024 128 l 1
 1024 0 l 1
 896 0 l 1
EndSplineSet
Validated: 5
EndChar

StartChar: uni306D
Encoding: 12397 12397 342
Width: 1024
GlyphClass: 1
Flags: W
LayerCount: 2
Fore
SplineSet
768 640 m 1
 768 512 l 1
 384 512 l 1
 384 0 l 1
 256 0 l 1
 256 128 l 1
 128 128 l 1
 128 256 l 1
 256 256 l 1
 256 640 l 1
 128 640 l 1
 128 768 l 1
 256 768 l 1
 256 896 l 1
 384 896 l 1
 384 640 l 1
 768 640 l 1
768 384 m 1
 768 512 l 1
 896 512 l 1
 896 0 l 1
 640 0 l 1
 640 128 l 1
 768 128 l 1
 768 256 l 1
 640 256 l 1
 640 384 l 1
 768 384 l 1
512 128 m 1
 512 256 l 1
 640 256 l 1
 640 128 l 1
 512 128 l 1
EndSplineSet
Validated: 5
EndChar

StartChar: uni306E
Encoding: 12398 12398 343
Width: 1024
GlyphClass: 1
Flags: W
LayerCount: 2
Fore
SplineSet
768 640 m 1
 768 512 l 1
 512 512 l 1
 512 128 l 1
 384 128 l 1
 384 512 l 1
 256 512 l 1
 256 640 l 1
 768 640 l 1
256 512 m 1
 256 128 l 1
 128 128 l 1
 128 512 l 1
 256 512 l 1
768 512 m 1
 896 512 l 1
 896 128 l 1
 768 128 l 1
 768 512 l 1
384 0 m 1
 256 0 l 1
 256 128 l 1
 384 128 l 1
 384 0 l 1
768 0 m 1
 640 0 l 1
 640 128 l 1
 768 128 l 1
 768 0 l 1
EndSplineSet
Validated: 5
EndChar

StartChar: uni306F
Encoding: 12399 12399 344
Width: 1024
GlyphClass: 1
Flags: W
LayerCount: 2
Fore
SplineSet
640 640 m 1
 640 384 l 1
 768 384 l 1
 768 256 l 1
 640 256 l 1
 640 128 l 1
 512 128 l 1
 512 256 l 1
 384 256 l 1
 384 384 l 1
 512 384 l 1
 512 640 l 1
 256 640 l 1
 256 768 l 1
 512 768 l 1
 512 896 l 1
 640 896 l 1
 640 768 l 1
 896 768 l 1
 896 640 l 1
 640 640 l 1
0 768 m 1
 128 768 l 1
 128 128 l 1
 0 128 l 1
 0 768 l 1
256 128 m 1
 256 256 l 1
 384 256 l 1
 384 128 l 1
 256 128 l 1
896 0 m 1
 768 0 l 1
 768 256 l 1
 896 256 l 1
 896 0 l 1
512 0 m 1
 384 0 l 1
 384 128 l 1
 512 128 l 1
 512 0 l 1
EndSplineSet
Validated: 5
EndChar

StartChar: uni3070
Encoding: 12400 12400 345
Width: 1024
GlyphClass: 1
Flags: W
LayerCount: 2
Fore
SplineSet
512 768 m 1
 640 768 l 1
 640 896 l 1
 768 896 l 1
 768 640 l 1
 512 640 l 1
 512 384 l 1
 640 384 l 1
 640 256 l 1
 512 256 l 1
 512 0 l 1
 256 0 l 1
 256 128 l 1
 384 128 l 1
 384 256 l 1
 256 256 l 1
 256 384 l 1
 384 384 l 1
 384 640 l 1
 256 640 l 1
 256 768 l 1
 384 768 l 1
 384 896 l 1
 512 896 l 1
 512 768 l 1
896 896 m 1
 1024 896 l 1
 1024 640 l 1
 896 640 l 1
 896 896 l 1
128 256 m 1
 256 256 l 1
 256 128 l 1
 0 128 l 1
 0 768 l 1
 128 768 l 1
 128 256 l 1
768 0 m 1
 640 0 l 1
 640 256 l 1
 768 256 l 1
 768 0 l 1
EndSplineSet
Validated: 5
EndChar

StartChar: uni3071
Encoding: 12401 12401 346
Width: 1024
GlyphClass: 1
Flags: W
LayerCount: 2
Fore
SplineSet
512 384 m 1
 640 384 l 1
 640 256 l 1
 512 256 l 1
 512 0 l 1
 256 0 l 1
 256 128 l 1
 384 128 l 1
 384 256 l 1
 256 256 l 1
 256 384 l 1
 384 384 l 1
 384 640 l 1
 256 640 l 1
 256 768 l 1
 384 768 l 1
 384 896 l 1
 512 896 l 1
 512 768 l 1
 640 768 l 1
 640 640 l 1
 512 640 l 1
 512 384 l 1
768 896 m 1
 1024 896 l 1
 1024 640 l 1
 768 640 l 1
 768 896 l 1
128 256 m 1
 256 256 l 1
 256 128 l 1
 0 128 l 1
 0 768 l 1
 128 768 l 1
 128 256 l 1
640 0 m 1
 640 256 l 1
 768 256 l 1
 768 0 l 1
 640 0 l 1
EndSplineSet
Validated: 5
EndChar

StartChar: uni3072
Encoding: 12402 12402 347
Width: 1024
GlyphClass: 1
Flags: W
LayerCount: 2
Fore
SplineSet
384 768 m 1
 384 512 l 1
 256 512 l 1
 256 640 l 1
 0 640 l 1
 0 768 l 1
 384 768 l 1
768 640 m 1
 768 512 l 1
 896 512 l 1
 896 384 l 1
 768 384 l 1
 768 128 l 1
 640 128 l 1
 640 512 l 1
 512 512 l 1
 512 768 l 1
 640 768 l 1
 640 640 l 1
 768 640 l 1
256 512 m 1
 256 128 l 1
 128 128 l 1
 128 512 l 1
 256 512 l 1
256 128 m 1
 640 128 l 1
 640 0 l 1
 256 0 l 1
 256 128 l 1
EndSplineSet
Validated: 5
EndChar

StartChar: uni3073
Encoding: 12403 12403 348
Width: 1024
GlyphClass: 1
Flags: W
LayerCount: 2
Fore
SplineSet
640 640 m 1
 640 896 l 1
 768 896 l 1
 768 640 l 1
 640 640 l 1
896 896 m 1
 1024 896 l 1
 1024 640 l 1
 896 640 l 1
 896 896 l 1
256 768 m 1
 256 512 l 1
 128 512 l 1
 128 640 l 1
 0 640 l 1
 0 768 l 1
 256 768 l 1
384 768 m 1
 512 768 l 1
 512 640 l 1
 640 640 l 1
 640 512 l 1
 768 512 l 1
 768 384 l 1
 640 384 l 1
 640 128 l 1
 512 128 l 1
 512 512 l 1
 384 512 l 1
 384 768 l 1
128 512 m 1
 128 128 l 1
 0 128 l 1
 0 512 l 1
 128 512 l 1
128 128 m 1
 512 128 l 1
 512 0 l 1
 128 0 l 1
 128 128 l 1
EndSplineSet
Validated: 5
EndChar

StartChar: uni3074
Encoding: 12404 12404 349
Width: 1024
GlyphClass: 1
Flags: W
LayerCount: 2
Fore
SplineSet
768 896 m 1
 1024 896 l 1
 1024 640 l 1
 768 640 l 1
 768 896 l 1
256 768 m 1
 256 512 l 1
 128 512 l 1
 128 640 l 1
 0 640 l 1
 0 768 l 1
 256 768 l 1
512 640 m 1
 640 640 l 1
 640 512 l 1
 768 512 l 1
 768 384 l 1
 640 384 l 1
 640 128 l 1
 512 128 l 1
 512 512 l 1
 384 512 l 1
 384 768 l 1
 512 768 l 1
 512 640 l 1
128 512 m 1
 128 128 l 1
 0 128 l 1
 0 512 l 1
 128 512 l 1
128 128 m 1
 512 128 l 1
 512 0 l 1
 128 0 l 1
 128 128 l 1
EndSplineSet
Validated: 5
EndChar

StartChar: uni3075
Encoding: 12405 12405 350
Width: 1024
GlyphClass: 1
Flags: W
LayerCount: 2
Fore
SplineSet
640 768 m 1
 256 768 l 1
 256 896 l 1
 640 896 l 1
 640 768 l 1
384 640 m 1
 512 640 l 1
 512 384 l 1
 384 384 l 1
 384 640 l 1
256 512 m 1
 256 256 l 1
 128 256 l 1
 128 512 l 1
 256 512 l 1
640 384 m 1
 640 512 l 1
 768 512 l 1
 768 384 l 1
 640 384 l 1
512 128 m 1
 512 384 l 1
 640 384 l 1
 640 128 l 1
 512 128 l 1
768 384 m 1
 896 384 l 1
 896 128 l 1
 768 128 l 1
 768 384 l 1
128 128 m 1
 0 128 l 1
 0 256 l 1
 128 256 l 1
 128 128 l 1
256 0 m 1
 256 128 l 1
 512 128 l 1
 512 0 l 1
 256 0 l 1
EndSplineSet
Validated: 5
EndChar

StartChar: uni3076
Encoding: 12406 12406 351
Width: 1024
GlyphClass: 1
Flags: W
LayerCount: 2
Fore
SplineSet
384 896 m 1
 384 768 l 1
 128 768 l 1
 128 896 l 1
 384 896 l 1
640 896 m 1
 640 640 l 1
 512 640 l 1
 512 896 l 1
 640 896 l 1
768 896 m 1
 896 896 l 1
 896 640 l 1
 768 640 l 1
 768 896 l 1
256 640 m 1
 384 640 l 1
 384 384 l 1
 256 384 l 1
 256 640 l 1
128 512 m 1
 128 256 l 1
 0 256 l 1
 0 512 l 1
 128 512 l 1
512 384 m 1
 512 512 l 1
 640 512 l 1
 640 384 l 1
 512 384 l 1
384 128 m 1
 384 384 l 1
 512 384 l 1
 512 128 l 1
 384 128 l 1
640 128 m 1
 640 384 l 1
 768 384 l 1
 768 128 l 1
 640 128 l 1
128 0 m 1
 128 128 l 1
 384 128 l 1
 384 0 l 1
 128 0 l 1
EndSplineSet
Validated: 5
EndChar

StartChar: uni3077
Encoding: 12407 12407 352
Width: 1024
GlyphClass: 1
Flags: W
LayerCount: 2
Fore
SplineSet
384 896 m 1
 384 768 l 1
 128 768 l 1
 128 896 l 1
 384 896 l 1
640 896 m 1
 896 896 l 1
 896 640 l 1
 640 640 l 1
 640 896 l 1
256 640 m 1
 384 640 l 1
 384 384 l 1
 256 384 l 1
 256 640 l 1
128 512 m 1
 128 256 l 1
 0 256 l 1
 0 512 l 1
 128 512 l 1
512 384 m 1
 512 512 l 1
 640 512 l 1
 640 384 l 1
 512 384 l 1
384 128 m 1
 384 384 l 1
 512 384 l 1
 512 128 l 1
 384 128 l 1
640 128 m 1
 640 384 l 1
 768 384 l 1
 768 128 l 1
 640 128 l 1
128 0 m 1
 128 128 l 1
 384 128 l 1
 384 0 l 1
 128 0 l 1
EndSplineSet
Validated: 5
EndChar

StartChar: uni3078
Encoding: 12408 12408 353
Width: 1024
GlyphClass: 1
Flags: W
LayerCount: 2
Fore
SplineSet
256 512 m 1
 256 640 l 1
 384 640 l 1
 384 512 l 1
 256 512 l 1
256 384 m 1
 128 384 l 1
 128 512 l 1
 256 512 l 1
 256 384 l 1
384 384 m 1
 384 512 l 1
 512 512 l 1
 512 384 l 1
 384 384 l 1
128 256 m 1
 0 256 l 1
 0 384 l 1
 128 384 l 1
 128 256 l 1
512 384 m 1
 768 384 l 1
 768 256 l 1
 512 256 l 1
 512 384 l 1
768 128 m 1
 768 256 l 1
 896 256 l 1
 896 128 l 1
 768 128 l 1
EndSplineSet
Validated: 5
EndChar

StartChar: uni3079
Encoding: 12409 12409 354
Width: 1024
GlyphClass: 1
Flags: W
LayerCount: 2
Fore
SplineSet
640 896 m 1
 640 640 l 1
 512 640 l 1
 512 896 l 1
 640 896 l 1
768 896 m 1
 896 896 l 1
 896 640 l 1
 768 640 l 1
 768 896 l 1
256 512 m 1
 256 640 l 1
 384 640 l 1
 384 512 l 1
 256 512 l 1
256 384 m 1
 128 384 l 1
 128 512 l 1
 256 512 l 1
 256 384 l 1
384 384 m 1
 384 512 l 1
 512 512 l 1
 512 384 l 1
 384 384 l 1
128 256 m 1
 0 256 l 1
 0 384 l 1
 128 384 l 1
 128 256 l 1
512 384 m 1
 768 384 l 1
 768 256 l 1
 512 256 l 1
 512 384 l 1
896 128 m 1
 768 128 l 1
 768 256 l 1
 896 256 l 1
 896 128 l 1
EndSplineSet
Validated: 5
EndChar

StartChar: uni307A
Encoding: 12410 12410 355
Width: 1024
GlyphClass: 1
Flags: W
LayerCount: 2
Fore
SplineSet
640 896 m 1
 896 896 l 1
 896 640 l 1
 640 640 l 1
 640 896 l 1
256 512 m 1
 256 640 l 1
 384 640 l 1
 384 512 l 1
 256 512 l 1
256 384 m 1
 128 384 l 1
 128 512 l 1
 256 512 l 1
 256 384 l 1
384 384 m 1
 384 512 l 1
 512 512 l 1
 512 384 l 1
 384 384 l 1
128 256 m 1
 0 256 l 1
 0 384 l 1
 128 384 l 1
 128 256 l 1
512 384 m 1
 768 384 l 1
 768 256 l 1
 512 256 l 1
 512 384 l 1
896 128 m 1
 768 128 l 1
 768 256 l 1
 896 256 l 1
 896 128 l 1
EndSplineSet
Validated: 5
EndChar

StartChar: uni307B
Encoding: 12411 12411 356
Width: 1024
GlyphClass: 1
Flags: W
LayerCount: 2
Fore
SplineSet
0 896 m 1
 128 896 l 1
 128 0 l 1
 0 0 l 1
 0 896 l 1
896 768 m 1
 640 768 l 1
 640 640 l 1
 896 640 l 1
 896 512 l 1
 640 512 l 1
 640 384 l 1
 768 384 l 1
 768 256 l 1
 640 256 l 1
 640 128 l 1
 512 128 l 1
 512 256 l 1
 384 256 l 1
 384 384 l 1
 512 384 l 1
 512 512 l 1
 256 512 l 1
 256 640 l 1
 512 640 l 1
 512 768 l 1
 256 768 l 1
 256 896 l 1
 896 896 l 1
 896 768 l 1
256 128 m 1
 256 256 l 1
 384 256 l 1
 384 128 l 1
 256 128 l 1
896 0 m 1
 768 0 l 1
 768 256 l 1
 896 256 l 1
 896 0 l 1
512 0 m 1
 384 0 l 1
 384 128 l 1
 512 128 l 1
 512 0 l 1
EndSplineSet
Validated: 5
EndChar

StartChar: uni307C
Encoding: 12412 12412 357
Width: 1024
GlyphClass: 1
Flags: W
LayerCount: 2
Fore
SplineSet
128 256 m 1
 256 256 l 1
 256 128 l 1
 0 128 l 1
 0 896 l 1
 128 896 l 1
 128 256 l 1
768 896 m 1
 768 640 l 1
 640 640 l 1
 640 768 l 1
 512 768 l 1
 512 640 l 1
 640 640 l 1
 640 512 l 1
 512 512 l 1
 512 384 l 1
 640 384 l 1
 640 256 l 1
 512 256 l 1
 512 128 l 1
 384 128 l 1
 384 256 l 1
 256 256 l 1
 256 384 l 1
 384 384 l 1
 384 512 l 1
 256 512 l 1
 256 640 l 1
 384 640 l 1
 384 768 l 1
 256 768 l 1
 256 896 l 1
 768 896 l 1
896 896 m 1
 1024 896 l 1
 1024 640 l 1
 896 640 l 1
 896 896 l 1
768 0 m 1
 640 0 l 1
 640 256 l 1
 768 256 l 1
 768 0 l 1
384 0 m 1
 256 0 l 1
 256 128 l 1
 384 128 l 1
 384 0 l 1
EndSplineSet
Validated: 5
EndChar

StartChar: uni307D
Encoding: 12413 12413 358
Width: 1024
GlyphClass: 1
Flags: W
LayerCount: 2
Fore
SplineSet
128 256 m 1
 256 256 l 1
 256 128 l 1
 0 128 l 1
 0 896 l 1
 128 896 l 1
 128 256 l 1
512 512 m 1
 512 384 l 1
 640 384 l 1
 640 256 l 1
 512 256 l 1
 512 128 l 1
 384 128 l 1
 384 256 l 1
 256 256 l 1
 256 384 l 1
 384 384 l 1
 384 512 l 1
 256 512 l 1
 256 640 l 1
 384 640 l 1
 384 768 l 1
 256 768 l 1
 256 896 l 1
 640 896 l 1
 640 768 l 1
 512 768 l 1
 512 640 l 1
 640 640 l 1
 640 512 l 1
 512 512 l 1
768 896 m 1
 1024 896 l 1
 1024 640 l 1
 768 640 l 1
 768 896 l 1
640 0 m 1
 640 256 l 1
 768 256 l 1
 768 0 l 1
 640 0 l 1
384 0 m 1
 256 0 l 1
 256 128 l 1
 384 128 l 1
 384 0 l 1
EndSplineSet
Validated: 5
EndChar

StartChar: uni307E
Encoding: 12414 12414 359
Width: 1024
GlyphClass: 1
Flags: W
LayerCount: 2
Fore
SplineSet
896 640 m 1
 640 640 l 1
 640 512 l 1
 896 512 l 1
 896 384 l 1
 640 384 l 1
 640 256 l 1
 768 256 l 1
 768 128 l 1
 512 128 l 1
 512 0 l 1
 128 0 l 1
 128 256 l 1
 512 256 l 1
 512 384 l 1
 128 384 l 1
 128 512 l 1
 512 512 l 1
 512 640 l 1
 128 640 l 1
 128 768 l 1
 512 768 l 1
 512 896 l 1
 640 896 l 1
 640 768 l 1
 896 768 l 1
 896 640 l 1
896 128 m 1
 896 0 l 1
 768 0 l 1
 768 128 l 1
 896 128 l 1
EndSplineSet
Validated: 5
EndChar

StartChar: uni307F
Encoding: 12415 12415 360
Width: 1024
GlyphClass: 1
Flags: W
LayerCount: 2
Fore
SplineSet
768 512 m 1
 896 512 l 1
 896 384 l 1
 768 384 l 1
 768 0 l 1
 640 0 l 1
 640 384 l 1
 512 384 l 1
 512 128 l 1
 384 128 l 1
 384 384 l 1
 256 384 l 1
 256 512 l 1
 384 512 l 1
 384 640 l 1
 128 640 l 1
 128 768 l 1
 512 768 l 1
 512 512 l 1
 640 512 l 1
 640 768 l 1
 768 768 l 1
 768 512 l 1
128 384 m 1
 256 384 l 1
 256 128 l 1
 128 128 l 1
 128 384 l 1
384 0 m 1
 256 0 l 1
 256 128 l 1
 384 128 l 1
 384 0 l 1
EndSplineSet
Validated: 5
EndChar

StartChar: uni3080
Encoding: 12416 12416 361
Width: 1024
GlyphClass: 1
Flags: W
LayerCount: 2
Fore
SplineSet
384 128 m 1
 128 128 l 1
 128 256 l 1
 256 256 l 1
 256 384 l 1
 128 384 l 1
 128 512 l 1
 256 512 l 1
 256 640 l 1
 0 640 l 1
 0 768 l 1
 256 768 l 1
 256 896 l 1
 384 896 l 1
 384 768 l 1
 512 768 l 1
 512 640 l 1
 384 640 l 1
 384 128 l 1
640 640 m 1
 640 768 l 1
 768 768 l 1
 768 640 l 1
 640 640 l 1
768 512 m 1
 768 640 l 1
 896 640 l 1
 896 512 l 1
 768 512 l 1
0 256 m 1
 0 384 l 1
 128 384 l 1
 128 256 l 1
 0 256 l 1
896 128 m 1
 768 128 l 1
 768 256 l 1
 896 256 l 1
 896 128 l 1
384 128 m 1
 768 128 l 1
 768 0 l 1
 384 0 l 1
 384 128 l 1
EndSplineSet
Validated: 5
EndChar

StartChar: uni3081
Encoding: 12417 12417 362
Width: 1024
GlyphClass: 1
Flags: W
LayerCount: 2
Fore
SplineSet
640 768 m 1
 640 640 l 1
 768 640 l 1
 768 512 l 1
 640 512 l 1
 640 256 l 1
 512 256 l 1
 512 512 l 1
 256 512 l 1
 256 384 l 1
 128 384 l 1
 128 128 l 1
 0 128 l 1
 0 512 l 1
 128 512 l 1
 128 768 l 1
 256 768 l 1
 256 640 l 1
 512 640 l 1
 512 768 l 1
 640 768 l 1
768 512 m 1
 896 512 l 1
 896 128 l 1
 768 128 l 1
 768 512 l 1
256 384 m 1
 384 384 l 1
 384 256 l 1
 512 256 l 1
 512 128 l 1
 384 128 l 1
 384 0 l 1
 128 0 l 1
 128 128 l 1
 256 128 l 1
 256 384 l 1
768 0 m 1
 640 0 l 1
 640 128 l 1
 768 128 l 1
 768 0 l 1
EndSplineSet
Validated: 5
EndChar

StartChar: uni3082
Encoding: 12418 12418 363
Width: 1024
GlyphClass: 1
Flags: W
LayerCount: 2
Fore
SplineSet
384 384 m 1
 384 128 l 1
 256 128 l 1
 256 384 l 1
 128 384 l 1
 128 512 l 1
 256 512 l 1
 256 640 l 1
 128 640 l 1
 128 768 l 1
 256 768 l 1
 256 896 l 1
 384 896 l 1
 384 768 l 1
 768 768 l 1
 768 640 l 1
 384 640 l 1
 384 512 l 1
 768 512 l 1
 768 384 l 1
 384 384 l 1
768 128 m 1
 768 256 l 1
 896 256 l 1
 896 128 l 1
 768 128 l 1
384 128 m 1
 768 128 l 1
 768 0 l 1
 384 0 l 1
 384 128 l 1
EndSplineSet
Validated: 5
EndChar

StartChar: uni3084
Encoding: 12420 12420 364
Width: 1024
GlyphClass: 1
Flags: W
LayerCount: 2
Fore
SplineSet
640 768 m 1
 640 640 l 1
 768 640 l 1
 768 512 l 1
 640 512 l 1
 640 384 l 1
 512 384 l 1
 512 512 l 1
 256 512 l 1
 256 0 l 1
 128 0 l 1
 128 384 l 1
 0 384 l 1
 0 512 l 1
 128 512 l 1
 128 896 l 1
 256 896 l 1
 256 640 l 1
 512 640 l 1
 512 768 l 1
 640 768 l 1
768 512 m 1
 896 512 l 1
 896 256 l 1
 768 256 l 1
 768 512 l 1
512 128 m 1
 512 256 l 1
 768 256 l 1
 768 128 l 1
 512 128 l 1
EndSplineSet
Validated: 5
EndChar

StartChar: uni3083
Encoding: 12419 12419 365
Width: 1024
GlyphClass: 1
Flags: W
LayerCount: 2
Fore
SplineSet
512 640 m 1
 640 640 l 1
 640 384 l 1
 384 384 l 1
 384 0 l 1
 256 0 l 1
 256 384 l 1
 128 384 l 1
 128 512 l 1
 256 512 l 1
 256 640 l 1
 384 640 l 1
 384 512 l 1
 512 512 l 1
 512 640 l 1
640 256 m 1
 640 384 l 1
 768 384 l 1
 768 256 l 1
 640 256 l 1
640 128 m 1
 512 128 l 1
 512 256 l 1
 640 256 l 1
 640 128 l 1
EndSplineSet
Validated: 5
EndChar

StartChar: uni3086
Encoding: 12422 12422 366
Width: 1024
GlyphClass: 1
Flags: W
LayerCount: 2
Fore
SplineSet
256 768 m 1
 256 512 l 1
 384 512 l 1
 384 384 l 1
 256 384 l 1
 256 128 l 1
 128 128 l 1
 128 768 l 1
 256 768 l 1
640 512 m 1
 640 256 l 1
 768 256 l 1
 768 128 l 1
 640 128 l 1
 640 0 l 1
 512 0 l 1
 512 128 l 1
 384 128 l 1
 384 256 l 1
 512 256 l 1
 512 512 l 1
 384 512 l 1
 384 640 l 1
 512 640 l 1
 512 768 l 1
 640 768 l 1
 640 640 l 1
 768 640 l 1
 768 512 l 1
 640 512 l 1
768 512 m 1
 896 512 l 1
 896 256 l 1
 768 256 l 1
 768 512 l 1
EndSplineSet
Validated: 5
EndChar

StartChar: uni3085
Encoding: 12421 12421 367
Width: 1024
GlyphClass: 1
Flags: W
LayerCount: 2
Fore
SplineSet
256 384 m 1
 384 384 l 1
 384 256 l 1
 256 256 l 1
 256 0 l 1
 128 0 l 1
 128 640 l 1
 256 640 l 1
 256 384 l 1
768 384 m 1
 640 384 l 1
 640 256 l 1
 768 256 l 1
 768 128 l 1
 640 128 l 1
 640 0 l 1
 512 0 l 1
 512 128 l 1
 384 128 l 1
 384 256 l 1
 512 256 l 1
 512 384 l 1
 384 384 l 1
 384 512 l 1
 512 512 l 1
 512 640 l 1
 640 640 l 1
 640 512 l 1
 768 512 l 1
 768 384 l 1
768 256 m 1
 768 384 l 1
 896 384 l 1
 896 256 l 1
 768 256 l 1
EndSplineSet
Validated: 5
EndChar

StartChar: uni3088
Encoding: 12424 12424 368
Width: 1024
GlyphClass: 1
Flags: W
LayerCount: 2
Fore
SplineSet
512 384 m 1
 640 384 l 1
 640 256 l 1
 512 256 l 1
 512 128 l 1
 384 128 l 1
 384 256 l 1
 256 256 l 1
 256 384 l 1
 384 384 l 1
 384 896 l 1
 512 896 l 1
 512 768 l 1
 768 768 l 1
 768 640 l 1
 512 640 l 1
 512 384 l 1
128 128 m 1
 128 256 l 1
 256 256 l 1
 256 128 l 1
 128 128 l 1
640 128 m 1
 640 256 l 1
 768 256 l 1
 768 128 l 1
 640 128 l 1
384 0 m 1
 256 0 l 1
 256 128 l 1
 384 128 l 1
 384 0 l 1
768 0 m 1
 768 128 l 1
 896 128 l 1
 896 0 l 1
 768 0 l 1
EndSplineSet
Validated: 5
EndChar

StartChar: uni3087
Encoding: 12423 12423 369
Width: 1024
GlyphClass: 1
Flags: W
LayerCount: 2
Fore
SplineSet
512 384 m 1
 512 256 l 1
 640 256 l 1
 640 128 l 1
 512 128 l 1
 512 0 l 1
 256 0 l 1
 256 256 l 1
 384 256 l 1
 384 640 l 1
 512 640 l 1
 512 512 l 1
 640 512 l 1
 640 384 l 1
 512 384 l 1
640 0 m 1
 640 128 l 1
 768 128 l 1
 768 0 l 1
 640 0 l 1
EndSplineSet
Validated: 5
EndChar

StartChar: uni3089
Encoding: 12425 12425 370
Width: 1024
GlyphClass: 1
Flags: W
LayerCount: 2
Fore
SplineSet
512 896 m 1
 512 768 l 1
 256 768 l 1
 256 896 l 1
 512 896 l 1
768 640 m 1
 512 640 l 1
 512 768 l 1
 768 768 l 1
 768 640 l 1
256 640 m 1
 256 384 l 1
 384 384 l 1
 384 256 l 1
 256 256 l 1
 256 128 l 1
 128 128 l 1
 128 640 l 1
 256 640 l 1
768 512 m 1
 768 384 l 1
 384 384 l 1
 384 512 l 1
 768 512 l 1
768 384 m 1
 896 384 l 1
 896 128 l 1
 768 128 l 1
 768 384 l 1
512 0 m 1
 512 128 l 1
 768 128 l 1
 768 0 l 1
 512 0 l 1
EndSplineSet
Validated: 5
EndChar

StartChar: uni308A
Encoding: 12426 12426 371
Width: 1024
GlyphClass: 1
Flags: W
LayerCount: 2
Fore
SplineSet
256 384 m 1
 384 384 l 1
 384 256 l 1
 256 256 l 1
 256 128 l 1
 128 128 l 1
 128 768 l 1
 256 768 l 1
 256 384 l 1
768 768 m 1
 896 768 l 1
 896 128 l 1
 768 128 l 1
 768 768 l 1
512 0 m 1
 512 128 l 1
 768 128 l 1
 768 0 l 1
 512 0 l 1
EndSplineSet
Validated: 5
EndChar

StartChar: uni308B
Encoding: 12427 12427 372
Width: 1024
GlyphClass: 1
Flags: W
LayerCount: 2
Fore
SplineSet
640 768 m 1
 640 640 l 1
 768 640 l 1
 768 512 l 1
 384 512 l 1
 384 384 l 1
 128 384 l 1
 128 512 l 1
 256 512 l 1
 256 640 l 1
 512 640 l 1
 512 768 l 1
 128 768 l 1
 128 896 l 1
 768 896 l 1
 768 768 l 1
 640 768 l 1
768 512 m 1
 896 512 l 1
 896 128 l 1
 768 128 l 1
 768 512 l 1
640 256 m 1
 640 128 l 1
 768 128 l 1
 768 0 l 1
 256 0 l 1
 256 128 l 1
 384 128 l 1
 384 256 l 1
 640 256 l 1
EndSplineSet
Validated: 5
EndChar

StartChar: uni308C
Encoding: 12428 12428 373
Width: 1024
GlyphClass: 1
Flags: W
LayerCount: 2
Fore
SplineSet
384 640 m 1
 640 640 l 1
 640 512 l 1
 384 512 l 1
 384 0 l 1
 256 0 l 1
 256 128 l 1
 128 128 l 1
 128 256 l 1
 256 256 l 1
 256 640 l 1
 0 640 l 1
 0 768 l 1
 256 768 l 1
 256 896 l 1
 384 896 l 1
 384 640 l 1
768 128 m 1
 896 128 l 1
 896 0 l 1
 640 0 l 1
 640 512 l 1
 768 512 l 1
 768 128 l 1
EndSplineSet
Validated: 5
EndChar

StartChar: uni308D
Encoding: 12429 12429 374
Width: 1024
GlyphClass: 1
Flags: W
LayerCount: 2
Fore
SplineSet
640 640 m 1
 640 512 l 1
 768 512 l 1
 768 384 l 1
 384 384 l 1
 384 512 l 1
 512 512 l 1
 512 640 l 1
 256 640 l 1
 256 768 l 1
 768 768 l 1
 768 640 l 1
 640 640 l 1
384 256 m 1
 256 256 l 1
 256 384 l 1
 384 384 l 1
 384 256 l 1
768 384 m 1
 896 384 l 1
 896 128 l 1
 768 128 l 1
 768 384 l 1
512 0 m 1
 512 128 l 1
 768 128 l 1
 768 0 l 1
 512 0 l 1
EndSplineSet
Validated: 5
EndChar

StartChar: uni308F
Encoding: 12431 12431 375
Width: 1024
GlyphClass: 1
Flags: W
LayerCount: 2
Fore
SplineSet
768 640 m 1
 768 512 l 1
 512 512 l 1
 512 384 l 1
 384 384 l 1
 384 0 l 1
 256 0 l 1
 256 128 l 1
 128 128 l 1
 128 256 l 1
 256 256 l 1
 256 640 l 1
 128 640 l 1
 128 768 l 1
 256 768 l 1
 256 896 l 1
 384 896 l 1
 384 640 l 1
 768 640 l 1
768 512 m 1
 896 512 l 1
 896 128 l 1
 768 128 l 1
 768 512 l 1
768 0 m 1
 640 0 l 1
 640 128 l 1
 768 128 l 1
 768 0 l 1
EndSplineSet
Validated: 5
EndChar

StartChar: uni308E
Encoding: 12430 12430 376
Width: 1024
GlyphClass: 1
Flags: W
LayerCount: 2
Fore
SplineSet
384 512 m 1
 640 512 l 1
 640 384 l 1
 512 384 l 1
 512 256 l 1
 384 256 l 1
 384 0 l 1
 256 0 l 1
 256 128 l 1
 128 128 l 1
 128 256 l 1
 256 256 l 1
 256 384 l 1
 128 384 l 1
 128 512 l 1
 256 512 l 1
 256 640 l 1
 384 640 l 1
 384 512 l 1
640 384 m 1
 768 384 l 1
 768 128 l 1
 640 128 l 1
 640 384 l 1
640 0 m 1
 512 0 l 1
 512 128 l 1
 640 128 l 1
 640 0 l 1
EndSplineSet
Validated: 5
EndChar

StartChar: uni3090
Encoding: 12432 12432 377
Width: 1024
GlyphClass: 1
Flags: W
LayerCount: 2
Fore
SplineSet
512 512 m 1
 768 512 l 1
 768 384 l 1
 512 384 l 1
 512 128 l 1
 384 128 l 1
 384 384 l 1
 256 384 l 1
 256 512 l 1
 384 512 l 1
 384 640 l 1
 128 640 l 1
 128 768 l 1
 640 768 l 1
 640 640 l 1
 512 640 l 1
 512 512 l 1
128 384 m 1
 256 384 l 1
 256 128 l 1
 128 128 l 1
 128 384 l 1
768 256 m 1
 768 384 l 1
 896 384 l 1
 896 0 l 1
 640 0 l 1
 640 256 l 1
 768 256 l 1
384 0 m 1
 256 0 l 1
 256 128 l 1
 384 128 l 1
 384 0 l 1
EndSplineSet
Validated: 5
EndChar

StartChar: uni3091
Encoding: 12433 12433 378
Width: 1024
GlyphClass: 1
Flags: W
LayerCount: 2
Fore
SplineSet
768 768 m 1
 640 768 l 1
 640 640 l 1
 512 640 l 1
 512 768 l 1
 128 768 l 1
 128 896 l 1
 768 896 l 1
 768 768 l 1
256 640 m 1
 512 640 l 1
 512 512 l 1
 256 512 l 1
 256 640 l 1
256 384 m 1
 128 384 l 1
 128 512 l 1
 256 512 l 1
 256 384 l 1
896 256 m 1
 768 256 l 1
 768 0 l 1
 640 0 l 1
 640 128 l 1
 512 128 l 1
 512 0 l 1
 256 0 l 1
 256 128 l 1
 384 128 l 1
 384 256 l 1
 512 256 l 1
 512 512 l 1
 768 512 l 1
 768 384 l 1
 896 384 l 1
 896 256 l 1
256 -128 m 1
 128 -128 l 1
 128 0 l 1
 256 0 l 1
 256 -128 l 1
640 -128 m 1
 512 -128 l 1
 512 0 l 1
 640 0 l 1
 640 -128 l 1
896 0 m 1
 896 -128 l 1
 768 -128 l 1
 768 0 l 1
 896 0 l 1
EndSplineSet
Validated: 5
EndChar

StartChar: uni3092
Encoding: 12434 12434 379
Width: 1024
GlyphClass: 1
Flags: W
LayerCount: 2
Fore
SplineSet
896 384 m 1
 896 256 l 1
 768 256 l 1
 768 128 l 1
 896 128 l 1
 896 0 l 1
 512 0 l 1
 512 128 l 1
 640 128 l 1
 640 256 l 1
 512 256 l 1
 512 384 l 1
 256 384 l 1
 256 512 l 1
 384 512 l 1
 384 640 l 1
 128 640 l 1
 128 768 l 1
 384 768 l 1
 384 896 l 1
 512 896 l 1
 512 768 l 1
 768 768 l 1
 768 640 l 1
 512 640 l 1
 512 512 l 1
 640 512 l 1
 640 384 l 1
 896 384 l 1
256 256 m 1
 128 256 l 1
 128 384 l 1
 256 384 l 1
 256 256 l 1
384 128 m 1
 384 256 l 1
 512 256 l 1
 512 128 l 1
 384 128 l 1
EndSplineSet
Validated: 5
EndChar

StartChar: uni3093
Encoding: 12435 12435 380
Width: 1024
GlyphClass: 1
Flags: W
LayerCount: 2
Fore
SplineSet
256 512 m 1
 384 512 l 1
 384 384 l 1
 256 384 l 1
 256 0 l 1
 128 0 l 1
 128 896 l 1
 256 896 l 1
 256 512 l 1
384 512 m 1
 384 640 l 1
 512 640 l 1
 512 512 l 1
 384 512 l 1
640 512 m 1
 640 128 l 1
 512 128 l 1
 512 512 l 1
 640 512 l 1
768 128 m 1
 768 256 l 1
 896 256 l 1
 896 128 l 1
 768 128 l 1
768 0 m 1
 640 0 l 1
 640 128 l 1
 768 128 l 1
 768 0 l 1
EndSplineSet
Validated: 5
EndChar

StartChar: uni3094
Encoding: 12436 12436 381
Width: 1024
GlyphClass: 1
Flags: W
LayerCount: 2
Fore
SplineSet
384 896 m 1
 384 768 l 1
 128 768 l 1
 128 896 l 1
 384 896 l 1
512 640 m 1
 512 896 l 1
 640 896 l 1
 640 640 l 1
 512 640 l 1
768 896 m 1
 896 896 l 1
 896 640 l 1
 768 640 l 1
 768 896 l 1
384 640 m 1
 384 512 l 1
 0 512 l 1
 0 640 l 1
 384 640 l 1
384 256 m 1
 384 512 l 1
 512 512 l 1
 512 256 l 1
 384 256 l 1
384 128 m 1
 256 128 l 1
 256 256 l 1
 384 256 l 1
 384 128 l 1
0 0 m 1
 0 128 l 1
 256 128 l 1
 256 0 l 1
 0 0 l 1
EndSplineSet
Validated: 5
EndChar

StartChar: uni30A2
Encoding: 12450 12450 382
Width: 1024
GlyphClass: 1
Flags: W
LayerCount: 2
Fore
SplineSet
896 768 m 1
 896 512 l 1
 768 512 l 1
 768 640 l 1
 0 640 l 1
 0 768 l 1
 896 768 l 1
384 512 m 1
 512 512 l 1
 512 128 l 1
 384 128 l 1
 384 512 l 1
768 384 m 1
 640 384 l 1
 640 512 l 1
 768 512 l 1
 768 384 l 1
384 0 m 1
 256 0 l 1
 256 128 l 1
 384 128 l 1
 384 0 l 1
EndSplineSet
Validated: 5
EndChar

StartChar: uni30A1
Encoding: 12449 12449 383
Width: 1024
GlyphClass: 1
Flags: W
LayerCount: 2
Fore
SplineSet
768 640 m 1
 768 384 l 1
 640 384 l 1
 640 512 l 1
 128 512 l 1
 128 640 l 1
 768 640 l 1
384 384 m 1
 640 384 l 1
 640 256 l 1
 512 256 l 1
 512 128 l 1
 384 128 l 1
 384 384 l 1
384 0 m 1
 256 0 l 1
 256 128 l 1
 384 128 l 1
 384 0 l 1
EndSplineSet
Validated: 5
EndChar

StartChar: uni30A4
Encoding: 12452 12452 384
Width: 1024
GlyphClass: 1
Flags: W
LayerCount: 2
Fore
SplineSet
768 640 m 1
 768 768 l 1
 896 768 l 1
 896 640 l 1
 768 640 l 1
768 512 m 1
 640 512 l 1
 640 640 l 1
 768 640 l 1
 768 512 l 1
384 384 m 1
 384 512 l 1
 640 512 l 1
 640 0 l 1
 512 0 l 1
 512 384 l 1
 384 384 l 1
128 256 m 1
 128 384 l 1
 384 384 l 1
 384 256 l 1
 128 256 l 1
EndSplineSet
Validated: 5
EndChar

StartChar: uni30A3
Encoding: 12451 12451 385
Width: 1024
GlyphClass: 1
Flags: W
LayerCount: 2
Fore
SplineSet
640 384 m 1
 640 512 l 1
 768 512 l 1
 768 384 l 1
 640 384 l 1
640 384 m 1
 640 256 l 1
 512 256 l 1
 512 0 l 1
 384 0 l 1
 384 256 l 1
 128 256 l 1
 128 384 l 1
 640 384 l 1
EndSplineSet
Validated: 5
EndChar

StartChar: uni30A6
Encoding: 12454 12454 386
Width: 1024
GlyphClass: 1
Flags: W
LayerCount: 2
Fore
SplineSet
896 640 m 1
 896 256 l 1
 768 256 l 1
 768 512 l 1
 256 512 l 1
 256 384 l 1
 128 384 l 1
 128 640 l 1
 384 640 l 1
 384 768 l 1
 512 768 l 1
 512 640 l 1
 896 640 l 1
768 128 m 1
 640 128 l 1
 640 256 l 1
 768 256 l 1
 768 128 l 1
384 0 m 1
 384 128 l 1
 640 128 l 1
 640 0 l 1
 384 0 l 1
EndSplineSet
Validated: 5
EndChar

StartChar: uni30A5
Encoding: 12453 12453 387
Width: 1024
GlyphClass: 1
Flags: W
LayerCount: 2
Fore
SplineSet
512 512 m 1
 768 512 l 1
 768 128 l 1
 640 128 l 1
 640 384 l 1
 384 384 l 1
 384 256 l 1
 256 256 l 1
 256 512 l 1
 384 512 l 1
 384 640 l 1
 512 640 l 1
 512 512 l 1
640 0 m 1
 512 0 l 1
 512 128 l 1
 640 128 l 1
 640 0 l 1
EndSplineSet
Validated: 5
EndChar

StartChar: uni30A8
Encoding: 12456 12456 388
Width: 1024
GlyphClass: 1
Flags: W
LayerCount: 2
Fore
SplineSet
896 128 m 1
 896 0 l 1
 128 0 l 1
 128 128 l 1
 384 128 l 1
 384 640 l 1
 128 640 l 1
 128 768 l 1
 768 768 l 1
 768 640 l 1
 512 640 l 1
 512 128 l 1
 896 128 l 1
EndSplineSet
Validated: 1
EndChar

StartChar: uni30A7
Encoding: 12455 12455 389
Width: 1024
GlyphClass: 1
Flags: W
LayerCount: 2
Fore
SplineSet
512 128 m 1
 768 128 l 1
 768 0 l 1
 128 0 l 1
 128 128 l 1
 384 128 l 1
 384 384 l 1
 128 384 l 1
 128 512 l 1
 640 512 l 1
 640 384 l 1
 512 384 l 1
 512 128 l 1
EndSplineSet
Validated: 1
EndChar

StartChar: uni30AA
Encoding: 12458 12458 390
Width: 1024
GlyphClass: 1
Flags: W
LayerCount: 2
Fore
SplineSet
768 768 m 1
 768 640 l 1
 896 640 l 1
 896 512 l 1
 768 512 l 1
 768 128 l 1
 640 128 l 1
 640 384 l 1
 512 384 l 1
 512 512 l 1
 128 512 l 1
 128 640 l 1
 640 640 l 1
 640 768 l 1
 768 768 l 1
512 256 m 1
 384 256 l 1
 384 384 l 1
 512 384 l 1
 512 256 l 1
384 128 m 1
 256 128 l 1
 256 256 l 1
 384 256 l 1
 384 128 l 1
640 0 m 1
 512 0 l 1
 512 128 l 1
 640 128 l 1
 640 0 l 1
EndSplineSet
Validated: 5
EndChar

StartChar: uni30A9
Encoding: 12457 12457 391
Width: 1024
GlyphClass: 1
Flags: W
LayerCount: 2
Fore
SplineSet
640 640 m 1
 640 512 l 1
 768 512 l 1
 768 384 l 1
 640 384 l 1
 640 128 l 1
 512 128 l 1
 512 256 l 1
 384 256 l 1
 384 384 l 1
 128 384 l 1
 128 512 l 1
 512 512 l 1
 512 640 l 1
 640 640 l 1
256 128 m 1
 256 256 l 1
 384 256 l 1
 384 128 l 1
 256 128 l 1
512 0 m 1
 384 0 l 1
 384 128 l 1
 512 128 l 1
 512 0 l 1
EndSplineSet
Validated: 5
EndChar

StartChar: uni30AB
Encoding: 12459 12459 392
Width: 1024
GlyphClass: 1
Flags: W
LayerCount: 2
Fore
SplineSet
896 640 m 1
 896 128 l 1
 768 128 l 1
 768 512 l 1
 512 512 l 1
 512 256 l 1
 384 256 l 1
 384 512 l 1
 128 512 l 1
 128 640 l 1
 384 640 l 1
 384 768 l 1
 512 768 l 1
 512 640 l 1
 896 640 l 1
384 128 m 1
 256 128 l 1
 256 256 l 1
 384 256 l 1
 384 128 l 1
256 0 m 1
 128 0 l 1
 128 128 l 1
 256 128 l 1
 256 0 l 1
768 0 m 1
 640 0 l 1
 640 128 l 1
 768 128 l 1
 768 0 l 1
EndSplineSet
Validated: 5
EndChar

StartChar: uni30F5
Encoding: 12533 12533 393
Width: 1024
GlyphClass: 1
Flags: W
LayerCount: 2
Fore
SplineSet
512 512 m 1
 768 512 l 1
 768 128 l 1
 640 128 l 1
 640 384 l 1
 512 384 l 1
 512 256 l 1
 384 256 l 1
 384 384 l 1
 256 384 l 1
 256 512 l 1
 384 512 l 1
 384 640 l 1
 512 640 l 1
 512 512 l 1
384 128 m 1
 256 128 l 1
 256 256 l 1
 384 256 l 1
 384 128 l 1
640 0 m 1
 512 0 l 1
 512 128 l 1
 640 128 l 1
 640 0 l 1
EndSplineSet
Validated: 5
EndChar

StartChar: uni30AC
Encoding: 12460 12460 394
Width: 1024
GlyphClass: 1
Flags: W
LayerCount: 2
Fore
SplineSet
640 896 m 1
 640 640 l 1
 512 640 l 1
 512 896 l 1
 640 896 l 1
768 896 m 1
 896 896 l 1
 896 640 l 1
 768 640 l 1
 768 896 l 1
384 512 m 1
 768 512 l 1
 768 128 l 1
 640 128 l 1
 640 384 l 1
 384 384 l 1
 384 256 l 1
 256 256 l 1
 256 384 l 1
 0 384 l 1
 0 512 l 1
 256 512 l 1
 256 640 l 1
 384 640 l 1
 384 512 l 1
256 128 m 1
 128 128 l 1
 128 256 l 1
 256 256 l 1
 256 128 l 1
640 0 m 1
 512 0 l 1
 512 128 l 1
 640 128 l 1
 640 0 l 1
EndSplineSet
Validated: 5
EndChar

StartChar: uni30AD
Encoding: 12461 12461 395
Width: 1024
GlyphClass: 1
Flags: W
LayerCount: 2
Fore
SplineSet
896 512 m 1
 896 384 l 1
 512 384 l 1
 512 0 l 1
 384 0 l 1
 384 384 l 1
 0 384 l 1
 0 512 l 1
 384 512 l 1
 384 640 l 1
 128 640 l 1
 128 768 l 1
 384 768 l 1
 384 896 l 1
 512 896 l 1
 512 768 l 1
 768 768 l 1
 768 640 l 1
 512 640 l 1
 512 512 l 1
 896 512 l 1
EndSplineSet
Validated: 1
EndChar

StartChar: uni30AE
Encoding: 12462 12462 396
Width: 1024
GlyphClass: 1
Flags: W
LayerCount: 2
Fore
SplineSet
512 640 m 1
 512 896 l 1
 640 896 l 1
 640 640 l 1
 512 640 l 1
768 896 m 1
 896 896 l 1
 896 640 l 1
 768 640 l 1
 768 896 l 1
256 768 m 1
 256 640 l 1
 512 640 l 1
 512 512 l 1
 256 512 l 1
 256 384 l 1
 512 384 l 1
 512 256 l 1
 256 256 l 1
 256 0 l 1
 128 0 l 1
 128 256 l 1
 0 256 l 1
 0 384 l 1
 128 384 l 1
 128 512 l 1
 0 512 l 1
 0 640 l 1
 128 640 l 1
 128 768 l 1
 256 768 l 1
EndSplineSet
Validated: 5
EndChar

StartChar: uni30AF
Encoding: 12463 12463 397
Width: 1024
GlyphClass: 1
Flags: W
LayerCount: 2
Fore
SplineSet
896 768 m 1
 896 384 l 1
 768 384 l 1
 768 640 l 1
 384 640 l 1
 384 512 l 1
 256 512 l 1
 256 896 l 1
 384 896 l 1
 384 768 l 1
 896 768 l 1
256 384 m 1
 128 384 l 1
 128 512 l 1
 256 512 l 1
 256 384 l 1
768 256 m 1
 640 256 l 1
 640 384 l 1
 768 384 l 1
 768 256 l 1
640 128 m 1
 512 128 l 1
 512 256 l 1
 640 256 l 1
 640 128 l 1
256 0 m 1
 256 128 l 1
 512 128 l 1
 512 0 l 1
 256 0 l 1
EndSplineSet
Validated: 5
EndChar

StartChar: uni30B0
Encoding: 12464 12464 398
Width: 1024
GlyphClass: 1
Flags: W
LayerCount: 2
Fore
SplineSet
512 640 m 1
 512 896 l 1
 640 896 l 1
 640 640 l 1
 512 640 l 1
768 896 m 1
 896 896 l 1
 896 640 l 1
 768 640 l 1
 768 896 l 1
256 768 m 1
 256 640 l 1
 512 640 l 1
 512 256 l 1
 384 256 l 1
 384 512 l 1
 256 512 l 1
 256 384 l 1
 128 384 l 1
 128 768 l 1
 256 768 l 1
128 256 m 1
 0 256 l 1
 0 384 l 1
 128 384 l 1
 128 256 l 1
384 128 m 1
 256 128 l 1
 256 256 l 1
 384 256 l 1
 384 128 l 1
0 0 m 1
 0 128 l 1
 256 128 l 1
 256 0 l 1
 0 0 l 1
EndSplineSet
Validated: 5
EndChar

StartChar: uni30B1
Encoding: 12465 12465 399
Width: 1024
GlyphClass: 1
Flags: W
LayerCount: 2
Fore
SplineSet
896 640 m 1
 896 512 l 1
 640 512 l 1
 640 128 l 1
 512 128 l 1
 512 512 l 1
 256 512 l 1
 256 640 l 1
 384 640 l 1
 384 896 l 1
 512 896 l 1
 512 640 l 1
 896 640 l 1
256 384 m 1
 128 384 l 1
 128 512 l 1
 256 512 l 1
 256 384 l 1
512 0 m 1
 384 0 l 1
 384 128 l 1
 512 128 l 1
 512 0 l 1
EndSplineSet
Validated: 5
EndChar

StartChar: uni30F6
Encoding: 12534 12534 400
Width: 1024
GlyphClass: 1
Flags: W
LayerCount: 2
Fore
SplineSet
768 512 m 1
 768 384 l 1
 640 384 l 1
 640 128 l 1
 512 128 l 1
 512 384 l 1
 256 384 l 1
 256 640 l 1
 384 640 l 1
 384 512 l 1
 768 512 l 1
256 256 m 1
 128 256 l 1
 128 384 l 1
 256 384 l 1
 256 256 l 1
512 0 m 1
 384 0 l 1
 384 128 l 1
 512 128 l 1
 512 0 l 1
EndSplineSet
Validated: 5
EndChar

StartChar: uni30B2
Encoding: 12466 12466 401
Width: 1024
GlyphClass: 1
Flags: W
LayerCount: 2
Fore
SplineSet
512 640 m 1
 512 896 l 1
 640 896 l 1
 640 640 l 1
 512 640 l 1
768 896 m 1
 896 896 l 1
 896 640 l 1
 768 640 l 1
 768 896 l 1
256 512 m 1
 640 512 l 1
 640 384 l 1
 512 384 l 1
 512 128 l 1
 384 128 l 1
 384 384 l 1
 128 384 l 1
 128 640 l 1
 256 640 l 1
 256 512 l 1
128 256 m 1
 0 256 l 1
 0 384 l 1
 128 384 l 1
 128 256 l 1
384 0 m 1
 256 0 l 1
 256 128 l 1
 384 128 l 1
 384 0 l 1
EndSplineSet
Validated: 5
EndChar

StartChar: uni30B3
Encoding: 12467 12467 402
Width: 1024
GlyphClass: 1
Flags: W
LayerCount: 2
Fore
SplineSet
896 640 m 1
 896 0 l 1
 128 0 l 1
 128 128 l 1
 768 128 l 1
 768 512 l 1
 128 512 l 1
 128 640 l 1
 896 640 l 1
EndSplineSet
Validated: 1
EndChar

StartChar: uni30B4
Encoding: 12468 12468 403
Width: 1024
GlyphClass: 1
Flags: W
LayerCount: 2
Fore
SplineSet
512 640 m 1
 512 896 l 1
 640 896 l 1
 640 640 l 1
 512 640 l 1
768 896 m 1
 896 896 l 1
 896 640 l 1
 768 640 l 1
 768 896 l 1
512 640 m 1
 512 0 l 1
 0 0 l 1
 0 128 l 1
 384 128 l 1
 384 512 l 1
 0 512 l 1
 0 640 l 1
 512 640 l 1
EndSplineSet
Validated: 5
EndChar

StartChar: uni30B5
Encoding: 12469 12469 404
Width: 1024
GlyphClass: 1
Flags: W
LayerCount: 2
Fore
SplineSet
768 768 m 1
 768 640 l 1
 896 640 l 1
 896 512 l 1
 768 512 l 1
 768 128 l 1
 640 128 l 1
 640 512 l 1
 384 512 l 1
 384 384 l 1
 256 384 l 1
 256 512 l 1
 128 512 l 1
 128 640 l 1
 256 640 l 1
 256 768 l 1
 384 768 l 1
 384 640 l 1
 640 640 l 1
 640 768 l 1
 768 768 l 1
640 0 m 1
 512 0 l 1
 512 128 l 1
 640 128 l 1
 640 0 l 1
EndSplineSet
Validated: 5
EndChar

StartChar: uni30B6
Encoding: 12470 12470 405
Width: 1024
GlyphClass: 1
Flags: W
LayerCount: 2
Fore
SplineSet
512 640 m 1
 512 896 l 1
 640 896 l 1
 640 640 l 1
 512 640 l 1
768 896 m 1
 896 896 l 1
 896 640 l 1
 768 640 l 1
 768 896 l 1
256 512 m 1
 384 512 l 1
 384 640 l 1
 512 640 l 1
 512 512 l 1
 640 512 l 1
 640 384 l 1
 512 384 l 1
 512 128 l 1
 384 128 l 1
 384 384 l 1
 256 384 l 1
 256 256 l 1
 128 256 l 1
 128 384 l 1
 0 384 l 1
 0 512 l 1
 128 512 l 1
 128 640 l 1
 256 640 l 1
 256 512 l 1
384 0 m 1
 256 0 l 1
 256 128 l 1
 384 128 l 1
 384 0 l 1
EndSplineSet
Validated: 5
EndChar

StartChar: uni30B7
Encoding: 12471 12471 406
Width: 1024
GlyphClass: 1
Flags: W
LayerCount: 2
Fore
SplineSet
512 896 m 1
 512 768 l 1
 256 768 l 1
 256 896 l 1
 512 896 l 1
640 768 m 1
 640 640 l 1
 512 640 l 1
 512 768 l 1
 640 768 l 1
384 640 m 1
 384 512 l 1
 128 512 l 1
 128 640 l 1
 384 640 l 1
512 512 m 1
 512 384 l 1
 384 384 l 1
 384 512 l 1
 512 512 l 1
768 384 m 1
 768 512 l 1
 896 512 l 1
 896 384 l 1
 768 384 l 1
768 256 m 1
 640 256 l 1
 640 384 l 1
 768 384 l 1
 768 256 l 1
384 128 m 1
 384 256 l 1
 640 256 l 1
 640 128 l 1
 384 128 l 1
128 0 m 1
 128 128 l 1
 384 128 l 1
 384 0 l 1
 128 0 l 1
EndSplineSet
Validated: 5
EndChar

StartChar: uni30B8
Encoding: 12472 12472 407
Width: 1024
GlyphClass: 1
Flags: W
LayerCount: 2
Fore
SplineSet
640 896 m 1
 640 640 l 1
 512 640 l 1
 512 896 l 1
 640 896 l 1
768 896 m 1
 896 896 l 1
 896 640 l 1
 768 640 l 1
 768 896 l 1
128 768 m 1
 256 768 l 1
 256 640 l 1
 128 640 l 1
 128 768 l 1
384 640 m 1
 384 512 l 1
 256 512 l 1
 256 640 l 1
 384 640 l 1
0 384 m 1
 0 512 l 1
 128 512 l 1
 128 384 l 1
 0 384 l 1
768 384 m 1
 640 384 l 1
 640 512 l 1
 768 512 l 1
 768 384 l 1
128 256 m 1
 128 384 l 1
 256 384 l 1
 256 256 l 1
 128 256 l 1
640 256 m 1
 512 256 l 1
 512 384 l 1
 640 384 l 1
 640 256 l 1
256 128 m 1
 256 256 l 1
 512 256 l 1
 512 128 l 1
 256 128 l 1
0 0 m 1
 0 128 l 1
 256 128 l 1
 256 0 l 1
 0 0 l 1
EndSplineSet
Validated: 5
EndChar

StartChar: uni30B9
Encoding: 12473 12473 408
Width: 1024
GlyphClass: 1
Flags: W
LayerCount: 2
Fore
SplineSet
896 768 m 1
 896 512 l 1
 768 512 l 1
 768 640 l 1
 128 640 l 1
 128 768 l 1
 896 768 l 1
768 384 m 1
 640 384 l 1
 640 512 l 1
 768 512 l 1
 768 384 l 1
640 256 m 1
 512 256 l 1
 512 384 l 1
 640 384 l 1
 640 256 l 1
512 128 m 1
 384 128 l 1
 384 256 l 1
 512 256 l 1
 512 128 l 1
768 256 m 1
 768 128 l 1
 640 128 l 1
 640 256 l 1
 768 256 l 1
128 0 m 1
 128 128 l 1
 384 128 l 1
 384 0 l 1
 128 0 l 1
896 128 m 1
 896 0 l 1
 768 0 l 1
 768 128 l 1
 896 128 l 1
EndSplineSet
Validated: 5
EndChar

StartChar: uni30BA
Encoding: 12474 12474 409
Width: 1024
GlyphClass: 1
Flags: W
LayerCount: 2
Fore
SplineSet
512 640 m 1
 512 896 l 1
 640 896 l 1
 640 640 l 1
 512 640 l 1
768 896 m 1
 896 896 l 1
 896 640 l 1
 768 640 l 1
 768 896 l 1
512 640 m 1
 512 256 l 1
 384 256 l 1
 384 512 l 1
 0 512 l 1
 0 640 l 1
 512 640 l 1
384 128 m 1
 256 128 l 1
 256 256 l 1
 384 256 l 1
 384 128 l 1
0 0 m 1
 0 128 l 1
 256 128 l 1
 256 0 l 1
 0 0 l 1
512 128 m 1
 512 0 l 1
 384 0 l 1
 384 128 l 1
 512 128 l 1
EndSplineSet
Validated: 5
EndChar

StartChar: uni30BB
Encoding: 12475 12475 410
Width: 1024
GlyphClass: 1
Flags: W
LayerCount: 2
Fore
SplineSet
768 512 m 1
 768 384 l 1
 640 384 l 1
 640 512 l 1
 384 512 l 1
 384 128 l 1
 256 128 l 1
 256 384 l 1
 128 384 l 1
 128 512 l 1
 256 512 l 1
 256 768 l 1
 384 768 l 1
 384 640 l 1
 896 640 l 1
 896 512 l 1
 768 512 l 1
640 256 m 1
 512 256 l 1
 512 384 l 1
 640 384 l 1
 640 256 l 1
384 0 m 1
 384 128 l 1
 896 128 l 1
 896 0 l 1
 384 0 l 1
EndSplineSet
Validated: 5
EndChar

StartChar: uni30BC
Encoding: 12476 12476 411
Width: 1024
GlyphClass: 1
Flags: W
LayerCount: 2
Fore
SplineSet
512 640 m 1
 512 896 l 1
 640 896 l 1
 640 512 l 1
 512 512 l 1
 512 384 l 1
 384 384 l 1
 384 512 l 1
 256 512 l 1
 256 128 l 1
 128 128 l 1
 128 384 l 1
 0 384 l 1
 0 512 l 1
 128 512 l 1
 128 768 l 1
 256 768 l 1
 256 640 l 1
 512 640 l 1
768 896 m 1
 896 896 l 1
 896 640 l 1
 768 640 l 1
 768 896 l 1
256 0 m 1
 256 128 l 1
 640 128 l 1
 640 0 l 1
 256 0 l 1
EndSplineSet
Validated: 5
EndChar

StartChar: uni30BD
Encoding: 12477 12477 412
Width: 1024
GlyphClass: 1
Flags: W
LayerCount: 2
Fore
SplineSet
128 768 m 1
 256 768 l 1
 256 640 l 1
 128 640 l 1
 128 768 l 1
768 768 m 1
 896 768 l 1
 896 384 l 1
 768 384 l 1
 768 768 l 1
384 384 m 1
 256 384 l 1
 256 640 l 1
 384 640 l 1
 384 384 l 1
768 256 m 1
 640 256 l 1
 640 384 l 1
 768 384 l 1
 768 256 l 1
640 128 m 1
 512 128 l 1
 512 256 l 1
 640 256 l 1
 640 128 l 1
128 128 m 1
 512 128 l 1
 512 0 l 1
 128 0 l 1
 128 128 l 1
EndSplineSet
Validated: 5
EndChar

StartChar: uni30BE
Encoding: 12478 12478 413
Width: 1024
GlyphClass: 1
Flags: W
LayerCount: 2
Fore
SplineSet
640 896 m 1
 640 640 l 1
 512 640 l 1
 512 896 l 1
 640 896 l 1
768 896 m 1
 896 896 l 1
 896 640 l 1
 768 640 l 1
 768 896 l 1
128 768 m 1
 256 768 l 1
 256 640 l 1
 128 640 l 1
 128 768 l 1
384 384 m 1
 256 384 l 1
 256 640 l 1
 384 640 l 1
 384 384 l 1
896 384 m 1
 768 384 l 1
 768 512 l 1
 896 512 l 1
 896 384 l 1
768 256 m 1
 640 256 l 1
 640 384 l 1
 768 384 l 1
 768 256 l 1
640 128 m 1
 512 128 l 1
 512 256 l 1
 640 256 l 1
 640 128 l 1
128 128 m 1
 512 128 l 1
 512 0 l 1
 128 0 l 1
 128 128 l 1
EndSplineSet
Validated: 5
EndChar

StartChar: uni30BF
Encoding: 12479 12479 414
Width: 1024
GlyphClass: 1
Flags: W
LayerCount: 2
Fore
SplineSet
768 768 m 1
 768 256 l 1
 640 256 l 1
 640 128 l 1
 512 128 l 1
 512 384 l 1
 640 384 l 1
 640 640 l 1
 384 640 l 1
 384 512 l 1
 256 512 l 1
 256 896 l 1
 384 896 l 1
 384 768 l 1
 768 768 l 1
256 384 m 1
 128 384 l 1
 128 512 l 1
 256 512 l 1
 256 384 l 1
384 384 m 1
 384 512 l 1
 512 512 l 1
 512 384 l 1
 384 384 l 1
256 0 m 1
 256 128 l 1
 512 128 l 1
 512 0 l 1
 256 0 l 1
EndSplineSet
Validated: 5
EndChar

StartChar: uni30C0
Encoding: 12480 12480 415
Width: 1024
GlyphClass: 1
Flags: W
LayerCount: 2
Fore
SplineSet
512 640 m 1
 512 896 l 1
 640 896 l 1
 640 640 l 1
 512 640 l 1
768 896 m 1
 896 896 l 1
 896 640 l 1
 768 640 l 1
 768 896 l 1
256 768 m 1
 256 640 l 1
 512 640 l 1
 512 128 l 1
 384 128 l 1
 384 256 l 1
 256 256 l 1
 256 384 l 1
 384 384 l 1
 384 512 l 1
 256 512 l 1
 256 384 l 1
 0 384 l 1
 0 512 l 1
 128 512 l 1
 128 768 l 1
 256 768 l 1
128 0 m 1
 128 128 l 1
 384 128 l 1
 384 0 l 1
 128 0 l 1
EndSplineSet
Validated: 5
EndChar

StartChar: uni30C1
Encoding: 12481 12481 416
Width: 1024
GlyphClass: 1
Flags: W
LayerCount: 2
Fore
SplineSet
896 640 m 1
 640 640 l 1
 640 512 l 1
 896 512 l 1
 896 384 l 1
 640 384 l 1
 640 128 l 1
 512 128 l 1
 512 384 l 1
 128 384 l 1
 128 512 l 1
 512 512 l 1
 512 640 l 1
 256 640 l 1
 256 768 l 1
 896 768 l 1
 896 640 l 1
512 0 m 1
 384 0 l 1
 384 128 l 1
 512 128 l 1
 512 0 l 1
EndSplineSet
Validated: 5
EndChar

StartChar: uni30C2
Encoding: 12482 12482 417
Width: 1024
GlyphClass: 1
Flags: W
LayerCount: 2
Fore
SplineSet
512 768 m 1
 512 896 l 1
 640 896 l 1
 640 640 l 1
 384 640 l 1
 384 512 l 1
 640 512 l 1
 640 384 l 1
 384 384 l 1
 384 128 l 1
 256 128 l 1
 256 384 l 1
 0 384 l 1
 0 512 l 1
 256 512 l 1
 256 640 l 1
 0 640 l 1
 0 768 l 1
 512 768 l 1
768 896 m 1
 896 896 l 1
 896 640 l 1
 768 640 l 1
 768 896 l 1
256 0 m 1
 128 0 l 1
 128 128 l 1
 256 128 l 1
 256 0 l 1
EndSplineSet
Validated: 5
EndChar

StartChar: uni30C4
Encoding: 12484 12484 418
Width: 1024
GlyphClass: 1
Flags: W
LayerCount: 2
Fore
SplineSet
256 896 m 1
 384 896 l 1
 384 768 l 1
 256 768 l 1
 256 896 l 1
512 768 m 1
 512 640 l 1
 384 640 l 1
 384 768 l 1
 512 768 l 1
768 768 m 1
 896 768 l 1
 896 384 l 1
 768 384 l 1
 768 768 l 1
128 640 m 1
 256 640 l 1
 256 512 l 1
 128 512 l 1
 128 640 l 1
384 512 m 1
 384 384 l 1
 256 384 l 1
 256 512 l 1
 384 512 l 1
768 256 m 1
 640 256 l 1
 640 384 l 1
 768 384 l 1
 768 256 l 1
640 128 m 1
 512 128 l 1
 512 256 l 1
 640 256 l 1
 640 128 l 1
128 128 m 1
 512 128 l 1
 512 0 l 1
 128 0 l 1
 128 128 l 1
EndSplineSet
Validated: 5
EndChar

StartChar: uni30C3
Encoding: 12483 12483 419
Width: 1024
GlyphClass: 1
Flags: W
LayerCount: 2
Fore
SplineSet
384 768 m 1
 512 768 l 1
 512 640 l 1
 384 640 l 1
 384 768 l 1
640 640 m 1
 640 512 l 1
 512 512 l 1
 512 640 l 1
 640 640 l 1
256 512 m 1
 384 512 l 1
 384 384 l 1
 256 384 l 1
 256 512 l 1
768 512 m 1
 896 512 l 1
 896 256 l 1
 768 256 l 1
 768 512 l 1
512 384 m 1
 512 256 l 1
 384 256 l 1
 384 384 l 1
 512 384 l 1
768 128 m 1
 640 128 l 1
 640 256 l 1
 768 256 l 1
 768 128 l 1
384 0 m 1
 384 128 l 1
 640 128 l 1
 640 0 l 1
 384 0 l 1
EndSplineSet
Validated: 5
EndChar

StartChar: uni30C5
Encoding: 12485 12485 420
Width: 1024
GlyphClass: 1
Flags: W
LayerCount: 2
Fore
SplineSet
512 896 m 1
 640 896 l 1
 640 640 l 1
 512 640 l 1
 512 896 l 1
768 896 m 1
 896 896 l 1
 896 640 l 1
 768 640 l 1
 768 896 l 1
128 768 m 1
 256 768 l 1
 256 640 l 1
 128 640 l 1
 128 768 l 1
384 640 m 1
 384 512 l 1
 256 512 l 1
 256 640 l 1
 384 640 l 1
640 640 m 1
 768 640 l 1
 768 256 l 1
 640 256 l 1
 640 640 l 1
0 512 m 1
 128 512 l 1
 128 384 l 1
 0 384 l 1
 0 512 l 1
256 384 m 1
 256 256 l 1
 128 256 l 1
 128 384 l 1
 256 384 l 1
640 128 m 1
 512 128 l 1
 512 256 l 1
 640 256 l 1
 640 128 l 1
128 128 m 1
 512 128 l 1
 512 0 l 1
 128 0 l 1
 128 128 l 1
EndSplineSet
Validated: 5
EndChar

StartChar: uni30C6
Encoding: 12486 12486 421
Width: 1024
GlyphClass: 1
Flags: W
LayerCount: 2
Fore
SplineSet
256 640 m 1
 256 768 l 1
 768 768 l 1
 768 640 l 1
 256 640 l 1
896 512 m 1
 896 384 l 1
 640 384 l 1
 640 128 l 1
 512 128 l 1
 512 384 l 1
 128 384 l 1
 128 512 l 1
 896 512 l 1
256 0 m 1
 256 128 l 1
 512 128 l 1
 512 0 l 1
 256 0 l 1
EndSplineSet
Validated: 5
EndChar

StartChar: uni30C7
Encoding: 12487 12487 422
Width: 1024
GlyphClass: 1
Flags: W
LayerCount: 2
Fore
SplineSet
512 640 m 1
 512 896 l 1
 640 896 l 1
 640 640 l 1
 512 640 l 1
768 896 m 1
 896 896 l 1
 896 640 l 1
 768 640 l 1
 768 896 l 1
128 640 m 1
 512 640 l 1
 512 512 l 1
 384 512 l 1
 384 384 l 1
 640 384 l 1
 640 256 l 1
 384 256 l 1
 384 128 l 1
 256 128 l 1
 256 256 l 1
 0 256 l 1
 0 384 l 1
 256 384 l 1
 256 512 l 1
 128 512 l 1
 128 640 l 1
256 0 m 1
 128 0 l 1
 128 128 l 1
 256 128 l 1
 256 0 l 1
EndSplineSet
Validated: 5
EndChar

StartChar: uni30C8
Encoding: 12488 12488 423
Width: 1024
GlyphClass: 1
Flags: W
LayerCount: 2
Fore
SplineSet
384 512 m 1
 512 512 l 1
 512 384 l 1
 384 384 l 1
 384 0 l 1
 256 0 l 1
 256 768 l 1
 384 768 l 1
 384 512 l 1
512 384 m 1
 768 384 l 1
 768 256 l 1
 512 256 l 1
 512 384 l 1
EndSplineSet
Validated: 5
EndChar

StartChar: uni30C9
Encoding: 12489 12489 424
Width: 1024
GlyphClass: 1
Flags: W
LayerCount: 2
Fore
SplineSet
640 896 m 1
 640 640 l 1
 512 640 l 1
 512 896 l 1
 640 896 l 1
768 896 m 1
 896 896 l 1
 896 640 l 1
 768 640 l 1
 768 896 l 1
384 512 m 1
 512 512 l 1
 512 384 l 1
 384 384 l 1
 384 0 l 1
 256 0 l 1
 256 768 l 1
 384 768 l 1
 384 512 l 1
512 256 m 1
 512 384 l 1
 768 384 l 1
 768 256 l 1
 512 256 l 1
EndSplineSet
Validated: 5
EndChar

StartChar: uni30CA
Encoding: 12490 12490 425
Width: 1024
GlyphClass: 1
Flags: W
LayerCount: 2
Fore
SplineSet
640 640 m 1
 896 640 l 1
 896 512 l 1
 640 512 l 1
 640 128 l 1
 512 128 l 1
 512 512 l 1
 128 512 l 1
 128 640 l 1
 512 640 l 1
 512 896 l 1
 640 896 l 1
 640 640 l 1
256 0 m 1
 256 128 l 1
 512 128 l 1
 512 0 l 1
 256 0 l 1
EndSplineSet
Validated: 5
EndChar

StartChar: uni30CB
Encoding: 12491 12491 426
Width: 1024
GlyphClass: 1
Flags: W
LayerCount: 2
Fore
SplineSet
896 640 m 1
 896 512 l 1
 256 512 l 1
 256 640 l 1
 896 640 l 1
896 128 m 1
 896 0 l 1
 128 0 l 1
 128 128 l 1
 896 128 l 1
EndSplineSet
Validated: 1
EndChar

StartChar: uni30CC
Encoding: 12492 12492 427
Width: 1024
GlyphClass: 1
Flags: W
LayerCount: 2
Fore
SplineSet
896 896 m 1
 896 384 l 1
 768 384 l 1
 768 768 l 1
 128 768 l 1
 128 896 l 1
 896 896 l 1
384 512 m 1
 384 640 l 1
 512 640 l 1
 512 512 l 1
 384 512 l 1
512 384 m 1
 512 512 l 1
 640 512 l 1
 640 384 l 1
 512 384 l 1
768 256 m 1
 640 256 l 1
 640 384 l 1
 768 384 l 1
 768 256 l 1
640 128 m 1
 512 128 l 1
 512 256 l 1
 640 256 l 1
 640 128 l 1
896 256 m 1
 896 128 l 1
 768 128 l 1
 768 256 l 1
 896 256 l 1
128 128 m 1
 512 128 l 1
 512 0 l 1
 128 0 l 1
 128 128 l 1
EndSplineSet
Validated: 5
EndChar

StartChar: uni30CD
Encoding: 12493 12493 428
Width: 1024
GlyphClass: 1
Flags: W
LayerCount: 2
Fore
SplineSet
640 768 m 1
 896 768 l 1
 896 512 l 1
 768 512 l 1
 768 640 l 1
 640 640 l 1
 640 512 l 1
 768 512 l 1
 768 384 l 1
 640 384 l 1
 640 256 l 1
 768 256 l 1
 768 128 l 1
 640 128 l 1
 640 0 l 1
 512 0 l 1
 512 256 l 1
 384 256 l 1
 384 512 l 1
 512 512 l 1
 512 640 l 1
 128 640 l 1
 128 768 l 1
 512 768 l 1
 512 896 l 1
 640 896 l 1
 640 768 l 1
384 128 m 1
 256 128 l 1
 256 256 l 1
 384 256 l 1
 384 128 l 1
256 0 m 1
 128 0 l 1
 128 128 l 1
 256 128 l 1
 256 0 l 1
896 128 m 1
 896 0 l 1
 768 0 l 1
 768 128 l 1
 896 128 l 1
EndSplineSet
Validated: 5
EndChar

StartChar: uni30CE
Encoding: 12494 12494 429
Width: 1024
GlyphClass: 1
Flags: W
LayerCount: 2
Fore
SplineSet
640 768 m 1
 768 768 l 1
 768 384 l 1
 640 384 l 1
 640 768 l 1
640 256 m 1
 512 256 l 1
 512 384 l 1
 640 384 l 1
 640 256 l 1
512 128 m 1
 384 128 l 1
 384 256 l 1
 512 256 l 1
 512 128 l 1
128 0 m 1
 128 128 l 1
 384 128 l 1
 384 0 l 1
 128 0 l 1
EndSplineSet
Validated: 5
EndChar

StartChar: uni30CF
Encoding: 12495 12495 430
Width: 1024
GlyphClass: 1
Flags: W
LayerCount: 2
Fore
SplineSet
256 640 m 1
 384 640 l 1
 384 128 l 1
 256 128 l 1
 256 640 l 1
640 640 m 1
 768 640 l 1
 768 384 l 1
 640 384 l 1
 640 640 l 1
768 384 m 1
 896 384 l 1
 896 0 l 1
 768 0 l 1
 768 384 l 1
256 0 m 1
 128 0 l 1
 128 128 l 1
 256 128 l 1
 256 0 l 1
EndSplineSet
Validated: 5
EndChar

StartChar: uni30D0
Encoding: 12496 12496 431
Width: 1024
GlyphClass: 1
Flags: W
LayerCount: 2
Fore
SplineSet
512 640 m 1
 512 896 l 1
 640 896 l 1
 640 640 l 1
 512 640 l 1
768 896 m 1
 896 896 l 1
 896 640 l 1
 768 640 l 1
 768 896 l 1
128 640 m 1
 256 640 l 1
 256 128 l 1
 128 128 l 1
 128 640 l 1
384 384 m 1
 384 640 l 1
 512 640 l 1
 512 384 l 1
 384 384 l 1
512 0 m 1
 512 384 l 1
 640 384 l 1
 640 0 l 1
 512 0 l 1
128 0 m 1
 0 0 l 1
 0 128 l 1
 128 128 l 1
 128 0 l 1
EndSplineSet
Validated: 5
EndChar

StartChar: uni30D1
Encoding: 12497 12497 432
Width: 1024
GlyphClass: 1
Flags: W
LayerCount: 2
Fore
SplineSet
640 896 m 1
 896 896 l 1
 896 640 l 1
 640 640 l 1
 640 896 l 1
128 640 m 1
 256 640 l 1
 256 128 l 1
 128 128 l 1
 128 640 l 1
384 640 m 1
 512 640 l 1
 512 384 l 1
 384 384 l 1
 384 640 l 1
512 384 m 1
 640 384 l 1
 640 0 l 1
 512 0 l 1
 512 384 l 1
128 0 m 1
 0 0 l 1
 0 128 l 1
 128 128 l 1
 128 0 l 1
EndSplineSet
Validated: 5
EndChar

StartChar: uni30D2
Encoding: 12498 12498 433
Width: 1024
GlyphClass: 1
Flags: W
LayerCount: 2
Fore
SplineSet
256 384 m 1
 256 128 l 1
 128 128 l 1
 128 768 l 1
 256 768 l 1
 256 512 l 1
 512 512 l 1
 512 384 l 1
 256 384 l 1
768 640 m 1
 768 512 l 1
 512 512 l 1
 512 640 l 1
 768 640 l 1
256 0 m 1
 256 128 l 1
 768 128 l 1
 768 0 l 1
 256 0 l 1
EndSplineSet
Validated: 5
EndChar

StartChar: uni30D3
Encoding: 12499 12499 434
Width: 1024
GlyphClass: 1
Flags: W
LayerCount: 2
Fore
SplineSet
512 640 m 1
 512 896 l 1
 640 896 l 1
 640 640 l 1
 512 640 l 1
768 896 m 1
 896 896 l 1
 896 640 l 1
 768 640 l 1
 768 896 l 1
128 384 m 1
 128 128 l 1
 0 128 l 1
 0 768 l 1
 128 768 l 1
 128 512 l 1
 512 512 l 1
 512 384 l 1
 128 384 l 1
640 128 m 1
 640 0 l 1
 128 0 l 1
 128 128 l 1
 640 128 l 1
EndSplineSet
Validated: 5
EndChar

StartChar: uni30D4
Encoding: 12500 12500 435
Width: 1024
GlyphClass: 1
Flags: W
LayerCount: 2
Fore
SplineSet
640 896 m 1
 896 896 l 1
 896 640 l 1
 640 640 l 1
 640 896 l 1
128 384 m 1
 128 128 l 1
 0 128 l 1
 0 768 l 1
 128 768 l 1
 128 512 l 1
 512 512 l 1
 512 384 l 1
 128 384 l 1
640 128 m 1
 640 0 l 1
 128 0 l 1
 128 128 l 1
 640 128 l 1
EndSplineSet
Validated: 5
EndChar

StartChar: uni30D5
Encoding: 12501 12501 436
Width: 1024
GlyphClass: 1
Flags: W
LayerCount: 2
Fore
SplineSet
896 768 m 1
 896 384 l 1
 768 384 l 1
 768 640 l 1
 128 640 l 1
 128 768 l 1
 896 768 l 1
768 256 m 1
 640 256 l 1
 640 384 l 1
 768 384 l 1
 768 256 l 1
640 128 m 1
 512 128 l 1
 512 256 l 1
 640 256 l 1
 640 128 l 1
128 128 m 1
 512 128 l 1
 512 0 l 1
 128 0 l 1
 128 128 l 1
EndSplineSet
Validated: 5
EndChar

StartChar: uni30D6
Encoding: 12502 12502 437
Width: 1024
GlyphClass: 1
Flags: W
LayerCount: 2
Fore
SplineSet
512 640 m 1
 512 896 l 1
 640 896 l 1
 640 640 l 1
 512 640 l 1
768 896 m 1
 896 896 l 1
 896 640 l 1
 768 640 l 1
 768 896 l 1
512 640 m 1
 512 256 l 1
 384 256 l 1
 384 512 l 1
 0 512 l 1
 0 640 l 1
 512 640 l 1
384 128 m 1
 256 128 l 1
 256 256 l 1
 384 256 l 1
 384 128 l 1
0 0 m 1
 0 128 l 1
 256 128 l 1
 256 0 l 1
 0 0 l 1
EndSplineSet
Validated: 5
EndChar

StartChar: uni30D7
Encoding: 12503 12503 438
Width: 1024
GlyphClass: 1
Flags: W
LayerCount: 2
Fore
SplineSet
640 896 m 1
 896 896 l 1
 896 640 l 1
 640 640 l 1
 640 896 l 1
512 640 m 1
 512 256 l 1
 384 256 l 1
 384 512 l 1
 0 512 l 1
 0 640 l 1
 512 640 l 1
384 128 m 1
 256 128 l 1
 256 256 l 1
 384 256 l 1
 384 128 l 1
0 0 m 1
 0 128 l 1
 256 128 l 1
 256 0 l 1
 0 0 l 1
EndSplineSet
Validated: 5
EndChar

StartChar: uni30D8
Encoding: 12504 12504 439
Width: 1024
GlyphClass: 1
Flags: W
LayerCount: 2
Fore
SplineSet
256 640 m 1
 512 640 l 1
 512 512 l 1
 256 512 l 1
 256 640 l 1
256 384 m 1
 128 384 l 1
 128 512 l 1
 256 512 l 1
 256 384 l 1
512 384 m 1
 512 512 l 1
 640 512 l 1
 640 384 l 1
 512 384 l 1
128 256 m 1
 0 256 l 1
 0 384 l 1
 128 384 l 1
 128 256 l 1
640 256 m 1
 640 384 l 1
 768 384 l 1
 768 256 l 1
 640 256 l 1
768 128 m 1
 768 256 l 1
 896 256 l 1
 896 128 l 1
 768 128 l 1
EndSplineSet
Validated: 5
EndChar

StartChar: uni30D9
Encoding: 12505 12505 440
Width: 1024
GlyphClass: 1
Flags: W
LayerCount: 2
Fore
SplineSet
640 896 m 1
 640 640 l 1
 512 640 l 1
 512 896 l 1
 640 896 l 1
768 896 m 1
 896 896 l 1
 896 640 l 1
 768 640 l 1
 768 896 l 1
256 640 m 1
 512 640 l 1
 512 512 l 1
 256 512 l 1
 256 640 l 1
256 384 m 1
 128 384 l 1
 128 512 l 1
 256 512 l 1
 256 384 l 1
512 384 m 1
 512 512 l 1
 640 512 l 1
 640 384 l 1
 512 384 l 1
128 256 m 1
 0 256 l 1
 0 384 l 1
 128 384 l 1
 128 256 l 1
640 256 m 1
 640 384 l 1
 768 384 l 1
 768 256 l 1
 640 256 l 1
896 128 m 1
 768 128 l 1
 768 256 l 1
 896 256 l 1
 896 128 l 1
EndSplineSet
Validated: 5
EndChar

StartChar: uni30DA
Encoding: 12506 12506 441
Width: 1024
GlyphClass: 1
Flags: W
LayerCount: 2
Fore
SplineSet
640 896 m 1
 896 896 l 1
 896 640 l 1
 640 640 l 1
 640 896 l 1
256 640 m 1
 512 640 l 1
 512 512 l 1
 256 512 l 1
 256 640 l 1
256 384 m 1
 128 384 l 1
 128 512 l 1
 256 512 l 1
 256 384 l 1
512 384 m 1
 512 512 l 1
 640 512 l 1
 640 384 l 1
 512 384 l 1
128 256 m 1
 0 256 l 1
 0 384 l 1
 128 384 l 1
 128 256 l 1
640 256 m 1
 640 384 l 1
 768 384 l 1
 768 256 l 1
 640 256 l 1
896 128 m 1
 768 128 l 1
 768 256 l 1
 896 256 l 1
 896 128 l 1
EndSplineSet
Validated: 5
EndChar

StartChar: uni30DB
Encoding: 12507 12507 442
Width: 1024
GlyphClass: 1
Flags: W
LayerCount: 2
Fore
SplineSet
896 768 m 1
 896 640 l 1
 512 640 l 1
 512 128 l 1
 384 128 l 1
 384 640 l 1
 0 640 l 1
 0 768 l 1
 384 768 l 1
 384 896 l 1
 512 896 l 1
 512 768 l 1
 896 768 l 1
256 512 m 1
 256 256 l 1
 128 256 l 1
 128 512 l 1
 256 512 l 1
640 512 m 1
 768 512 l 1
 768 256 l 1
 640 256 l 1
 640 512 l 1
0 0 m 1
 0 256 l 1
 128 256 l 1
 128 0 l 1
 0 0 l 1
768 0 m 1
 768 256 l 1
 896 256 l 1
 896 0 l 1
 768 0 l 1
384 0 m 1
 256 0 l 1
 256 128 l 1
 384 128 l 1
 384 0 l 1
EndSplineSet
Validated: 5
EndChar

StartChar: uni30DC
Encoding: 12508 12508 443
Width: 1024
GlyphClass: 1
Flags: W
LayerCount: 2
Fore
SplineSet
512 640 m 1
 512 896 l 1
 640 896 l 1
 640 512 l 1
 384 512 l 1
 384 384 l 1
 512 384 l 1
 512 256 l 1
 384 256 l 1
 384 128 l 1
 256 128 l 1
 256 256 l 1
 128 256 l 1
 128 384 l 1
 256 384 l 1
 256 512 l 1
 0 512 l 1
 0 640 l 1
 256 640 l 1
 256 768 l 1
 384 768 l 1
 384 640 l 1
 512 640 l 1
768 896 m 1
 896 896 l 1
 896 640 l 1
 768 640 l 1
 768 896 l 1
0 128 m 1
 0 256 l 1
 128 256 l 1
 128 128 l 1
 0 128 l 1
640 256 m 1
 640 128 l 1
 512 128 l 1
 512 256 l 1
 640 256 l 1
256 0 m 1
 128 0 l 1
 128 128 l 1
 256 128 l 1
 256 0 l 1
EndSplineSet
Validated: 5
EndChar

